SplineFontDB: 3.0
FontName: Manjari-Bold
FullName: Manjari Bold
FamilyName: Manjari
Weight: Bold
Copyright: Digitized data copyright (c) 2014, Santhosh Thottingal, Kavya Manohar,\nSwathanthra Malayalam Computing(http://smc.org.in)
Version: 1.0.0-alpha.20151120
ItalicAngle: 0
UnderlinePosition: -600
UnderlineWidth: 100
Ascent: 1434
Descent: 614
InvalidEm: 0
sfntRevision: 0x00060000
LayerCount: 2
Layer: 0 0 "Back" 1
Layer: 1 0 "Fore" 0
XUID: [1021 348 -393509193 1121778]
FSType: 0
OS2Version: 1
OS2_WeightWidthSlopeOnly: 0
OS2_UseTypoMetrics: 1
CreationTime: 1201144287
ModificationTime: 1453037845
PfmFamily: 33
TTFWeight: 700
TTFWidth: 5
LineGap: 0
VLineGap: 0
Panose: 2 0 5 3 0 0 0 0 0 0
OS2TypoAscent: 1434
OS2TypoAOffset: 0
OS2TypoDescent: -614
OS2TypoDOffset: 0
OS2TypoLinegap: 0
OS2WinAscent: 1465
OS2WinAOffset: 0
OS2WinDescent: 1414
OS2WinDOffset: 0
HheadAscent: 1465
HheadAOffset: 0
HheadDescent: -1414
HheadDOffset: 0
OS2SubXSize: 1331
OS2SubYSize: 1433
OS2SubXOff: 274
OS2SubYOff: 286
OS2SupXSize: 1331
OS2SupYSize: 1433
OS2SupXOff: -944
OS2SupYOff: 983
OS2StrikeYSize: 102
OS2StrikeYPos: 530
OS2Vendor: 'SMC '
OS2CodePages: 00000001.00000000
OS2UnicodeRanges: 80800003.00002000.00000000.00000000
MarkAttachClasses: 1
DEI: 91125
LangName: 1100 "" "" "" "" "" "" "" "" "" "" "" "" "" "" "" "" "" "" "+DS4NHg1NDRwNMA0/"

StartChar: .notdef
Encoding: 184 -1 0
Width: 692
GlyphClass: 2
Flags: HW
LayerCount: 2
Fore
SplineSet
127 105 m 1
 527 105 l 1
 527 1038 l 1
 127 1038 l 1
 127 105 l 1
20 1 m 1
 20 1144 l 1
 631 1144 l 1
 631 1 l 1
 20 1 l 1
EndSplineSet
EndChar

StartChar: exclam
Encoding: 1 33 4
Width: 352
GlyphClass: 2
Flags: HW
LayerCount: 2
Fore
SplineSet
176 221 m 0
 243 221 297 167 297 100 c 0
 297 33 243 -21 176 -21 c 0
 109 -21 55 33 55 100 c 0
 55 167 109 221 176 221 c 0
170 1360 m 2
 171 1360 l 0
 220 1360 276 1323 276 1267 c 1
 261 375 l 1
 261 327 225 282 171 282 c 0
 117 282 81 327 81 375 c 1
 65 1267 l 1
 65 1323 122 1359 170 1360 c 2
EndSplineSet
EndChar

StartChar: numbersign
Encoding: 3 35 6
Width: 937
GlyphClass: 2
Flags: HW
LayerCount: 2
Fore
SplineSet
467 754 m 1
 415 475 l 1
 608 475 l 1
 657 754 l 1
 467 754 l 1
824 754 m 1
 774 475 l 1
 960 475 l 1
 960 322 l 1
 747 322 l 1
 680 -55 l 1
 514 -55 l 1
 580 322 l 1
 386 322 l 1
 316 -55 l 1
 152 -55 l 1
 223 322 l 1
 43 322 l 1
 43 475 l 1
 252 475 l 1
 304 754 l 1
 113 754 l 1
 113 907 l 1
 332 907 l 1
 398 1256 l 1
 561 1256 l 1
 496 907 l 1
 684 907 l 1
 746 1256 l 1
 913 1256 l 1
 851 907 l 1
 1016 907 l 1
 1016 754 l 1
 824 754 l 1
EndSplineSet
EndChar

StartChar: dollar
Encoding: 4 36 7
Width: 1155
GlyphClass: 2
Flags: HW
LayerCount: 2
Fore
SplineSet
458 1197 m 1
 370 1171 304 1102 304 1009 c 0
 304 923 365 872 457 836 c 1
 458 1197 l 1
656 191 m 1
 775 206 872 269 872 373 c 0
 872 486 780 540 657 576 c 1
 656 191 l 1
68 288 m 0
 68 348 131 383 174 383 c 0
 195 383 215 376 233 361 c 0
 234 361 l 1
 237 358 l 1
 237 357 l 0
 288 298 366 242 456 212 c 1
 457 624 l 1
 272 674 101 782 101 1011 c 0
 101 1221 266 1375 464 1404 c 1
 478 1441 511 1471 552 1471 c 0
 605 1471 645 1438 655 1394 c 1
 814 1354 940 1247 991 1125 c 1
 998 1111 998 1100 998 1090 c 0
 998 1039 940 994 894 994 c 0
 838 994 808 1047 785 1080 c 1
 750 1130 708 1164 658 1185 c 1
 657 780 l 1
 861 725 1074 621 1074 374 c 0
 1074 145 866 12 656 -9 c 1
 656 -99 l 0
 656 -154 611 -199 556 -199 c 0
 501 -199 456 -153 456 -99 c 0
 456 5 l 1
 338 34 235 95 147 170 c 1
 116 196 68 236 68 288 c 0
EndSplineSet
EndChar

StartChar: percent
Encoding: 5 37 8
Width: 1584
GlyphClass: 2
Flags: HW
LayerCount: 2
Fore
SplineSet
673 988 m 0
 686 1070 644 1128 588 1163 c 0
 520 1205 437 1182 389 1137 c 0
 386 1130 382 1123 377 1117 c 0
 340 1072 332 1023 343 978 c 0
 363 893 451 828 545 851 c 0
 610 867 663 920 673 988 c 0
450 1370 m 1
 632 1404 779 1282 833 1164 c 0
 888 1043 868 918 811 825 c 1
 1248 1423 l 2
 1276 1463 1336 1485 1384 1452 c 0
 1438 1415 1440 1350 1413 1309 c 2
 456 -1 l 1
 455 -2 l 2
 455 -2 453 -4 450 -8 c 0
 420 -52 358 -52 324 -29 c 0
 275 4 259 65 293 114 c 2
 778 778 l 2
 776 775 773 773 771 771 c 0
 685 677 529 619 370 685 c 0
 252 733 130 872 151 1038 c 0
 173 1218 275 1331 450 1370 c 1
1317 279 m 0
 1330 361 1288 418 1232 453 c 0
 1164 495 1082 472 1034 427 c 0
 1029 418 1026 413 1021 408 c 0
 984 363 977 314 988 269 c 0
 1008 184 1095 119 1189 142 c 0
 1254 158 1307 211 1317 279 c 0
1094 661 m 1
 1276 695 1424 572 1477 454 c 0
 1544 308 1502 157 1415 62 c 0
 1329 -32 1173 -91 1014 -25 c 0
 896 23 774 163 795 329 c 0
 817 509 919 622 1094 661 c 1
EndSplineSet
EndChar

StartChar: ampersand
Encoding: 6 38 9
Width: 1216
GlyphClass: 2
Flags: HW
LayerCount: 2
Fore
SplineSet
486 630 m 1
 369 569 264 493 264 393 c 0
 264 275 362 185 495 185 c 0
 598 185 691 249 744 311 c 1
 660 415 575 521 486 630 c 1
536 864 m 1
 646 931 693 996 693 1062 c 0
 693 1133 634 1189 560 1189 c 0
 483 1189 420 1138 420 1060 c 0
 420 1004 456 963 536 864 c 1
883 1061 m 0
 883 923 801 812 653 720 c 1
 724 632 785 558 837 494 c 1
 851 544 859 593 861 646 c 1
 862 693 904 735 956 735 c 0
 995 735 1051 703 1051 657 c 0
 1051 540 1026 429 975 325 c 1
 1074 200 1121 140 1128 131 c 1
 1138 117 1141 99 1141 79 c 0
 1141 26 1095 -13 1043 -13 c 0
 1014 -13 987 2 968 27 c 1
 927 83 890 130 863 165 c 1
 775 70 653 -6 494 -6 c 0
 264 -6 76 157 76 379 c 0
 76 580 193 681 369 776 c 1
 310 853 231 949 231 1068 c 0
 231 1241 384 1381 551 1381 c 0
 738 1381 883 1243 883 1061 c 0
EndSplineSet
EndChar

StartChar: quotesingle
Encoding: 7 39 10
Width: 382
GlyphClass: 2
Flags: HW
LayerCount: 2
Fore
SplineSet
185 930 m 0
 129 930 85 977 85 1031 c 1
 75 1351 l 1
 75 1412 137 1450 187 1451 c 0
 238 1452 308 1413 307 1350 c 1
 307 1348 l 1
 285 1031 l 1
 283 975 239 930 185 930 c 0
EndSplineSet
EndChar

StartChar: parenleft
Encoding: 8 40 11
Width: 705
GlyphClass: 2
Flags: HW
LayerCount: 2
Fore
SplineSet
631 -276 m 0
 631 -331 589 -380 533 -380 c 0
 509 -380 486 -372 469 -358 c 1
 258 -196 75 91 75 440 c 0
 75 788 253 1076 463 1238 c 1
 480 1252 503 1260 527 1260 c 0
 583 1260 625 1211 625 1157 c 0
 625 1126 610 1098 585 1080 c 1
 420 951 275 717 275 441 c 0
 275 164 424 -72 590 -200 c 1
 617 -219 631 -245 631 -276 c 0
EndSplineSet
EndChar

StartChar: asterisk
Encoding: 10 42 13
Width: 955
GlyphClass: 2
Flags: HW
LayerCount: 2
Fore
SplineSet
-24 1236 m 0
 -24 1286 13 1337 67 1337 c 0
 89 1337 107 1331 122 1322 c 1
 390 1159 l 1
 386 1362 l 1
 386 1378 l 0
 386 1424 441 1459 481 1459 c 0
 533 1459 576 1415 576 1364 c 1
 580 1160 l 1
 834 1323 l 1
 850 1333 868 1339 890 1339 c 0
 933 1339 981 1299 981 1253 c 0
 981 1215 966 1182 936 1163 c 0
 666 990 l 1
 935 827 l 1
 963 810 981 783 981 750 c 0
 981 700 945 650 890 650 c 0
 869 650 851 656 836 665 c 1
 583 818 l 1
 588 549 l 1
 588 533 l 0
 588 486 533 452 493 452 c 0
 441 452 398 496 398 547 c 1
 393 817 l 1
 122 643 l 1
 105 632 86 628 66 628 c 0
 11 628 -25 678 -25 728 c 0
 -25 761 -7 786 20 803 c 1
 307 987 l 1
 23 1160 l 1
 -5 1177 -24 1203 -24 1236 c 0
EndSplineSet
EndChar

StartChar: plus
Encoding: 11 43 14
Width: 1050
GlyphClass: 2
Flags: HW
LayerCount: 2
Fore
SplineSet
602 358 m 1
 602 0 l 1
 448 0 l 1
 448 358 l 1
 75 358 l 1
 75 512 l 1
 448 512 l 1
 448 885 l 1
 602 885 l 1
 602 512 l 1
 975 512 l 1
 975 358 l 1
 602 358 l 1
EndSplineSet
EndChar

StartChar: comma
Encoding: 12 44 15
Width: 505
GlyphClass: 2
Flags: HW
LayerCount: 2
Fore
SplineSet
75 139 m 0
 75 223 145 308 231 308 c 0
 264 308 295 303 321 289 c 1
 431 230 456 114 409 -37 c 1
 374 -151 313 -238 225 -296 c 1
 209 -307 190 -314 172 -314 c 0
 119 -314 77 -268 77 -214 c 0
 77 -182 95 -155 123 -136 c 1
 164 -109 193 -73 212 -28 c 1
 134 -13 75 57 75 139 c 0
EndSplineSet
EndChar

StartChar: hyphen
Encoding: 13 45 16
Width: 618
GlyphClass: 2
Flags: HW
LayerCount: 2
Fore
SplineSet
75 341 m 1
 75 519 l 1
 543 519 l 1
 543 341 l 1
 75 341 l 1
EndSplineSet
EndChar

StartChar: period
Encoding: 14 46 17
Width: 489
GlyphClass: 2
Flags: HW
LayerCount: 2
Fore
SplineSet
244 -4 m 0
 153 -4 75 69 75 161 c 0
 75 253 153 325 244 325 c 0
 335 325 414 253 414 161 c 0
 414 69 335 -4 244 -4 c 0
EndSplineSet
EndChar

StartChar: slash
Encoding: 15 47 18
Width: 1011
GlyphClass: 2
Flags: HW
LayerCount: 2
Fore
SplineSet
874 1447 m 0
 934 1420 948 1357 928 1312 c 1
 266 -19 l 1
 262 -29 l 1
 240 -76 177 -88 140 -71 c 1
 87 -47 59 10 85 65 c 1
 747 1396 l 1
 770 1439 822 1471 874 1447 c 0
EndSplineSet
EndChar

StartChar: zero
Encoding: 16 48 19
Width: 1219
GlyphClass: 2
Flags: HW
LayerCount: 2
Fore
SplineSet
610 175 m 0
 848 175 944 418 944 696 c 0
 944 956 845 1185 613 1185 c 0
 376 1185 275 953 275 682 c 0
 275 409 373 175 610 175 c 0
606 -25 m 0
 232 -25 75 328 75 680 c 0
 75 1038 235 1379 607 1385 c 1
 624 1385 l 1
 989 1377 1144 1036 1144 688 c 0
 1144 321 985 -25 606 -25 c 0
EndSplineSet
EndChar

StartChar: one
Encoding: 17 49 20
Width: 772
GlyphClass: 2
Flags: HW
LayerCount: 2
Fore
SplineSet
166 983 m 0
 121 983 78 1033 78 1076 c 0
 78 1118 101 1171 150 1180 c 1
 201 1190 256 1237 307 1331 c 1
 325 1365 354 1387 390 1387 c 0
 447 1387 498 1351 498 1292 c 0
 497 186 l 1
 616 186 l 0
 663 186 697 131 697 91 c 0
 697 39 654 -4 602 -4 c 0
 170 -4 l 0
 118 -4 75 39 75 91 c 0
 75 131 109 186 156 186 c 0
 297 186 l 1
 297 1025 l 1
 268 1008 237 994 201 985 c 0
 199 985 l 1
 197 985 l 1
 190 984 180 983 166 983 c 0
EndSplineSet
EndChar

StartChar: two
Encoding: 18 50 21
Width: 1122
GlyphClass: 2
Flags: HW
LayerCount: 2
Fore
SplineSet
175 -3 m 2
 120 -3 75 42 75 97 c 0
 75 113 79 131 87 145 c 1
 157 269 247 380 355 474 c 1
 522 620 778 708 778 957 c 0
 778 1102 670 1215 530 1215 c 0
 414 1215 323 1128 303 1035 c 1
 293 992 251 955 204 955 c 0
 149 955 104 1000 104 1053 c 0
 104 1061 105 1068 106 1075 c 1
 144 1256 307 1415 532 1415 c 0
 791 1415 978 1215 978 961 c 0
 978 610 661 477 489 328 c 1
 444 288 399 242 362 197 c 1
 947 197 l 0
 1002 197 1047 152 1047 97 c 0
 1047 42 1002 -3 947 -3 c 0
 175 -3 l 2
EndSplineSet
EndChar

StartChar: three
Encoding: 19 51 22
Width: 1039
GlyphClass: 2
Flags: HW
LayerCount: 2
Fore
SplineSet
733 990 m 0
 733 1090 636 1177 523 1177 c 0
 434 1177 349 1117 328 1061 c 0
 309 1011 279 980 218 980 c 0
 174 980 127 1026 127 1069 c 0
 127 1087 131 1101 134 1111 c 0
 134 1111 l 1
 134 1111 l 0
 188 1255 329 1376 523 1376 c 0
 745 1376 934 1209 934 982 c 0
 934 866 877 774 813 712 c 1
 906 648 965 548 965 419 c 0
 965 164 746 -17 499 -17 c 0
 320 -17 175 83 94 195 c 1
 82 212 75 233 75 254 c 0
 75 308 127 345 180 345 c 0
 213 345 239 329 257 305 c 1
 303 245 393 184 493 184 c 0
 640 184 765 286 765 415 c 0
 765 550 671 591 504 592 c 1
 452 592 408 633 408 691 c 0
 408 764 469 797 521 797 c 0
 643 797 733 856 733 990 c 0
EndSplineSet
EndChar

StartChar: four
Encoding: 20 52 23
Width: 1303
GlyphClass: 2
Flags: HW
LayerCount: 2
Fore
SplineSet
728 587 m 1
 726 1003 l 1
 382 589 l 1
 728 587 l 1
929 88 m 2
 929 35 884 -7 829 -7 c 0
 774 -7 729 35 729 88 c 0
 729 89 l 1
 728 385 l 1
 175 387 l 1
 122 387 75 431 75 484 c 0
 75 507 81 529 96 548 c 0
 747 1336 l 0
 766 1360 793 1373 823 1373 c 0
 879 1373 925 1331 925 1276 c 1
 928 587 l 1
 1127 586 l 1
 1128 586 l 0
 1183 586 1228 542 1228 486 c 0
 1228 431 1184 384 1128 384 c 0
 1126 384 l 1
 928 385 l 1
 929 89 l 1
 929 88 l 2
EndSplineSet
EndChar

StartChar: five
Encoding: 21 53 24
Width: 1135
GlyphClass: 2
Flags: HW
LayerCount: 2
Fore
SplineSet
229 590 m 0
 183 590 125 622 125 673 c 0
 125 685 127 696 128 701 c 1
 232 1293 l 1
 240 1342 282 1377 330 1377 c 0
 942 1377 l 0
 991 1377 1042 1336 1042 1285 c 0
 1042 1226 1002 1177 942 1177 c 0
 414 1177 l 1
 368 918 l 1
 431 945 492 957 558 957 c 0
 839 957 1060 747 1060 469 c 0
 1060 188 834 -25 549 -25 c 0
 331 -25 161 105 85 258 c 1
 78 273 75 289 75 307 c 0
 75 352 122 395 169 395 c 0
 211 395 246 377 265 341 c 1
 313 250 412 175 550 175 c 0
 725 175 860 301 860 467 c 0
 860 632 731 755 545 755 c 0
 451 755 350 689 308 631 c 1
 290 605 262 590 229 590 c 0
EndSplineSet
EndChar

StartChar: six
Encoding: 22 54 25
Width: 1197
GlyphClass: 2
Flags: HW
LayerCount: 2
Fore
SplineSet
644 181 m 0
 808 181 922 300 922 460 c 0
 922 609 791 739 634 739 c 0
 475 739 347 608 347 457 c 0
 347 305 493 181 644 181 c 0
640 -18 m 0
 257 -18 75 353 75 713 c 0
 75 1067 269 1411 644 1411 c 0
 835 1411 980 1305 1055 1179 c 1
 1065 1164 1069 1144 1069 1124 c 0
 1069 1080 1026 1031 978 1031 c 0
 936 1031 901 1048 881 1080 c 1
 838 1151 753 1212 644 1212 c 0
 416 1212 300 1015 279 783 c 1
 360 868 487 937 622 937 c 0
 906 937 1122 728 1122 450 c 0
 1122 201 923 -18 640 -18 c 0
EndSplineSet
EndChar

StartChar: seven
Encoding: 23 55 26
Width: 1235
GlyphClass: 2
Flags: HW
LayerCount: 2
Fore
SplineSet
1060 1380 m 2
 1111 1380 1160 1341 1160 1284 c 0
 1160 1268 1156 1253 1149 1239 c 1
 948 853 780 454 643 44 c 1
 629 -2 590 -25 540 -25 c 0
 496 -25 448 18 448 62 c 0
 448 76 449 91 454 102 c 1
 578 472 726 832 900 1180 c 1
 175 1180 l 0
 120 1180 75 1225 75 1280 c 0
 75 1335 120 1380 175 1380 c 0
 1060 1380 l 2
EndSplineSet
EndChar

StartChar: eight
Encoding: 24 56 27
Width: 1070
GlyphClass: 2
Flags: HW
LayerCount: 2
Fore
SplineSet
794 386 m 0
 794 502 670 590 533 590 c 0
 398 590 275 509 275 386 c 0
 275 267 396 181 535 181 c 0
 674 181 794 267 794 386 c 0
319 996 m 0
 319 891 419 807 536 807 c 0
 651 807 751 881 751 995 c 0
 751 1097 645 1181 539 1181 c 0
 420 1181 319 1101 319 996 c 0
951 984 m 0
 951 871 904 779 813 707 c 1
 913 640 996 528 996 382 c 0
 996 140 771 -19 535 -19 c 0
 297 -19 75 138 75 384 c 0
 75 533 158 643 256 708 c 1
 175 774 120 873 120 999 c 0
 120 1214 317 1380 533 1380 c 0
 757 1380 951 1212 951 984 c 0
EndSplineSet
EndChar

StartChar: semicolon
Encoding: 27 59 30
Width: 425
GlyphClass: 2
Flags: HW
LayerCount: 2
Fore
SplineSet
221 306 m 0
 352 306 421 205 421 95 c 0
 421 55 414 11 399 -37 c 1
 364 -150 303 -239 215 -297 c 1
 198 -308 179 -314 161 -314 c 0
 108 -314 67 -267 67 -214 c 0
 67 -182 85 -156 113 -137 c 1
 153 -110 182 -73 201 -29 c 1
 122 -13 65 55 65 137 c 0
 65 221 135 306 221 306 c 0
244 574 m 0
 153 574 75 646 75 738 c 0
 75 830 153 905 244 905 c 0
 335 905 414 830 414 738 c 0
 414 646 335 574 244 574 c 0
EndSplineSet
EndChar

StartChar: less
Encoding: 28 60 31
Width: 1227
GlyphClass: 2
Flags: HW
LayerCount: 2
Fore
SplineSet
1021 963 m 2
 1032 968 1046 970 1058 970 c 0
 1110 970 1153 927 1153 875 c 0
 1153 838 1127 799 1092 786 c 1
 423 521 l 1
 1093 244 l 1
 1127 231 1153 194 1153 156 c 0
 1153 104 1110 61 1058 61 c 0
 1046 61 1032 63 1020 68 c 1
 133 435 l 1
 99 450 75 487 75 523 c 0
 75 560 100 598 135 611 c 1
 1021 963 l 2
EndSplineSet
EndChar

StartChar: equal
Encoding: 29 61 32
Width: 1109
GlyphClass: 2
Flags: HW
LayerCount: 2
Fore
SplineSet
75 702 m 0
 75 742 110 797 156 797 c 0
 163 797 168 797 175 796 c 1
 956 796 l 0
 1004 796 1035 739 1035 702 c 0
 1035 662 1002 604 954 604 c 0
 156 604 l 0
 108 604 75 663 75 702 c 0
75 378 m 0
 75 409 100 476 148 476 c 1
 171 475 l 1
 939 475 l 1
 954 476 l 1
 954 476 l 0
 1002 476 1035 417 1035 378 c 0
 1035 338 1000 283 954 283 c 0
 156 283 l 0
 110 283 75 338 75 378 c 0
EndSplineSet
EndChar

StartChar: question
Encoding: 31 63 34
Width: 949
GlyphClass: 2
Flags: HW
LayerCount: 2
Fore
SplineSet
75 958 m 0
 75 1172 253 1312 458 1312 c 0
 650 1312 802 1210 855 1058 c 1
 868 1022 874 986 874 949 c 0
 874 756 730 647 638 568 c 1
 581 519 540 487 540 413 c 0
 540 400 546 382 546 359 c 0
 546 310 506 271 456 271 c 0
 372 271 360 359 360 414 c 0
 360 647 590 728 661 843 c 1
 681 876 694 906 694 949 c 0
 694 1063 589 1132 460 1132 c 0
 344 1132 255 1066 255 957 c 0
 255 951 256 943 256 933 c 0
 256 884 216 846 166 846 c 0
 98 846 75 905 75 958 c 0
474 221 m 0
 541 221 595 167 595 100 c 0
 595 33 541 -21 474 -21 c 0
 407 -21 353 33 353 100 c 0
 353 167 407 221 474 221 c 0
EndSplineSet
EndChar

StartChar: at
Encoding: 32 64 35
Width: 1783
GlyphClass: 2
Flags: HW
LayerCount: 2
Fore
SplineSet
858 707 m 0
 739 707 640 604 640 483 c 0
 640 363 728 257 858 257 c 0
 984 257 1077 355 1079 480 c 1
 1078 606 981 707 858 707 c 0
866 56 m 0
 624 56 440 249 440 491 c 0
 440 708 631 909 846 909 c 0
 935 909 1015 886 1082 843 c 1
 1096 883 1133 911 1176 911 c 0
 1231 911 1276 866 1276 811 c 0
 1276 321 l 0
 1276 286 1320 252 1369 252 c 0
 1462 252 1506 357 1506 462 c 0
 1506 804 1210 1084 900 1084 c 0
 537 1084 273 793 273 480 c 0
 273 148 519 -137 869 -137 c 0
 940 -137 1012 -123 1088 -97 c 1
 1112 -89 1133 -83 1153 -83 c 0
 1206 -83 1233 -123 1233 -176 c 0
 1233 -228 1205 -268 1157 -286 c 1
 1060 -323 964 -341 869 -341 c 0
 407 -341 74 44 74 477 c 0
 74 884 415 1292 900 1292 c 0
 1304 1292 1658 942 1704 537 c 1
 1707 511 1708 486 1708 463 c 0
 1708 255 1590 49 1369 49 c 0
 1271 49 1192 90 1136 162 c 1
 1068 102 976 56 866 56 c 0
EndSplineSet
EndChar

StartChar: braceleft
Encoding: 85 123 36
Width: 947
GlyphClass: 2
Flags: HW
LayerCount: 2
Fore
SplineSet
451 -93 m 0
 451 -211 516 -299 637 -299 c 0
 666 -299 692 -293 710 -281 c 1
 733 -267 755 -255 780 -255 c 0
 834 -255 872 -302 872 -354 c 0
 872 -386 856 -412 829 -431 c 1
 769 -470 699 -491 628 -491 c 0
 407 -491 259 -310 259 -93 c 0
 259 41 318 153 318 265 c 0
 318 346 281 400 224 407 c 1
 205 404 193 403 179 403 c 0
 120 403 75 442 75 496 c 0
 75 520 83 543 100 564 c 1
 122 591 163 600 207 601 c 1
 260 618 287 659 287 742 c 0
 287 846 236 975 236 1096 c 0
 236 1291 366 1459 580 1459 c 0
 696 1459 777 1415 843 1335 c 1
 859 1317 866 1293 866 1270 c 0
 866 1217 820 1177 769 1177 c 0
 740 1177 714 1191 697 1213 c 1
 669 1246 625 1267 578 1267 c 0
 480 1267 426 1185 426 1099 c 0
 426 1002 479 848 479 731 c 0
 479 652 458 580 411 520 c 1
 477 457 507 374 507 270 c 0
 507 147 451 28 451 -93 c 0
EndSplineSet
EndChar

StartChar: bar
Encoding: 86 124 37
Width: 350
GlyphClass: 2
Flags: HW
LayerCount: 2
Fore
SplineSet
275 -295 m 2
 275 -341 236 -395 186 -395 c 0
 119 -395 75 -360 75 -294 c 0
 75 1211 l 0
 75 1265 118 1311 174 1311 c 0
 175 1311 l 0
 232 1311 275 1265 275 1210 c 0
 275 -295 l 2
EndSplineSet
EndChar

StartChar: asciitilde
Encoding: 88 126 39
Width: 1385
GlyphClass: 2
Flags: HW
LayerCount: 2
Fore
SplineSet
1216 1032 m 0
 1268 1032 1311 991 1311 941 c 0
 1311 932 1309 924 1308 919 c 0
 1308 918 l 1
 1308 918 l 0
 1271 780 1133 660 954 660 c 0
 824 660 727 716 648 758 c 1
 573 799 501 835 433 835 c 0
 352 835 281 779 261 722 c 1
 250 687 210 662 170 662 c 0
 118 662 75 705 75 757 c 0
 75 767 77 777 80 786 c 1
 123 913 259 1024 435 1024 c 0
 570 1024 667 967 747 924 c 1
 820 884 892 849 957 849 c 0
 1037 849 1108 907 1124 967 c 1
 1134 1004 1173 1032 1216 1032 c 0
EndSplineSet
EndChar

StartChar: anuswara
Encoding: 90 3330 41
Width: 822
GlyphClass: 2
Flags: HW
LayerCount: 2
Fore
SplineSet
598 310 m 0
 611 392 568 449 512 484 c 1
 444 526 361 503 313 458 c 1
 310 451 306 444 301 438 c 1
 264 393 256 344 267 299 c 1
 287 214 374 150 468 173 c 1
 534 189 588 242 598 310 c 0
375 691 m 1
 557 725 704 603 757 485 c 1
 824 339 780 188 694 93 c 0
 608 -1 453 -61 294 5 c 1
 176 53 55 193 76 359 c 1
 98 539 200 652 375 691 c 1
EndSplineSet
EndChar

StartChar: ml_a
Encoding: 92 3333 43
Width: 2599
GlyphClass: 2
Flags: HW
LayerCount: 2
Fore
SplineSet
2325.43367827 362.567493113 m 0
 2325.43367827 487.91184573 2242.58889934 570.831955923 2113.50517404 570.831955923 c 0
 1997.90780809 570.831955923 1906.39322672 468.628099174 1906.39322672 356.782369146 c 0
 1906.39322672 258.435261708 2017.17403575 153.338842975 2123.13828786 153.338842975 c 0
 2242.58889934 153.338842975 2325.43367827 238.187327824 2325.43367827 362.567493113 c 0
866.980244591 787.774104683 m 1
 760.052681091 728.958677686 651.198494826 595.900826446 651.198494826 442.595041322 c 0
 651.198494826 281.575757576 740.786453434 160.08815427 892.989651929 160.08815427 c 0
 973.90780809 160.08815427 1033.63311383 226.61707989 1033.63311383 279.64738292 c 0
 1033.63311383 332.67768595 1003.77046096 365.460055096 963.311382879 378.958677686 c 1
 931.522107244 389.564738292 884.319849483 369.316804408 840.00752587 412.70523416 c 1
 822.667920978 429.096418733 813.03480715 450.308539945 813.03480715 471.520661157 c 0
 813.03480715 526.479338843 849.640639699 567.939393939 899.732831609 569.867768595 c 1
 942.118532455 572.760330579 971.981185325 600.721763085 971.981185325 645.074380165 c 0
 971.981185325 698.104683196 916.109125118 755.955922865 866.980244591 787.774104683 c 1
894.916274694 -24.0716253444 m 0
 650.235183443 -24.0716253444 471.059266228 180.336088154 471.059266228 430.060606061 c 0
 471.059266228 599.757575758 546.197554092 742.457300275 640.602069614 838.876033058 c 1
 426.746942615 827.305785124 254.31420508 669.179063361 254.31420508 460.914600551 c 0
 254.31420508 315.32231405 355.461900282 198.655647383 467.206020696 151.41046832 c 1
 498.995296331 137.91184573 522.11476952 101.272727273 522.11476952 61.741046832 c 0
 522.11476952 19.3168044077 482.619002822 -26 437.343367827 -26 c 0
 420.967074318 -26 405.554092192 -24.0716253444 393.031044214 -18.2865013774 c 1
 225.414863594 54.0275482094 72.2483537159 228.545454545 72.2483537159 452.236914601 c 0
 72.2483537159 770.418732782 327.525870179 1024 668.538099718 1024 c 0
 737.896519285 1024 808.218250235 1010.50137741 872.760112888 985.432506887 c 1
 936.338664158 1008.57300275 998.953904045 1018.21487603 1063.4957667 1018.21487603 c 0
 1259.04797742 1018.21487603 1399.69143932 937.223140496 1486.38946378 812.842975207 c 1
 1569.23424271 936.258953168 1706.98777046 1018.21487603 1896.76011289 1018.21487603 c 0
 2231.99247413 1018.21487603 2522.91251176 780.060606061 2522.91251176 434.8815427 c 0
 2522.91251176 193.834710744 2363.0028222 -24.0716253444 2100.98212606 -24.0716253444 c 0
 1884.23706491 -24.0716253444 1724.32737535 149.482093664 1724.32737535 356.782369146 c 0
 1724.32737535 569.867768595 1890.01693321 754.991735537 2107.72530574 754.991735537 c 0
 2129.88146754 754.991735537 2152.03762935 754.027548209 2173.23047977 751.134986226 c 1
 2099.05550329 801.272727273 2001.76105362 835.019283747 1901.5766698 835.019283747 c 0
 1660.74882408 835.019283747 1580.7939793 686.534435262 1580.7939793 428.132231405 c 0
 1580.7939793 62.7052341598 l 0
 1580.7939793 13.5316804408 1539.37158984 -26 1489.27939793 -26 c 0
 1438.22389464 -26 1398.72812794 17.3884297521 1397.76481656 65.5977961433 c 1
 1396.80150517 429.096418733 l 1
 1396.80150517 678.820936639 1304.32361242 828.269972452 1079.87206021 834.055096419 c 1
 1127.07431797 775.239669421 1156.93697084 707.746556474 1156.93697084 639.289256198 c 0
 1156.93697084 592.044077135 1141.52398871 543.834710744 1112.62464722 502.374655647 c 1
 1174.27657573 452.236914601 1217.62558796 377.03030303 1217.62558796 285.432506887 c 0
 1217.62558796 108.986225895 1067.34901223 -24.0716253444 894.916274694 -24.0716253444 c 0
EndSplineSet
EndChar

StartChar: ml_aa
Encoding: 93 3334 44
Width: 2919
GlyphClass: 2
Flags: HW
LayerCount: 2
Fore
SplineSet
2178 157 m 0
 2323 157 2428 294 2428 446 c 0
 2428 479 2423 515 2414 547 c 1
 2365 566 2327 574 2299 574 c 0
 2130 574 2027 510 1990 413 c 1
 1981 392 1978 374 1978 361 c 0
 1978 269 2021 213 2088 180 c 1
 2119 165 2148 157 2178 157 c 0
1074 284 m 0
 1074 346 1029 390 962 390 c 0
 954 390 941 389 926 389 c 0
 880 389 843 440 843 482 c 0
 843 523 874 572 917 577 c 0
 959 582 964 580 989 603 c 1
 1002 616 1009 632 1009 654 c 0
 1009 713 949 776 894 811 c 1
 786 752 675 616 675 462 c 0
 675 331 734 236 815 193 c 1
 850 174 886 165 924 165 c 0
 963 165 989 173 1007 185 c 1
 1055 217 1074 250 1074 284 c 0
1542 835 m 1
 1627 960 1774 1051 1973 1051 c 0
 2039 1051 2112 1036 2198 1010 c 1
 2364 960 2502 821 2567 679 c 1
 2724 583 2844 396 2844 178 c 0
 2844 -16 2757 -159 2647 -257 c 1
 2536 -353 2408 -403 2264 -403 c 0
 2089 -403 1958 -333 1861 -241 c 1
 1841 -220 1831 -194 1831 -164 c 0
 1831 -105 1873 -57 1926 -57 c 0
 1951 -57 1975 -69 1993 -88 c 0
 2069 -170 2156 -212 2257 -212 c 0
 2359 -212 2446 -175 2521 -100 c 1
 2573 -52 2608 -2 2626 51 c 1
 2646 104 2654 144 2654 173 c 0
 2654 243 2639 305 2613 359 c 1
 2589 203 2489 72 2361 10 c 1
 2305 -19 2243 -33 2181 -33 c 0
 2029 -33 1921 44 1852 142 c 1
 1811 200 1788 263 1788 327 c 0
 1788 485 1848 588 1956 664 c 1
 2047 730 2150 763 2263 763 c 0
 2265 763 2269 763 2269 763 c 1
 2195 817 2091 861 1990 861 c 0
 1760 861 1640 739 1640 515 c 0
 1640 64 l 0
 1640 13 1598 -27 1546 -27 c 0
 1494 -27 1451 16 1450 67 c 1
 1449 446 l 1
 1449 589 1445 642 1393 722 c 1
 1346 794 1275 837 1176 855 c 1
 1154 859 1131 861 1115 861 c 1
 1170 796 1198 727 1198 653 c 0
 1198 601 1182 552 1155 511 c 1
 1227 453 1263 377 1263 285 c 0
 1263 171 1200 88 1134 41 c 0
 1073 -3 1005 -25 933 -25 c 0
 784 -25 665 38 578 161 c 1
 518 246 487 338 487 442 c 0
 487 621 562 763 657 861 c 1
 606 857 559 845 513 825 c 1
 404 775 331 703 291 604 c 1
 274 560 264 508 264 449 c 0
 264 317 366 198 466 149 c 0
 501 131 519 98 519 58 c 0
 519 13 475 -31 430 -31 c 0
 413 -31 397 -28 384 -22 c 1
 382 -22 l 1
 379 -20 l 0
 220 60 75 236 75 458 c 0
 75 616 129 750 239 861 c 1
 346 971 501 1053 702 1053 c 0
 767 1053 834 1041 898 1017 c 1
 965 1040 1021 1051 1075 1051 c 0
 1285 1051 1443 978 1542 835 c 1
EndSplineSet
EndChar

StartChar: ml_i
Encoding: 94 3335 45
Width: 1974
GlyphClass: 2
Flags: HW
LayerCount: 2
Fore
SplineSet
441 337 m 0
 524 337 591 400 591 478 c 0
 591 556 523 621 441 621 c 0
 359 621 292 556 292 478 c 0
 292 400 359 337 441 337 c 0
1090 184 m 1
 1233 185 l 0
 1403 186 1483 197 1575 262 c 0
 1663 324 1705 405 1705 507 c 0
 1705 612 1673 696 1610 764 c 0
 1547 832 1471 865 1382 865 c 0
 1255 865 1155 788 1133 679 c 0
 1126 647 1122 592 1122 520 c 0
 1122 254 l 1
 1121 224 1109 200 1090 184 c 1
964 184 m 1
 945 199 933 223 932 253 c 1
 931 519 l 1
 930 651 932 684 884 752 c 1
 838 817 751 864 629 864 c 0
 554 864 478 836 420 797 c 1
 432 798 442 798 454 798 c 0
 557 798 655 731 702 673 c 1
 752 614 777 544 777 469 c 0
 777 370 738 286 662 223 c 1
 643 206 621 192 601 182 c 1
 964 184 l 1
338 165 m 1
 311 174 285 187 261 203 c 1
 147 278 89 394 89 540 c 0
 89 637 122 732 184 822 c 1
 262 938 375 1011 517 1040 c 0
 561 1049 602 1053 643 1053 c 0
 811 1053 945 974 1022 877 c 1
 1066 939 1116 982 1177 1009 c 1
 1245 1039 1311 1055 1376 1055 c 0
 1524 1055 1648 1000 1747 894 c 0
 1845 788 1895 665 1895 522 c 0
 1895 340 1807 195 1691 111 c 0
 1562 17 1441 -4 1234 -5 c 0
 570 -8 l 1
 503 -8 l 0
 398 -8 317 -28 287 -58 c 1
 269 -76 264 -92 264 -98 c 0
 264 -133 284 -151 321 -170 c 1
 339 -179 390 -187 464 -187 c 0
 1803 -188 l 0
 1864 -188 1896 -238 1896 -283 c 0
 1896 -328 1864 -378 1803 -378 c 0
 464 -377 l 0
 293 -377 196 -348 122 -253 c 1
 89 -209 75 -153 75 -90 c 0
 75 -24 101 35 151 82 c 1
 202 126 266 151 338 165 c 1
EndSplineSet
EndChar

StartChar: ml_u
Encoding: 96 3337 47
Width: 1329
GlyphClass: 2
Flags: HW
LayerCount: 2
Fore
SplineSet
416 223 m 0
 210 223 81 398 81 581 c 0
 81 741 174 868 271 940 c 0
 370 1014 481 1052 603 1052 c 0
 629 1052 654 1050 679 1047 c 1
 972 1011 1227 791 1227 475 c 0
 1227 407 1214 344 1187 282 c 1
 1106 92 928 -2 670 -2 c 0
 654 -2 l 1
 517 0 l 1
 494 0 l 0
 411 0 358 -7 337 -16 c 1
 280 -42 265 -68 265 -83 c 0
 265 -114 286 -141 322 -159 c 1
 342 -169 403 -178 498 -178 c 0
 1158 -179 l 0
 1210 -179 1254 -220 1254 -274 c 0
 1254 -328 1210 -369 1158 -369 c 0
 498 -368 l 1
 256 -367 106 -291 78 -127 c 1
 76 -113 75 -100 75 -86 c 0
 75 -37 90 9 119 52 c 1
 189 146 294 191 427 191 c 0
 457 191 487 190 520 190 c 1
 657 188 l 1
 668 188 l 0
 854 188 958 236 1013 358 c 1
 1030 398 1039 439 1039 479 c 0
 1039 695 834 859 609 859 c 0
 560 859 510 850 464 832 c 1
 610 800 710 671 710 527 c 0
 710 373 577 223 416 223 c 0
394 411 m 0
 471 411 535 473 535 547 c 0
 535 617 471 682 406 682 c 0
 309 682 253 624 253 547 c 0
 253 473 317 411 394 411 c 0
EndSplineSet
EndChar

StartChar: ml_r
Encoding: 98 3339 49
Width: 1680
GlyphClass: 2
Flags: HW
LayerCount: 2
Fore
SplineSet
790 91 m 2
 510 91 306 52 306 -119 c 0
 306 -281 500 -343 730 -343 c 0
 1019 -343 l 0
 1215 -343 1380 -271 1380 -121 c 0
 1380 42 1185 91 928 91 c 0
 790 91 l 2
1171 720 m 0
 1171 656 1223 605 1290 605 c 0
 1355 605 1402 654 1409 710 c 1
 1394 781 1343 832 1283 832 c 0
 1217 832 1171 779 1171 720 c 0
405 617 m 0
 470 617 521 667 521 730 c 0
 521 787 469 833 409 833 c 0
 346 833 285 785 285 725 c 0
 285 666 342 617 405 617 c 0
1332 217 m 1
 1462 155 1571 35 1571 -128 c 0
 1571 -395 1299 -527 1052 -530 c 1
 708 -533 l 1
 697 -533 l 0
 401 -533 116 -408 116 -119 c 0
 116 33 222 152 340 213 c 1
 199 301 75 452 75 659 c 0
 75 839 209 1024 405 1024 c 0
 576 1024 712 892 712 728 c 0
 712 557 574 425 404 425 c 0
 391 425 377 426 365 428 c 1
 461 333 621 283 820 283 c 0
 1029 283 1186 330 1289 414 c 1
 1286 414 1287 414 1285 414 c 0
 1116 414 979 563 979 725 c 0
 979 881 1109 1023 1279 1023 c 0
 1488 1023 1605 839 1605 656 c 0
 1605 447 1474 302 1332 217 c 1
EndSplineSet
EndChar

StartChar: ml_l
Encoding: 99 3340 50
Width: 2087
GlyphClass: 2
Flags: HW
LayerCount: 2
Fore
SplineSet
1783 322 m 0
 1783 414 1705 485 1604 485 c 0
 1502 485 1422 412 1422 328 c 0
 1422 235 1497 171 1591 171 c 0
 1691 171 1783 230 1783 322 c 0
498 173 m 0
 591 173 665 235 665 325 c 0
 665 411 580 487 484 487 c 0
 386 487 305 414 305 326 c 0
 305 232 397 173 498 173 c 0
1036 814 m 1
 1120 934 1258 1015 1437 1015 c 0
 1777 1015 2012 747 2012 443 c 0
 2012 208 1857 -21 1597 -21 c 0
 1390 -21 1232 129 1232 326 c 0
 1232 521 1383 647 1557 675 c 0
 1576 678 1594 680 1614 680 c 0
 1667 680 1718 666 1765 641 c 1
 1698 748 1577 824 1440 824 c 0
 1286 824 1173 737 1145 609 c 1
 1136 569 1131 514 1130 446 c 1
 1127 78 l 1
 1126 24 1086 -15 1025 -15 c 0
 976 -15 938 34 937 79 c 1
 939 448 l 1
 939 584 930 647 877 721 c 1
 825 785 739 823 643 823 c 0
 486 823 378 744 318 641 c 1
 368 668 420 681 474 681 c 0
 687 681 855 533 855 326 c 0
 855 133 696 -18 499 -18 c 0
 238 -18 75 202 75 443 c 0
 75 746 307 1014 642 1014 c 0
 818 1014 955 930 1036 814 c 1
EndSplineSet
EndChar

StartChar: ml_e
Encoding: 100 3342 51
Width: 2252
GlyphClass: 2
Flags: HW
LayerCount: 2
Fore
SplineSet
1171 -2 m 1
 1183 -159 1231 -267 1342 -267 c 0
 1455 -267 1491 -163 1497 -6 c 1
 1171 -2 l 1
460 546 m 0
 349 546 260 456 260 357 c 0
 260 272 322 205 392 181 c 0
 427 169 456 131 456 87 c 0
 456 43 415 -3 369 -3 c 0
 355 -3 339 -2 327 3 c 1
 189 51 71 185 71 357 c 0
 71 569 243 737 460 737 c 0
 677 737 846 560 846 360 c 0
 846 304 831 245 803 191 c 1
 979 190 l 1
 980 304 l 1
 980 700 1127 1057 1541 1057 c 0
 1927 1057 2177 706 2177 306 c 0
 2177 -3 2041 -260 1874 -426 c 1
 1855 -445 1832 -454 1806 -454 c 0
 1754 -454 1711 -411 1711 -359 c 0
 1711 -333 1720 -310 1739 -291 c 0
 1872 -158 1989 59 1989 304 c 0
 1989 604 1828 867 1550 867 c 0
 1258 867 1169 622 1169 303 c 0
 1169 187 l 1
 1499 184 l 1
 1502 644 l 1
 1502 695 1545 739 1597 739 c 0
 1649 739 1692 701 1692 643 c 1
 1687 4 l 0
 1685 -249 1590 -457 1348 -457 c 0
 1102 -457 994 -239 981 0 c 1
 574 4 l 1
 526 4 479 45 479 94 c 0
 479 135 497 169 533 185 c 1
 597 211 656 275 656 356 c 0
 656 463 569 546 460 546 c 0
EndSplineSet
EndChar

StartChar: ml_ee
Encoding: 101 3343 52
Width: 2257
GlyphClass: 2
Flags: HW
LayerCount: 2
Fore
SplineSet
1208 -5 m 1
 1221 -127 1278 -207 1376 -207 c 0
 1464 -207 1506 -137 1506 -14 c 0
 1506 -6 l 1
 1208 -5 l 1
452 92 m 0
 452 41 411 -4 357 -4 c 0
 344 -4 332 0 321 4 c 1
 191 52 75 183 75 348 c 0
 75 558 247 721 468 721 c 0
 683 721 855 556 855 348 c 0
 855 292 839 237 809 186 c 1
 1015 185 l 1
 1015 352 l 0
 1015 731 1189 1011 1595 1011 c 0
 1885 1011 2130 831 2130 562 c 0
 2130 475 2083 383 2027 323 c 1
 2120 251 2183 132 2183 -8 c 0
 2183 -218 2001 -401 1791 -401 c 0
 1781 -401 1773 -400 1767 -400 c 1
 1707 -399 1678 -349 1678 -305 c 0
 1678 -260 1708 -210 1770 -210 c 0
 1900 -210 1993 -135 1993 0 c 0
 1993 109 1912 196 1818 209 c 1
 1766 216 1737 261 1737 304 c 0
 1737 342 1758 379 1800 395 c 1
 1876 419 1939 489 1939 573 c 0
 1939 728 1778 820 1601 820 c 0
 1313 820 1205 643 1205 349 c 0
 1205 185 l 1
 1503 184 l 1
 1507 626 l 1
 1507 682 1557 717 1604 717 c 0
 1661 717 1698 670 1698 616 c 1
 1697 534 1695 350 1695 206 c 0
 1695 124 1697 72 1697 0 c 0
 1697 -236 1599 -395 1374 -395 c 0
 1154 -395 1035 -214 1018 -5 c 1
 570 -3 l 1
 510 -3 477 47 477 93 c 0
 477 127 495 164 536 180 c 1
 599 202 663 263 663 345 c 0
 663 447 577 528 466 528 c 0
 352 528 264 440 264 347 c 0
 264 267 323 204 391 180 c 1
 422 168 452 135 452 92 c 0
EndSplineSet
EndChar

StartChar: ml_n
Encoding: 103 3346 54
Width: 1365
GlyphClass: 2
Flags: HW
LayerCount: 2
Fore
SplineSet
615 305.486328125 m 4
 615 384.834960938 541 445.513671875 459 445.513671875 c 4
 367 445.513671875 303 371.765625 303 295.217773438 c 4
 303 219.602539062 399 159.859375 471 159.859375 c 4
 562 159.859375 615 229.872070312 615 305.486328125 c 4
808 298.018554688 m 4
 808 135.587890625 672 -21.2431640625 466 -21.2431640625 c 4
 218 -21.2431640625 75 216.802734375 75 440.845703125 c 4
 75 826.385742188 399 1023.35839844 742 1023.35839844 c 4
 985 1023.35839844 1205 905.735351562 1205 680.758789062 c 4
 1205 620.080078125 1175 549.1328125 1135 509.92578125 c 5
 1219 466.05078125 1291 370.83203125 1291 265.344726562 c 4
 1291 108.515625 1154 -23.1103515625 976 -23.1103515625 c 4
 912 -23.1103515625 792 -6.306640625 792 84.244140625 c 4
 792 134.654296875 835 172.927734375 887 172.927734375 c 4
 926 172.927734375 958 155.19140625 975 155.19140625 c 4
 1042 155.19140625 1101 213.068359375 1101 269.079101562 c 4
 1101 342.827148438 1039 382.967773438 970 382.967773438 c 4
 917 382.967773438 847 391.370117188 847 469.78515625 c 4
 847 510.858398438 881 540.731445312 920 547.265625 c 4
 982 557.534179688 1015 617.279296875 1015 678.891601562 c 4
 1015 781.578125 895 844.123046875 746 844.123046875 c 4
 552 844.123046875 335 745.170898438 280 552.8671875 c 5
 331 602.34375 395 624.748046875 462 624.748046875 c 4
 638 624.748046875 808 493.123046875 808 298.018554688 c 4
EndSplineSet
EndChar

StartChar: k1
Encoding: 106 3349 57
Width: 1896
GlyphClass: 2
Flags: HW
LayerCount: 2
Fore
SplineSet
265 300 m 0
 265 231 330 172 405 172 c 0
 492 172 561 225 561 308 c 0
 561 315 l 1
 546 368 538 417 537 473 c 1
 374 462 265 404 265 300 c 0
1252 478 m 1
 727 476 l 1
 731 312 823 164 988 164 c 0
 1154 164 1249 312 1252 478 c 1
759 668 m 1
 1219 670 l 1
 1178 762 1104 834 989 834 c 0
 873 834 798 756 759 668 c 1
1467 -23 m 0
 1409 -23 1348 2 1348 74 c 0
 1348 151 1415 167 1469 167 c 0
 1555 167 1632 234 1632 314 c 0
 1632 411 1556 462 1442 475 c 1
 1438 211 1274 -24 986 -24 c 0
 856 -24 747 43 681 114 c 1
 623 38 531 -19 411 -19 c 0
 235 -19 75 119 75 287 c 0
 75 548 298 656 558 667 c 1
 608 851 750 1023 989 1023 c 0
 1229 1023 1370 850 1420 668 c 1
 1635 657 1821 534 1821 314 c 0
 1821 133 1662 -23 1467 -23 c 0
EndSplineSet
EndChar

StartChar: k2
Encoding: 107 3350 58
Width: 1727
GlyphClass: 2
Flags: HW
LayerCount: 2
Fore
SplineSet
488 170 m 0
 559 170 627 231 627 299 c 0
 627 373 560 433 479 433 c 0
 395 433 325 374 325 300 c 0
 325 284 330 264 337 248 c 1
 378 198 434 170 488 170 c 0
1232 482 m 0
 1232 371 1190 267 1136 189 c 1
 1458 189 l 1
 1461 935 l 1
 1461 949 l 0
 1461 995 1517 1026 1556 1026 c 0
 1595 1026 1652 994 1652 948 c 0
 1652 941 1652 936 1651 930 c 1
 1648 94 l 1
 1648 42 1605 -1 1553 -1 c 0
 904 -1 l 0
 862 -1 806 32 806 90 c 0
 806 127 835 155 876 178 c 1
 924 205 987 281 1012 339 c 0
 1032 387 1041 432 1041 476 c 0
 1041 672 871 834 668 834 c 0
 526 834 418 784 339 684 c 1
 312 647 291 605 280 562 c 1
 332 599 397 625 475 625 c 0
 664 625 817 483 817 302 c 0
 817 126 668 -18 484 -18 c 0
 285 -18 159 133 107 276 c 1
 85 335 75 396 75 454 c 0
 75 580 120 696 186 785 c 1
 280 915 446 1025 658 1025 c 0
 939 1025 1152 839 1213 620 c 1
 1225 574 1232 528 1232 482 c 0
EndSplineSet
EndChar

StartChar: k3
Encoding: 108 3351 59
Width: 1819
GlyphClass: 2
Flags: HW
LayerCount: 2
Fore
SplineSet
1266 -22 m 0
 1223 -22 1181 24 1181 66 c 0
 1181 122 1217 158 1274 171 c 1
 1425 200 1555 349 1555 510 c 0
 1555 697 1421 833 1226 833 c 0
 1056 833 991 721 991 539 c 0
 991 452 l 0
 991 185 865 -18 577 -18 c 0
 286 -18 75 221 75 478 c 0
 75 746 241 937 445 1017 c 1
 460 1024 474 1025 490 1025 c 0
 535 1025 577 980 577 935 c 0
 577 892 551 855 518 842 c 1
 379 789 264 662 264 485 c 0
 264 325 401 170 577 170 c 0
 747 170 801 281 801 463 c 0
 801 550 l 0
 801 826 946 1024 1230 1024 c 0
 1531 1024 1745 795 1745 513 c 0
 1745 240 1537 31 1298 -20 c 0
 1298 -20 l 1
 1297 -20 l 0
 1290 -21 1281 -22 1266 -22 c 0
EndSplineSet
EndChar

StartChar: k4
Encoding: 109 3352 60
Width: 2345
GlyphClass: 2
Flags: HW
LayerCount: 2
Fore
SplineSet
1732 544 m 2
 1732 742 1652 833 1442 833 c 0
 1250 833 1171 723 1171 521 c 1
 1170 473 l 1
 1730 477 l 1
 1732 527 l 1
 1732 544 l 2
1439 1024 m 0
 1755 1024 1921 849 1921 539 c 0
 1921 519 l 1
 1918 379 l 1
 1917 329 1876 286 1824 286 c 1
 1170 281 l 1
 1170 190 l 1
 2077 190 l 1
 2078 927 l 0
 2078 928 l 0
 2078 978 2121 1018 2173 1018 c 0
 2212 1018 2268 986 2268 940 c 0
 2268 927 l 0
 2267 90 l 0
 2267 40 2224 0 2172 0 c 0
 1075 0 l 0
 1023 0 980 40 980 90 c 0
 980 280 l 1
 560 277 l 1
 511 277 465 316 465 368 c 0
 465 421 500 453 539 467 c 1
 615 491 653 563 653 638 c 0
 653 733 591 831 478 831 c 0
 356 831 265 744 265 634 c 0
 265 555 320 496 384 470 c 1
 420 454 441 417 441 380 c 0
 441 335 403 285 353 285 c 0
 336 285 319 287 306 294 c 1
 180 347 75 473 75 634 c 0
 75 845 242 1020 469 1020 c 0
 679 1020 855 838 855 635 c 0
 855 578 839 522 809 470 c 1
 980 472 l 1
 981 522 l 1
 981 820 1139 1024 1439 1024 c 0
EndSplineSet
EndChar

StartChar: ng
Encoding: 110 3353 61
Width: 2048
GlyphClass: 2
Flags: HW
LayerCount: 2
Fore
SplineSet
389 481 m 0
 339 455 307 408 307 335 c 0
 307 254 396 171 512 171 c 0
 597 171 675 274 675 342 c 0
 675 424 577 512 499 512 c 0
 466 512 431 502 389 481 c 0
1782 270 m 0
 1782 327 1707 354 1596 355 c 1
 1536 355 l 0
 1489 355 1441 394 1441 445 c 0
 1441 504 1482 547 1533 549 c 1
 1602 552 l 1
 1721 558 1772 586 1772 655 c 0
 1772 758 1652 825 1510 825 c 0
 1270 825 1170 687 1170 437 c 0
 1170 425 l 1
 1172 71 l 1
 1172 19 1128 -25 1076 -25 c 0
 1022 -25 981 19 980 70 c 1
 977 426 l 0
 975 666 897 824 663 824 c 0
 520 824 403 759 335 669 c 1
 382 692 429 702 480 702 c 0
 694 702 863 551 863 338 c 0
 863 136 701 -16 497 -16 c 0
 230 -16 75 215 75 448 c 0
 75 750 331 1016 650 1016 c 0
 841 1016 985 934 1073 808 c 1
 1163 938 1307 1017 1511 1017 c 0
 1745 1017 1963 880 1963 655 c 0
 1963 586 1916 503 1855 458 c 1
 1934 420 1973 340 1973 264 c 0
 1973 94 1828 -23 1655 -23 c 0
 1582 -23 1511 1 1453 41 c 1
 1427 58 1411 83 1411 114 c 0
 1411 165 1447 211 1503 211 c 0
 1526 211 1550 204 1571 190 c 1
 1587 179 1627 168 1663 168 c 0
 1731 168 1782 225 1782 270 c 0
EndSplineSet
EndChar

StartChar: ch1
Encoding: 111 3354 62
Width: 1523
GlyphClass: 2
Flags: HW
LayerCount: 2
Fore
SplineSet
548 316 m 0
 548 273 502 234 458 234 c 0
 350 234 335 363 335 426 c 0
 335 604 482 764 673 764 c 0
 888 764 1062 604 1062 398 c 0
 1062 325 1040 250 1000 189 c 1
 1258 190 l 1
 1258 935 l 1
 1258 935 l 0
 1260 983 1299 1025 1348 1025 c 0
 1403 1025 1448 989 1448 935 c 0
 1448 90 l 0
 1448 40 1405 0 1353 0 c 1
 121 -4 l 1
 106 -4 l 0
 60 -4 25 51 25 91 c 0
 25 143 68 186 120 186 c 0
 121 186 l 1
 680 188 l 1
 784 201 874 288 874 383 c 0
 874 491 792 574 686 574 c 0
 594 574 526 493 526 417 c 0
 526 384 548 359 548 316 c 0
EndSplineSet
EndChar

StartChar: ch2
Encoding: 112 3355 63
Width: 2478
GlyphClass: 2
Flags: HW
LayerCount: 2
Fore
SplineSet
1762 433 m 0
 1762 303 1859 188 1981 188 c 0
 2121 188 2214 320 2214 462 c 0
 2214 587 2158 681 2086 750 c 1
 2081 750 l 0
 1893 750 1762 615 1762 433 c 0
525 431 m 0
 525 403 548 371 548 329 c 0
 548 284 502 244 458 244 c 0
 350 244 335 377 335 440 c 0
 335 632 493 786 686 786 c 0
 911 786 1063 603 1063 407 c 0
 1063 323 1040 252 997 191 c 1
 1261 189 l 1
 1210 281 1188 375 1188 469 c 0
 1188 787 1454 1055 1784 1055 c 0
 2121 1055 2404 799 2404 464 c 0
 2404 227 2242 -3 1991 -3 c 0
 1978 -3 1966 -2 1955 -1 c 1
 1730 25 1571 202 1571 433 c 0
 1571 634 1682 785 1825 864 c 1
 1810 865 1798 866 1784 866 c 0
 1562 866 1377 687 1377 465 c 0
 1377 337 1444 224 1519 161 c 1
 1540 144 1551 119 1551 92 c 0
 1551 40 1509 -2 1456 -2 c 1
 121 4 l 1
 120 4 l 0
 68 4 25 47 25 99 c 0
 25 139 59 194 106 194 c 0
 121 194 l 1
 661 192 l 1
 782 192 872 261 872 411 c 0
 872 506 797 595 690 595 c 0
 595 595 525 528 525 431 c 0
EndSplineSet
EndChar

StartChar: ch3
Encoding: 113 3356 64
Width: 1529
GlyphClass: 2
Flags: HW
LayerCount: 2
Fore
SplineSet
279 181 m 0
 279 156 324 130 391 130 c 0
 498 130 561 156 681 223 c 1
 595 231 509 239 426 239 c 0
 332 239 279 217 279 181 c 0
313 415 m 1
 163 429 78 540 78 679 c 0
 78 882 259 1024 462 1024 c 0
 584 1024 697 967 770 888 c 1
 832 973 928 1030 1048 1030 c 0
 1256 1030 1449 874 1449 668 c 0
 1449 556 1407 461 1337 386 c 1
 1401 345 1454 276 1454 183 c 0
 1454 46 1343 -62 1205 -62 c 0
 1062 -62 963 53 957 170 c 1
 797 81 577 -63 389 -63 c 0
 242 -63 89 23 89 180 c 0
 89 318 190 393 313 415 c 1
421 422 m 1
 527 421 628 414 726 409 c 1
 705 426 690 451 690 479 c 0
 690 480 l 1
 691 591 l 1
 691 627 l 1
 684 714 623 795 534 823 c 1
 577 780 608 721 608 653 c 0
 608 529 526 447 421 422 c 1
838 404 m 1
 853 404 869 404 884 404 c 0
 1089 404 1258 484 1258 652 c 0
 1258 759 1166 840 1053 840 c 0
 953 840 884 761 883 645 c 1
 883 620 883 600 882 588 c 1
 880 477 l 1
 879 447 862 420 838 404 c 1
338 574 m 0
 383 574 421 610 421 652 c 0
 421 694 383 731 338 731 c 0
 293 731 255 694 255 652 c 0
 255 610 293 574 338 574 c 0
1200 119 m 0
 1246 119 1280 148 1280 180 c 0
 1280 225 1248 254 1216 254 c 0
 1170 254 1136 226 1136 194 c 0
 1136 148 1168 119 1200 119 c 0
EndSplineSet
EndChar

StartChar: ch4
Encoding: 114 3357 65
Width: 3094
GlyphClass: 2
Flags: HW
LayerCount: 2
Fore
SplineSet
891 789 m 1
 773 717 675 580 675 394 c 0
 675 258 762 136 881 136 c 0
 1004 136 1087 271 1087 412 c 0
 1087 578 995 719 891 789 c 1
486 400 m 0
 486 598 570 755 677 861 c 1
 669 861 662 862 654 862 c 0
 430 862 265 694 265 476 c 0
 265 314 361 189 473 132 c 1
 501 118 525 84 525 47 c 0
 525 8 496 -49 442 -49 c 0
 421 -49 401 -46 385 -37 c 1
 217 51 75 236 75 476 c 0
 75 803 329 1054 655 1054 c 0
 737 1054 819 1036 895 1004 c 1
 970 1033 1045 1046 1116 1046 c 0
 1448 1046 1584 814 1602 491 c 1
 1606 413 l 1
 1615 254 1632 138 1761 138 c 0
 1883 138 1924 288 1924 472 c 0
 1924 488 1924 503 1923 519 c 1
 1915 948 l 1
 1915 1001 1957 1045 2010 1045 c 0
 2061 1045 2104 1005 2105 953 c 1
 2113 526 l 1
 2120 292 2235 141 2467 141 c 0
 2675 141 2830 282 2830 490 c 0
 2830 695 2671 850 2467 850 c 0
 2441 850 2421 845 2386 845 c 0
 2339 845 2303 896 2303 938 c 0
 2303 1037 2406 1043 2470 1043 c 0
 2786 1043 3019 788 3019 483 c 0
 3019 170 2775 -52 2467 -52 c 0
 2291 -52 2143 25 2051 132 c 1
 1991 14 1897 -52 1756 -52 c 0
 1498 -52 1430 167 1416 402 c 1
 1412 480 l 1
 1398 716 1347 852 1118 852 c 0
 1115 852 1109 852 1107 852 c 1
 1217 735 1278 590 1278 412 c 0
 1278 175 1135 -56 881 -56 c 0
 632 -56 486 165 486 400 c 0
EndSplineSet
EndChar

StartChar: nj
Encoding: 115 3358 66
Width: 2517
GlyphClass: 2
Flags: HW
LayerCount: 2
Fore
SplineSet
487 467 m 0
 390 467 318 397 318 310 c 0
 318 228 390 169 479 169 c 0
 576 169 648 232 648 313 c 0
 648 393 571 467 487 467 c 0
1658 765 m 1
 1545 687 1473 564 1473 394 c 0
 1473 273 1552 155 1664 155 c 0
 1788 155 1857 274 1857 399 c 0
 1857 568 1767 693 1658 765 c 1
482 -21 m 0
 225 -21 74 216 74 448 c 0
 74 763 304 1022 637 1022 c 0
 812 1022 955 933 1038 825 c 1
 1119 944 1242 1025 1420 1025 c 0
 1497 1025 1578 1007 1658 970 c 1
 1742 1008 1817 1027 1884 1027 c 0
 2198 1027 2442 771 2442 482 c 0
 2442 278 2356 112 2191 -11 c 1
 2174 -25 2154 -31 2135 -31 c 0
 2083 -31 2038 11 2038 62 c 0
 2038 90 2053 114 2077 132 c 1
 2165 196 2251 319 2251 451 c 0
 2251 652 2109 836 1891 836 c 0
 1881 836 1868 835 1859 834 c 1
 1973 722 2046 579 2046 391 c 0
 2046 175 1908 -33 1666 -33 c 0
 1419 -33 1284 181 1284 401 c 0
 1284 582 1349 725 1458 835 c 1
 1444 837 1433 837 1420 837 c 0
 1268 837 1160 733 1152 648 c 1
 1143 559 1139 503 1139 483 c 1
 1140 61 l 1
 1140 15 1099 -34 1043 -34 c 0
 988 -34 951 19 950 61 c 1
 950 63 l 1
 948 479 l 1
 947 574 937 639 921 671 c 1
 872 762 777 833 644 833 c 0
 448 833 332 720 279 563 c 1
 338 614 417 642 513 642 c 0
 704 642 838 480 838 314 c 0
 838 128 677 -21 482 -21 c 0
EndSplineSet
EndChar

StartChar: t1
Encoding: 116 3359 67
Width: 1134
GlyphClass: 2
Flags: HW
LayerCount: 2
Fore
SplineSet
1060 284 m 0
 1060 41 815 -56 589 -56 c 0
 388 -56 224 9 102 140 c 1
 84 157 75 181 75 206 c 0
 75 260 119 299 171 299 c 0
 198 299 222 288 240 269 c 1
 325 181 439 136 590 136 c 0
 744 136 871 183 871 286 c 0
 871 391 752 419 574 419 c 1
 296 420 88 502 88 738 c 0
 88 941 309 1062 549 1062 c 0
 741 1062 892 995 996 858 c 1
 1009 840 1016 820 1016 797 c 0
 1016 744 969 706 918 706 c 0
 890 706 864 718 845 742 c 1
 779 826 682 870 543 870 c 0
 401 870 278 813 278 736 c 0
 278 637 405 614 561 612 c 4
 838 608 1060 532 1060 284 c 0
EndSplineSet
EndChar

StartChar: t2
Encoding: 117 3360 68
Width: 1238
GlyphClass: 2
Flags: HW
LayerCount: 2
Fore
SplineSet
618 174 m 0
 824 174 973 325 973 502 c 0
 973 677 824 831 621 831 c 0
 414 831 265 683 265 504 c 0
 265 317 418 174 618 174 c 0
75 499 m 0
 75 799 307 1021 622 1021 c 0
 928 1021 1163 796 1163 503 c 0
 1163 219 918 -16 620 -16 c 0
 313 -16 75 206 75 499 c 0
EndSplineSet
EndChar

StartChar: t4
Encoding: 119 3362 70
Width: 2554
GlyphClass: 2
Flags: HW
LayerCount: 2
Fore
SplineSet
1896 692 m 0
 1896 597 1976 523 2072 523 c 0
 2176 523 2256 603 2256 698 c 0
 2256 798 2156 860 2078 860 c 0
 1971 860 1896 797 1896 692 c 0
886 388 m 0
 886 444 891 504 891 552 c 0
 891 729 789 857 612 857 c 0
 414 857 265 690 265 498 c 0
 265 294 419 165 634 165 c 0
 681 165 716 110 716 70 c 0
 716 7 662 -25 608 -25 c 0
 306 -25 75 200 75 496 c 0
 75 795 320 1047 607 1047 c 0
 900 1047 1081 833 1081 550 c 0
 1081 504 1077 449 1077 412 c 0
 1077 260 1098 165 1202 165 c 0
 1358 165 1391 362 1392 570 c 0
 1394 963 l 1
 1395 1018 1437 1057 1495 1057 c 0
 1546 1057 1584 1009 1584 962 c 1
 1582 567 l 1
 1582 567 1581 527 1581 496 c 0
 1581 290 1705 159 1902 159 c 0
 2044 159 2157 257 2226 366 c 1
 2173 341 2118 332 2076 332 c 1
 1859 333 1707 503 1707 695 c 0
 1707 885 1872 1052 2075 1052 c 0
 2319 1052 2479 848 2479 613 c 0
 2479 275 2251 -31 1901 -31 c 0
 1721 -31 1584 47 1498 159 c 1
 1440 60 1339 -24 1187 -24 c 0
 967 -24 886 197 886 388 c 0
EndSplineSet
EndChar

StartChar: nh
Encoding: 120 3363 71
Width: 2764
GlyphClass: 2
Flags: HW
LayerCount: 2
Fore
SplineSet
487 168 m 0
 574 168 640 229 640 309 c 0
 640 385 569 451 490 451 c 0
 411 451 342 384 342 306 c 0
 342 229 410 168 487 168 c 0
2146 -23 m 0
 2084 -23 1988 -17 1988 77 c 0
 1988 117 2023 171 2071 171 c 0
 2101 171 2116 167 2138 167 c 0
 2329 167 2500 318 2500 509 c 0
 2500 721 2332 861 2137 861 c 0
 1899 861 1827 695 1827 436 c 1
 1829 69 l 1
 1829 13 1788 -26 1727 -26 c 0
 1678 -26 1640 23 1639 68 c 1
 1636 431 l 0
 1634 688 1573 863 1395 863 c 0
 1201 863 1155 671 1155 439 c 0
 1155 428 l 1
 1157 69 l 1
 1157 21 1117 -25 1067 -25 c 0
 1010 -25 968 14 967 68 c 1
 964 426 l 0
 962 687 884 869 643 869 c 0
 453 869 318 733 277 563 c 1
 334 609 409 640 490 640 c 0
 679 640 831 484 831 309 c 0
 831 125 680 -22 489 -22 c 0
 231 -22 75 204 75 460 c 0
 75 773 302 1058 641 1058 c 0
 825 1058 966 968 1049 847 c 1
 1117 955 1237 1054 1393 1054 c 0
 1558 1054 1673 956 1739 848 c 1
 1820 962 1957 1053 2132 1053 c 0
 2452 1053 2689 823 2689 513 c 0
 2689 214 2441 -23 2146 -23 c 0
EndSplineSet
EndChar

StartChar: th1
Encoding: 121 3364 72
Width: 1790
GlyphClass: 2
Flags: HW
LayerCount: 2
Fore
SplineSet
893 787 m 1
 788 716 698 593 698 422 c 0
 698 292 771 169 894 169 c 1
 1028 170 1090 260 1090 420 c 0
 1090 593 997 718 893 787 c 1
567 65 m 0
 567 21 526 -26 480 -26 c 0
 464 -26 450 -23 439 -20 c 0
 428 -17 l 1
 428 -16 l 1
 234 62 75 246 75 502 c 0
 75 818 335 1051 657 1051 c 0
 736 1051 818 1035 892 1001 c 1
 972 1035 1055 1052 1136 1052 c 0
 1457 1052 1716 816 1716 501 c 0
 1716 243 1557 62 1366 -17 c 1
 1352 -24 1338 -25 1322 -25 c 0
 1277 -25 1234 20 1234 65 c 0
 1234 107 1259 144 1292 158 c 0
 1415 207 1527 334 1527 491 c 0
 1527 700 1363 863 1141 863 c 0
 1127 863 1110 862 1096 860 c 1
 1209 748 1279 605 1279 417 c 0
 1279 195 1137 -18 895 -18 c 0
 653 -18 508 197 508 418 c 0
 508 604 582 752 691 860 c 1
 675 862 660 862 645 862 c 0
 430 862 264 703 264 494 c 0
 264 337 379 205 506 158 c 1
 540 145 567 108 567 65 c 0
EndSplineSet
EndChar

StartChar: th2
Encoding: 122 3365 73
Width: 1549
GlyphClass: 2
Flags: HW
LayerCount: 2
Fore
SplineSet
1284 491 m 1
 1284 496 l 0
 1284 699 1188 833 981 833 c 0
 746 833 683 661 683 416 c 0
 683 404 l 1
 685 191 l 1
 1281 191 l 1
 1284 491 l 1
75 929 m 2
 75 976 110 1026 172 1026 c 0
 218 1026 265 986 265 937 c 1
 270 192 l 1
 495 191 l 1
 491 475 l 1
 491 483 l 0
 491 784 665 1024 974 1024 c 0
 1263 1024 1468 828 1470 575 c 0
 1474 111 l 1
 1474 56 1441 1 1383 1 c 0
 202 2 l 1
 195 1 191 1 186 1 c 0
 138 1 82 32 81 89 c 1
 75 929 l 2
EndSplineSet
EndChar

StartChar: th3
Encoding: 123 3366 74
Width: 1206
GlyphClass: 2
Flags: HW
LayerCount: 2
Fore
SplineSet
1019 465 m 1
 1091 412 1131 334 1131 230 c 0
 1131 62 978 -62 811 -62 c 0
 750 -62 690 -43 633 -7 c 1
 605 10 589 37 589 67 c 0
 589 117 625 165 680 165 c 0
 702 165 724 159 744 146 c 1
 758 137 787 129 817 129 c 0
 877 129 940 175 940 236 c 0
 940 314 886 342 769 344 c 1
 736 345 l 1
 686 346 643 386 643 438 c 0
 643 484 678 529 723 534 c 1
 752 537 l 1
 847 545 906 587 906 667 c 0
 906 774 804 833 670 833 c 0
 437 833 266 627 266 389 c 0
 266 273 307 166 367 93 c 0
 367 93 l 1
 367 92 l 0
 380 75 387 56 387 33 c 0
 387 -20 341 -57 289 -57 c 0
 260 -57 234 -43 216 -19 c 1
 132 88 75 230 75 388 c 0
 75 732 325 1024 679 1024 c 0
 886 1024 1096 897 1096 670 c 0
 1096 596 1069 524 1019 465 c 1
EndSplineSet
EndChar

StartChar: th4
Encoding: 124 3367 75
Width: 1910
GlyphClass: 2
Flags: HW
LayerCount: 2
Fore
SplineSet
1275 832 m 2
 1256 832 l 0
 1209 832 1175 887 1175 927 c 0
 1175 979 1218 1022 1270 1022 c 0
 1276 1022 l 0
 1583 1022 1835 780 1835 489 c 0
 1835 202 1614 -19 1317 -19 c 0
 1156 -19 1023 63 946 166 c 1
 867 56 742 -22 572 -22 c 0
 284 -22 75 205 75 479 c 0
 75 775 311 994 591 1021 c 0
 591 1021 l 1
 600 1021 l 0
 624 1021 645 1018 669 994 c 0
 688 975 696 951 696 927 c 0
 696 877 657 836 610 832 c 1
 424 814 266 673 266 482 c 0
 266 306 391 168 578 168 c 0
 735 168 838 281 851 437 c 1
 850 464 849 494 849 536 c 1
 854 928 l 1
 855 974 892 1022 943 1022 c 0
 1001 1022 1043 981 1044 927 c 1
 1044 537 l 0
 1044 494 1043 459 1041 436 c 1
 1052 284 1152 167 1319 167 c 0
 1514 167 1642 320 1642 493 c 0
 1642 679 1483 832 1275 832 c 2
EndSplineSet
EndChar

StartChar: n1
Encoding: 125 3368 76
Width: 1910
GlyphClass: 2
Flags: HW
LayerCount: 2
Fore
SplineSet
1298 -21 m 0
 1255 -21 1215 29 1215 68 c 0
 1215 124 1253 164 1302 168 c 1
 1492 186 1645 339 1645 518 c 0
 1645 692 1524 832 1338 832 c 0
 1133 832 1065 706 1062 462 c 0
 1058 72 l 1
 1057 21 1014 -22 962 -22 c 0
 910 -22 868 22 868 71 c 1
 867 461 l 1
 867 699 813 831 591 831 c 0
 396 831 267 684 267 497 c 0
 267 305 454 158 654 158 c 0
 719 158 736 117 736 79 c 0
 736 19 693 -21 636 -21 c 0
 322 -21 75 217 75 524 c 0
 75 783 301 1021 589 1021 c 0
 754 1021 885 943 965 834 c 1
 1043 941 1172 1022 1333 1022 c 0
 1628 1022 1835 793 1835 521 c 0
 1835 254 1600 -21 1298 -21 c 0
EndSplineSet
EndChar

StartChar: p1
Encoding: 127 3370 77
Width: 1671
GlyphClass: 2
Flags: HW
LayerCount: 2
Fore
SplineSet
455 520 m 0
 348 520 264 435 264 342 c 0
 264 268 321 200 376 181 c 1
 419 165 454 139 454 97 c 0
 454 48 423 -8 367 -8 c 0
 353 -8 339 -7 326 -2 c 1
 193 45 75 174 75 341 c 0
 75 548 243 712 455 712 c 0
 671 712 840 541 840 347 c 0
 840 294 827 238 800 188 c 1
 1405 190 l 1
 1404 949 l 0
 1404 994 1460 1025 1499 1025 c 0
 1538 1025 1594 994 1594 949 c 1
 1596 93 l 1
 1596 41 1553 0 1501 0 c 0
 572 -1 l 0
 525 -1 478 39 478 87 c 0
 478 146 509 170 558 192 c 1
 600 209 648 276 648 346 c 0
 648 444 562 520 455 520 c 0
EndSplineSet
EndChar

StartChar: p2
Encoding: 128 3371 78
Width: 2111
GlyphClass: 2
Flags: HW
LayerCount: 2
Fore
SplineSet
1539 838 m 0
 1267 838 1229 716 1227 428 c 1
 1227 160 l 1
 1844 160 l 1
 1846 461 l 1
 1846 720 1762 838 1539 838 c 0
1519 1025 m 0
 1883 1025 2036 831 2036 460 c 1
 2033 66 l 1
 2033 20 1997 -31 1941 -31 c 1
 580 -27 l 1
 534 -27 485 11 485 65 c 0
 485 108 511 141 541 155 c 1
 601 182 654 244 654 324 c 0
 654 432 569 515 459 515 c 0
 352 515 264 424 264 324 c 0
 264 238 328 169 397 146 c 1
 430 135 463 103 463 58 c 0
 463 6 422 -39 368 -39 c 0
 355 -39 344 -35 336 -32 c 1
 199 14 75 148 75 323 c 0
 75 535 245 705 458 705 c 0
 675 705 846 527 846 327 c 0
 846 273 832 215 805 162 c 1
 1037 161 l 1
 1037 429 l 0
 1037 782 1150 1025 1519 1025 c 0
EndSplineSet
EndChar

StartChar: p3
Encoding: 129 3372 79
Width: 2487
GlyphClass: 2
Flags: HW
LayerCount: 2
Fore
SplineSet
473 482 m 0
 387 482 308 412 308 321 c 0
 308 230 394 171 485 171 c 0
 571 171 644 240 644 317 c 0
 644 414 563 482 473 482 c 0
1472 0 m 2
 1422 0 1378 41 1378 92 c 0
 1378 150 1418 184 1480 192 c 1
 1640 212 1777 367 1777 534 c 0
 1777 724 1640 864 1443 864 c 0
 1231 864 1166 677 1166 423 c 0
 1166 69 l 0
 1166 18 1122 -22 1071 -22 c 0
 1021 -22 976 20 976 71 c 1
 975 426 l 1
 975 686 883 863 647 863 c 0
 486 863 350 744 297 597 c 1
 348 645 417 671 489 671 c 0
 668 671 836 521 836 330 c 0
 836 140 688 -22 489 -22 c 0
 237 -22 75 197 75 424 c 0
 75 754 296 1053 637 1053 c 0
 828 1053 981 974 1070 845 c 1
 1147 965 1262 1052 1442 1052 c 0
 1728 1052 1967 841 1967 546 c 0
 1967 402 1917 283 1833 189 c 1
 2221 188 l 1
 2222 955 l 0
 2222 1006 2266 1050 2317 1050 c 0
 2376 1050 2412 995 2412 954 c 0
 2411 90 l 0
 2411 39 2368 -3 2316 -3 c 1
 1472 0 l 2
EndSplineSet
EndChar

StartChar: p4
Encoding: 130 3373 80
Width: 1335
GlyphClass: 2
Flags: HW
LayerCount: 2
Fore
SplineSet
1070 732 m 0
 1070 811 919 866 761 866 c 0
 488 866 265 697 265 444 c 0
 265 325 320 212 408 140 c 1
 430 123 444 98 444 70 c 0
 444 19 403 -24 350 -24 c 0
 326 -24 305 -16 287 -2 c 1
 155 107 75 249 75 450 c 0
 75 823 388 1054 767 1054 c 0
 994 1054 1260 971 1260 728 c 0
 1260 584 1134 496 1000 496 c 0
 902 496 813 540 728 540 c 0
 677 540 644 516 644 495 c 0
 644 458 698 439 772 439 c 0
 820 439 882 447 934 447 c 0
 1091 447 1255 383 1255 211 c 0
 1255 24 1069 -28 892 -28 c 0
 810 -28 704 -21 571 -7 c 1
 520 -2 484 37 484 94 c 0
 484 132 523 181 566 181 c 0
 648 181 764 165 875 165 c 0
 1003 165 1066 176 1066 208 c 0
 1066 239 1024 258 942 258 c 0
 887 258 802 248 766 248 c 0
 605 248 453 329 453 492 c 0
 453 646 594 732 734 732 c 0
 831 732 929 688 1001 688 c 0
 1050 688 1070 703 1070 732 c 0
EndSplineSet
EndChar

StartChar: m1
Encoding: 131 3374 81
Width: 1398
GlyphClass: 2
Flags: HW
LayerCount: 2
Fore
SplineSet
977 743 m 1
 983 714 986 688 986 660 c 0
 986 457 844 287 710 183 c 1
 1131 183 l 1
 1132 452 l 1
 1133 571 1066 675 977 743 c 1
638 832 m 0
 435 832 265 661 265 451 c 0
 265 184 l 1
 516 200 793 437 793 663 c 0
 793 770 732 832 638 832 c 0
170 -7 m 2
 118 -7 75 33 75 83 c 0
 75 452 l 0
 75 768 356 1023 677 1023 c 0
 1054 1023 1325 769 1323 418 c 0
 1321 88 l 1
 1321 36 1278 -7 1226 -7 c 0
 170 -7 l 2
EndSplineSet
EndChar

StartChar: y1
Encoding: 132 3375 82
Width: 1915
GlyphClass: 2
Flags: HW
LayerCount: 2
Fore
SplineSet
810 654 m 0
 799 622 795 590 795 556 c 0
 795 408 892 272 994 206 c 1
 1116 277 1217 411 1217 590 c 0
 1217 721 1140 838 1026 838 c 0
 909 838 845 765 810 654 c 0
447 840 m 0
 328 840 266 746 266 616 c 0
 266 355 478 139 749 139 c 0
 759 139 771 139 781 140 c 1
 671 249 607 383 607 597 c 0
 607 706 541 840 447 840 c 0
440 1025 m 0
 555 1025 654 959 714 873 c 1
 785 965 886 1028 1025 1028 c 0
 1255 1028 1408 824 1408 602 c 0
 1408 407 1328 251 1211 139 c 1
 1219 139 1226 138 1234 138 c 0
 1468 138 1648 331 1648 551 c 0
 1648 681 1580 797 1504 861 c 1
 1483 878 1472 903 1472 930 c 0
 1472 981 1513 1024 1566 1024 c 0
 1590 1024 1613 1015 1631 999 c 1
 1739 905 1840 743 1840 560 c 0
 1840 215 1583 -53 1227 -53 c 0
 1148 -53 1068 -36 992 -4 c 1
 908 -37 824 -53 745 -53 c 0
 380 -53 75 254 75 621 c 0
 75 836 204 1025 440 1025 c 0
EndSplineSet
EndChar

StartChar: r3
Encoding: 133 3376 83
Width: 1453
GlyphClass: 2
Flags: HW
LayerCount: 2
Fore
SplineSet
926 161 m 0
 1058 161 1169 267 1169 393 c 0
 1169 519 1058 625 926 625 c 0
 794 625 685 519 685 393 c 0
 685 267 794 161 926 161 c 0
484 72 m 0
 484 27 450 -20 390 -20 c 0
 372 -20 355 -14 339 -4 c 1
 197 84 75 248 75 458 c 0
 75 817 370 1051 725 1051 c 0
 1102 1051 1378 786 1378 451 c 0
 1378 201 1187 -26 916 -26 c 0
 668 -26 495 171 495 391 c 0
 495 599 675 815 918 815 c 0
 927 815 939 815 947 814 c 1
 881 845 812 859 732 859 c 0
 475 859 264 698 264 457 c 0
 264 319 347 209 440 151 c 1
 470 133 484 101 484 72 c 0
EndSplineSet
EndChar

StartChar: rh
Encoding: 134 3377 84
Width: 1328
GlyphClass: 2
Flags: HW
LayerCount: 2
Fore
SplineSet
668 833 m 0
 448 833 265 681 265 481 c 0
 265 322 381 202 519 165 c 1
 557 154 588 117 588 71 c 0
 588 29 549 -22 503 -22 c 0
 460 -22 408 0 340 37 c 1
 192 117 75 290 75 482 c 0
 75 785 336 1024 669 1024 c 0
 1005 1024 1253 768 1253 485 c 0
 1253 228 1071 38 854 -18 c 1
 840 -22 831 -22 818 -22 c 0
 774 -22 733 25 733 66 c 0
 733 119 766 155 821 170 c 1
 952 202 1063 333 1063 483 c 0
 1063 676 881 833 668 833 c 0
EndSplineSet
EndChar

StartChar: l3
Encoding: 135 3378 85
Width: 1647
GlyphClass: 2
Flags: HW
LayerCount: 2
Fore
SplineSet
590 833 m 0
 396 833 293 707 271 534 c 1
 915 535 l 1
 905 706 777 833 590 833 c 0
170 -1 m 2
 118 -1 75 39 75 89 c 0
 75 392 l 0
 75 735 218 1022 585 1022 c 0
 881 1022 1108 810 1108 525 c 0
 1108 467 1106 343 1002 343 c 0
 265 342 l 1
 265 189 l 1
 1382 190 l 1
 1380 934 l 1
 1380 948 l 0
 1380 993 1435 1025 1475 1025 c 0
 1527 1025 1570 985 1570 935 c 0
 1570 934 l 1
 1572 94 l 1
 1572 44 1532 2 1477 0 c 1
 170 -1 l 2
EndSplineSet
EndChar

StartChar: lh
Encoding: 136 3379 86
Width: 1273
GlyphClass: 2
Flags: HW
LayerCount: 2
Fore
SplineSet
386 576 m 0
 328 576 279 544 279 487 c 0
 279 427 345 391 402 391 c 0
 449 391 498 435 498 479 c 0
 498 529 445 576 386 576 c 0
266 -79 m 0
 266 -123 291 -145 383 -145 c 0
 1092 -145 l 0
 1144 -145 1188 -186 1188 -240 c 0
 1188 -294 1144 -335 1092 -335 c 0
 384 -335 l 0
 207 -335 75 -251 75 -79 c 0
 75 108 225 181 398 181 c 0
 780 181 l 0
 930 181 1012 214 1012 291 c 0
 1012 371 949 383 822 390 c 1
 771 392 724 426 724 484 c 0
 724 538 767 581 820 581 c 0
 938 581 981 597 981 663 c 0
 981 775 843 835 694 835 c 0
 569 835 457 825 379 767 c 1
 384 767 386 767 390 767 c 0
 556 767 686 637 686 479 c 0
 686 320 558 200 393 200 c 0
 201 200 77 371 77 539 c 0
 77 857 374 1025 687 1025 c 0
 921 1025 1169 910 1169 669 c 0
 1169 608 1132 533 1082 491 c 1
 1146 445 1198 373 1198 280 c 0
 1198 59 991 -9 780 -9 c 0
 397 -9 l 0
 299 -9 266 -29 266 -79 c 0
EndSplineSet
EndChar

StartChar: zh
Encoding: 137 3380 87
Width: 1269
GlyphClass: 2
Flags: HW
LayerCount: 2
Fore
SplineSet
600 438 m 1
 540 500 475 585 475 697 c 0
 475 872 634 1026 825 1026 c 0
 1020 1026 1194 868 1194 667 c 0
 1194 491 1067 366 943 307 c 1
 953 278 959 247 959 215 c 0
 959 38 793 -77 605 -77 c 0
 478 -77 355 -25 266 62 c 1
 249 78 236 104 236 129 c 0
 236 181 279 222 331 222 c 0
 354 222 383 211 399 195 c 1
 454 143 532 115 608 115 c 0
 701 115 767 158 767 222 c 0
 767 235 764 246 760 256 c 1
 726 252 695 249 663 249 c 0
 406 249 75 383 75 705 c 0
 75 814 122 923 210 997 c 1
 226 1011 251 1022 273 1022 c 0
 325 1022 368 981 368 929 c 0
 368 904 356 875 335 858 c 1
 292 821 268 763 268 705 c 0
 268 536 429 454 600 438 c 1
1003 665 m 0
 1003 763 922 833 825 833 c 0
 735 833 669 772 669 693 c 0
 669 597 764 542 840 466 c 1
 927 501 1003 565 1003 665 c 0
EndSplineSet
EndChar

StartChar: v1
Encoding: 138 3381 88
Width: 1719
GlyphClass: 2
Flags: HW
LayerCount: 2
Fore
SplineSet
1454 942 m 2
 1454 991 1504 1024 1544 1024 c 0
 1586 1024 1644 995 1644 946 c 0
 1644 933 l 0
 1643 83 l 0
 1643 33 1600 -7 1548 -7 c 1
 826 -4 l 1
 775 -4 731 36 731 94 c 0
 731 135 764 168 793 179 c 1
 923 223 1025 337 1025 498 c 0
 1025 716 842 826 652 826 c 0
 457 826 266 711 266 499 c 0
 266 330 404 197 570 180 c 1
 617 174 655 133 655 83 c 0
 655 43 620 -10 573 -10 c 0
 287 -10 75 243 75 496 c 0
 75 799 340 1024 637 1024 c 0
 957 1024 1216 792 1216 489 c 0
 1216 376 1179 274 1107 185 c 1
 1453 184 l 1
 1454 933 l 0
 1454 942 l 2
EndSplineSet
EndChar

StartChar: z1
Encoding: 139 3382 89
Width: 1909
GlyphClass: 2
Flags: HW
LayerCount: 2
Fore
SplineSet
1543 722 m 1
 1389 686 1260 558 1260 381 c 0
 1260 262 1327 168 1438 168 c 0
 1569 168 1646 301 1646 433 c 0
 1646 540 1599 651 1543 722 c 1
1835 421 m 0
 1835 192 1677 -24 1441 -24 c 0
 1220 -24 1068 160 1068 376 c 0
 1068 593 1203 762 1361 848 c 1
 1325 860 1293 865 1258 865 c 0
 1074 865 971 741 971 556 c 0
 971 501 973 440 973 417 c 0
 973 185 814 -23 558 -23 c 0
 264 -23 75 245 75 527 c 0
 75 787 231 964 404 1052 c 1
 419 1059 436 1063 455 1063 c 0
 502 1063 545 1020 545 973 c 0
 545 933 527 901 493 883 c 1
 367 820 266 702 266 526 c 0
 266 343 383 166 555 166 c 0
 730 166 783 287 783 489 c 0
 783 814 918 1054 1245 1054 c 0
 1601 1054 1835 755 1835 421 c 0
EndSplineSet
EndChar

StartChar: sh
Encoding: 140 3383 90
Width: 1928
GlyphClass: 2
Flags: HW
LayerCount: 2
Fore
SplineSet
1663 583 m 1
 1588 504 1499 445 1398 407 c 1
 1396 188 l 1
 1663 188 l 1
 1663 583 l 1
1084 861 m 0
 996 861 926 802 926 728 c 0
 926 622 1034 552 1166 552 c 0
 1180 552 1196 553 1209 554 c 1
 1210 715 l 1
 1210 825 1179 861 1084 861 c 0
432 488 m 0
 340 488 265 413 265 328 c 0
 265 263 312 202 356 184 c 1
 395 167 423 140 423 101 c 0
 423 52 391 -2 335 -2 c 0
 318 -2 303 0 290 6 c 1
 177 53 75 171 75 324 c 0
 75 523 233 678 433 678 c 0
 630 678 788 515 788 329 c 0
 788 282 776 233 756 188 c 1
 1206 188 l 1
 1208 364 l 1
 1192 363 1179 362 1165 362 c 0
 940 362 735 504 735 725 c 0
 735 916 896 1052 1082 1052 c 0
 1293 1052 1400 907 1400 714 c 1
 1399 617 l 1
 1522 683 1633 803 1658 942 c 1
 1667 986 1682 1052 1751 1052 c 0
 1810 1052 1853 1014 1853 959 c 0
 1853 91 l 0
 1853 40 1810 -2 1758 -2 c 0
 534 -2 l 0
 484 -2 440 38 440 93 c 0
 440 135 467 168 497 180 c 1
 550 202 597 258 597 326 c 0
 597 417 524 488 432 488 c 0
EndSplineSet
EndChar

StartChar: s1
Encoding: 141 3384 91
Width: 2478
GlyphClass: 2
Flags: HW
LayerCount: 2
Fore
SplineSet
985 847 m 1
 1044 943 1143 1025 1280 1025 c 0
 1538 1025 1629 799 1629 572 c 0
 1629 486 l 0
 1629 293 1708 169 1890 169 c 0
 2087 169 2211 337 2211 498 c 0
 2211 694 2035 827 1855 835 c 1
 1805 836 1763 880 1763 930 c 0
 1763 982 1806 1025 1858 1025 c 0
 2139 1025 2403 797 2403 492 c 0
 2403 240 2202 -23 1886 -23 c 0
 1611 -23 1434 198 1434 465 c 0
 1434 517 1438 567 1438 611 c 0
 1438 730 1385 835 1280 835 c 0
 1124 835 1097 678 1097 500 c 1
 1094 57 l 1
 1092 55 l 1
 1085 7 1046 -28 998 -28 c 0
 946 -28 903 12 903 62 c 0
 903 506 l 0
 903 706 796 834 603 834 c 0
 397 834 266 671 266 506 c 0
 266 305 453 163 641 163 c 0
 658 163 681 169 707 169 c 0
 759 169 802 126 802 74 c 0
 802 -20 701 -27 638 -27 c 0
 352 -27 75 192 75 512 c 0
 75 772 287 1026 610 1026 c 0
 758 1026 898 961 985 847 c 1
EndSplineSet
EndChar

StartChar: h1
Encoding: 142 3385 92
Width: 2151
GlyphClass: 2
Flags: HW
LayerCount: 2
Fore
SplineSet
1886 470 m 0
 1886 676 1746 830 1540 830 c 0
 1342 830 1191 688 1191 501 c 0
 1191 338 1314 214 1463 185 c 0
 1504 176 1538 136 1538 89 c 0
 1538 38 1493 -3 1443 -3 c 1
 574 0 l 1
 525 0 480 41 480 90 c 0
 480 132 499 165 536 182 c 1
 599 208 652 265 652 340 c 0
 652 441 570 515 459 515 c 0
 349 515 265 440 265 340 c 0
 265 261 327 197 392 176 c 1
 425 165 456 131 456 88 c 0
 456 31 412 -8 361 -8 c 0
 349 -8 338 -5 328 -2 c 1
 195 45 73 168 73 340 c 0
 73 543 242 712 455 712 c 0
 676 712 842 548 842 345 c 0
 842 290 828 238 802 189 c 1
 1118 188 l 1
 1041 276 1002 376 1002 515 c 0
 1002 801 1240 1020 1541 1020 c 0
 1842 1020 2076 781 2076 491 c 0
 2076 243 1923 82 1734 0 c 1
 1721 -6 1706 -8 1689 -8 c 0
 1642 -8 1601 38 1601 83 c 0
 1601 126 1628 162 1662 175 c 1
 1776 219 1886 335 1886 470 c 0
EndSplineSet
EndChar

StartChar: avagraha
Encoding: 144 3389 93
Width: 1438
GlyphClass: 2
Flags: HW
LayerCount: 2
Fore
SplineSet
223 -80 m 0
 223 -115 215 -136 215 -157 c 0
 215 -239 283 -300 363 -300 c 0
 510 -300 541 -165 566 4 c 0
 639 486 l 1
 443 486 l 0
 397 486 362 541 362 581 c 0
 362 621 396 678 443 678 c 0
 668 678 l 1
 711 963 l 1
 748 1203 842 1460 1115 1460 c 0
 1312 1460 1463 1314 1463 1117 c 0
 1463 1050 1445 983 1360 983 c 0
 1320 983 1271 1024 1271 1066 c 0
 1271 1084 1275 1107 1275 1123 c 0
 1275 1200 1197 1269 1125 1269 c 0
 969 1269 926 1120 899 934 c 1
 861 678 l 1
 1051 678 l 0
 1098 678 1132 621 1132 581 c 0
 1132 541 1099 486 1051 486 c 0
 832 486 l 1
 755 -25 l 0
 718 -269 630 -494 360 -494 c 0
 174 -494 25 -339 25 -155 c 0
 25 -93 39 5 132 5 c 0
 174 5 223 -34 223 -80 c 0
EndSplineSet
EndChar

StartChar: a2
Encoding: 145 3390 94
Width: 1000
GlyphClass: 2
Flags: HW
LayerCount: 2
Fore
SplineSet
460 175 m 0
 626 175 736 332 736 502 c 0
 736 677 631 834 461 834 c 0
 367 834 283 744 274 657 c 1
 270 612 228 576 178 576 c 0
 138 576 84 609 84 654 c 0
 84 863 271 1024 474 1024 c 0
 761 1024 926 761 926 503 c 0
 926 233 740 -15 461 -15 c 0
 252 -15 75 144 75 350 c 0
 75 392 125 428 164 428 c 0
 221 428 263 391 265 344 c 1
 272 250 353 175 460 175 c 0
EndSplineSet
EndChar

StartChar: i1
Encoding: 146 3391 95
Width: 340
GlyphClass: 2
Flags: HW
LayerCount: 2
Fore
SplineSet
-157 1437 m 0
 148 1437 263 1183 263 905 c 1
 265 69 l 1
 265 18 222 -24 170 -24 c 0
 118 -24 75 18 75 69 c 1
 73 903 l 1
 73 1106 19 1246 -161 1246 c 0
 -263 1246 -341 1179 -370 1105 c 1
 -384 1060 -426 1043 -468 1043 c 0
 -512 1043 -552 1087 -552 1128 c 0
 -552 1311 -332 1437 -157 1437 c 0
EndSplineSet
EndChar

StartChar: i2
Encoding: 147 3392 96
Width: 398
GlyphClass: 2
Flags: HW
LayerCount: 2
Fore
SplineSet
-172 1267 m 0
 -216 1267 -252 1245 -252 1204 c 0
 -252 1180 -215 1149 -180 1149 c 0
 -142 1149 -113 1173 -113 1205 c 0
 -113 1245 -135 1267 -172 1267 c 0
32 1209 m 0
 32 1085 -84 995 -193 995 c 0
 -306 995 -404 1093 -404 1203 c 0
 -404 1367 -254 1446 -101 1446 c 0
 177 1446 323 1286 323 1009 c 1
 320 72 l 1
 320 12 270 -19 225 -19 c 0
 180 -19 130 12 130 73 c 1
 133 1008 l 1
 133 1140 109 1203 31 1237 c 1
 32 1226 32 1218 32 1209 c 0
EndSplineSet
EndChar

StartChar: u1
Encoding: 148 3393 97
Width: 794
GlyphClass: 2
Flags: HW
LayerCount: 2
Fore
SplineSet
266 -253 m 0
 266 -326 324 -387 396 -387 c 0
 473 -387 530 -334 530 -255 c 0
 530 -181 460 -116 392 -116 c 0
 318 -116 266 -180 266 -253 c 0
399 -579 m 0
 212 -579 76 -429 76 -258 c 0
 76 -131 154 -27 244 24 c 1
 317 160 440 400 440 575 c 0
 440 731 359 839 246 861 c 1
 203 869 169 908 169 957 c 0
 169 999 207 1051 253 1051 c 0
 482 1051 629 806 629 587 c 0
 629 442 574 264 473 55 c 1
 613 21 720 -99 720 -259 c 0
 720 -441 577 -579 399 -579 c 0
EndSplineSet
EndChar

StartChar: u2
Encoding: 149 3394 98
Width: 973
GlyphClass: 2
Flags: HW
LayerCount: 2
Fore
SplineSet
572 -301 m 0
 572 -214 500 -149 418 -149 c 0
 339 -149 264 -228 264 -306 c 0
 264 -383 342 -447 419 -447 c 0
 500 -447 572 -382 572 -301 c 0
414 -636 m 0
 219 -636 77 -479 77 -297 c 0
 77 -175 144 -67 239 -9 c 1
 307 141 439 388 439 530 c 0
 439 687 376 812 262 833 c 1
 207 845 168 877 168 930 c 0
 168 975 205 1025 253 1025 c 0
 498 1025 629 772 629 534 c 0
 629 404 554 223 487 78 c 1
 496 79 504 79 512 79 c 0
 784 79 999 -152 999 -423 c 0
 999 -711 771 -947 464 -947 c 0
 352 -947 250 -914 159 -849 c 1
 132 -830 120 -802 120 -774 c 0
 120 -728 154 -679 210 -679 c 0
 235 -679 262 -691 290 -710 c 0
 323 -733 401 -756 474 -756 c 0
 665 -756 809 -613 809 -420 c 0
 809 -355 788 -296 759 -251 c 1
 761 -267 762 -281 762 -297 c 0
 762 -491 604 -636 414 -636 c 0
EndSplineSet
EndChar

StartChar: r1
Encoding: 150 3395 99
Width: 393
GlyphClass: 2
Flags: HW
LayerCount: 2
Fore
SplineSet
-525 -312 m 0
 -525 -375 -448 -408 -367 -408 c 0
 -276 -408 -175 -365 -108 -319 c 1
 -205 -266 -296 -242 -395 -242 c 0
 -467 -242 -525 -268 -525 -312 c 0
19 -187 m 1
 102 -66 139 79 139 274 c 0
 139 475 90 674 -9 869 c 1
 -17 884 -21 900 -21 914 c 0
 -21 970 33 999 77 999 c 0
 110 999 136 979 151 949 c 1
 263 730 319 506 319 277 c 0
 319 -167 98 -587 -365 -587 c 0
 -536 -587 -707 -495 -707 -315 c 0
 -707 -146 -549 -62 -394 -62 c 0
 -229 -62 -93 -117 19 -187 c 1
EndSplineSet
EndChar

StartChar: e1
Encoding: 152 3398 100
Width: 1395
GlyphClass: 2
Flags: HW
LayerCount: 2
Fore
SplineSet
75 435 m 0
 75 783 376 1023 697 1023 c 0
 1019 1023 1320 782 1320 430 c 0
 1320 275 1257 119 1137 7 c 1
 1121 -9 1094 -21 1070 -21 c 0
 1018 -21 975 18 975 69 c 0
 975 93 988 119 1005 134 c 1
 1087 209 1129 317 1129 424 c 0
 1129 671 916 833 691 833 c 0
 563 833 443 776 364 691 c 1
 404 705 444 712 485 712 c 0
 680 712 872 560 872 345 c 0
 872 155 710 -17 496 -17 c 0
 231 -17 75 220 75 435 c 0
681 346 m 0
 681 447 586 517 485 517 c 0
 369 517 288 428 288 335 c 0
 288 251 394 174 492 174 c 0
 603 174 681 249 681 346 c 0
EndSplineSet
EndChar

StartChar: e2
Encoding: 153 3399 101
Width: 1022
GlyphClass: 2
Flags: HW
LayerCount: 2
Fore
SplineSet
578 1051 m 0
 759 1051 933 945 933 756 c 0
 933 624 823 520 686 520 c 0
 546 520 440 628 440 762 c 0
 440 790 445 816 453 840 c 1
 348 776 267 642 267 525 c 0
 267 382 355 261 463 192 c 1
 450 224 445 252 445 281 c 0
 445 390 551 509 691 509 c 0
 840 509 947 392 947 256 c 0
 947 84 793 -22 624 -22 c 0
 316 -22 75 237 75 538 c 0
 75 811 295 1051 578 1051 c 0
696 177 m 0
 741 177 778 213 778 254 c 0
 778 295 741 331 696 331 c 0
 651 331 614 295 614 254 c 0
 614 213 651 177 696 177 c 0
687 689 m 0
 734 689 772 726 772 769 c 0
 772 813 734 850 687 850 c 0
 640 850 601 812 601 769 c 0
 601 726 639 689 687 689 c 0
EndSplineSet
EndChar

StartChar: xx
Encoding: 158 3405 106
Width: 142
GlyphClass: 4
Flags: HW
LayerCount: 2
Fore
SplineSet
166 1295 m 0
 166 1314 159 1331 159 1365 c 0
 159 1412 209 1450 252 1450 c 0
 336 1450 357 1368 357 1304 c 0
 357 1101 207 947 7 947 c 0
 -195 947 -336 1116 -336 1295 c 0
 -336 1358 -323 1454 -230 1454 c 0
 -187 1454 -138 1413 -138 1368 c 0
 -138 1336 -145 1316 -145 1294 c 0
 -145 1206 -73 1140 7 1140 c 0
 97 1140 166 1214 166 1295 c 0
EndSplineSet
EndChar

StartChar: dotreph
Encoding: 159 3406 107
Width: 0
GlyphClass: 4
Flags: HW
LayerCount: 2
Fore
SplineSet
147 1094 m 0
 53 1094 -25 1169 -25 1262 c 0
 -25 1355 53 1427 147 1427 c 0
 240 1427 323 1356 323 1262 c 0
 323 1168 240 1094 147 1094 c 0
EndSplineSet
EndChar

StartChar: au2
Encoding: 160 3415 108
Width: 1556
GlyphClass: 2
Flags: HW
LayerCount: 2
Fore
SplineSet
650 627 m 2
 648 739 572 833 456 833 c 0
 347 833 265 741 265 633 c 0
 265 604 273 576 289 547 c 1
 297 533 301 517 301 502 c 0
 301 455 262 409 208 409 c 0
 167 409 136 432 122 460 c 1
 89 518 75 576 75 636 c 0
 75 844 236 1024 456 1024 c 0
 583 1024 695 962 752 874 c 1
 815 962 929 1022 1060 1022 c 0
 1302 1022 1481 791 1481 557 c 0
 1481 179 1121 -51 744 -51 c 0
 628 -51 509 -26 405 20 c 1
 374 33 347 66 347 106 c 0
 347 158 389 201 442 201 c 0
 456 201 469 198 482 192 c 1
 561 158 654 140 746 140 c 0
 1029 140 1291 302 1291 559 c 0
 1291 702 1191 829 1054 829 c 0
 911 829 842 725 839 566 c 1
 839 562 l 1
 839 561 l 0
 830 515 786 488 744 488 c 0
 689 488 650 535 650 583 c 0
 650 627 l 2
EndSplineSet
EndChar

StartChar: datemark
Encoding: 173 3449 109
Width: 2321
GlyphClass: 2
Flags: HW
LayerCount: 2
Fore
SplineSet
1793 497 m 1
 1700 499 1637 497 1601 491 c 1
 1475 474 1419 428 1407 358 c 1
 1399 305 1415 262 1463 225 c 1
 1510 186 1566 178 1632 202 c 1
 1733 235 1810 353 1793 497 c 1
984 -6 m 0
 935 -6 897 42 897 88 c 1
 899 450 l 0
 900 587 892 650 840 725 c 0
 769 829 625 876 477 817 c 1
 385 780 317 710 284 615 c 1
 229 455 310 309 410 242 c 1
 478 198 583 169 687 196 c 1
 698 200 705 201 714 201 c 0
 765 201 809 158 809 112 c 0
 809 63 784 24 737 12 c 1
 469 -59 248 83 148 247 c 0
 76 366 50 520 103 676 c 1
 153 824 262 931 400 991 c 0
 471 1022 546 1035 625 1031 c 0
 790 1022 916 954 999 828 c 1
 1067 927 1170 988 1307 1019 c 0
 1501 1062 1676 985 1785 895 c 1
 1852 839 1903 768 1939 686 c 1
 2153 682 l 1
 2201 682 2248 642 2248 592 c 0
 2248 534 2207 492 2152 492 c 0
 2150 492 l 1
 1985 495 l 1
 2002 256 1862 81 1693 24 c 1
 1482 -50 1299 70 1239 220 c 1
 1192 337 1221 460 1288 537 c 1
 1384 649 1527 686 1719 688 c 1
 1666 760 1597 805 1505 827 c 1
 1446 842 1392 843 1345 832 c 1
 1202 800 1123 719 1099 582 c 1
 1093 552 1091 508 1090 446 c 1
 1087 88 l 1
 1087 87 l 1
 1086 31 1043 -6 984 -6 c 0
EndSplineSet
EndChar

StartChar: ZWNJ
Encoding: 180 8204 110
Width: 321
GlyphClass: 2
Flags: HW
LayerCount: 2
Fore
SplineSet
41 1002 m 1
 250 1002 l 1
 250 -7 l 1
 41 -7 l 1
 41 1002 l 1
EndSplineSet
EndChar

StartChar: ZWJ
Encoding: 181 8205 111
Width: 320
GlyphClass: 2
Flags: HW
LayerCount: 2
Fore
SplineSet
45 812 m 1
 27 785 l 1
 -137 785 l 1
 65 1082 l 1
 -124 1355 l 1
 46 1355 l 1
 131 1222 l 1
 134 1217 141 1207 147 1197 c 1
 257 1355 l 1
 426 1355 l 1
 229 1086 l 1
 434 785 l 1
 269 785 l 1
 249 817 l 1
 249 -6 l 1
 45 -6 l 1
 45 812 l 1
113 919 m 1
 182 919 l 1
 148 972 l 1
 113 919 l 1
EndSplineSet
EndChar

StartChar: rupee
Encoding: 182 8377 112
Width: 1165
GlyphClass: 2
Flags: HW
LayerCount: 2
Fore
SplineSet
802 799 m 1
 751 639 631 518 493 446 c 1
 993 153 l 1
 1021 137 1040 103 1040 72 c 0
 1040 20 997 -21 945 -21 c 0
 929 -21 909 -16 895 -7 c 1
 218 389 l 0
 191 405 173 437 173 468 c 0
 173 513 208 554 254 561 c 1
 399 582 534 675 599 799 c 1
 179 801 l 1
 124 801 83 844 83 896 c 0
 83 948 126 991 178 991 c 0
 179 991 l 1
 632 989 l 1
 615 1084 543 1153 454 1163 c 1
 446 1164 446 1164 444 1165 c 1
 171 1166 l 1
 116 1166 75 1209 75 1261 c 0
 75 1313 118 1356 170 1356 c 0
 171 1356 l 1
 986 1353 l 1
 1041 1353 1083 1310 1083 1258 c 0
 1083 1206 1040 1163 988 1163 c 0
 987 1163 l 1
 766 1164 l 1
 801 1108 818 1049 824 989 c 1
 994 988 l 1
 1049 988 1091 945 1091 893 c 0
 1091 841 1048 798 996 798 c 0
 995 798 l 1
 802 799 l 1
EndSplineSet
EndChar

StartChar: uni25CC
Encoding: 183 9676 113
Width: 1130
GlyphClass: 2
Flags: HW
LayerCount: 2
Fore
SplineSet
233 343 m 1
 301 245 268 281 361 226 c 1
 385 212 l 1
 276 74 l 1
 257 84 l 1
 148 151 139 168 84 246 c 1
 69 266 l 1
 220 365 l 1
 233 343 l 1
693 9 m 2
 660 -1 619 -6 571 -6 c 0
 523 -6 482 -1 445 9 c 1
 422 14 l 1
 450 183 l 1
 475 178 l 1
 517 171 549 168 568 168 c 0
 587 168 619 171 661 177 c 1
 686 182 l 1
 714 14 l 1
 693 9 l 2
205 406 m 1
 22 378 l 1
 17 401 l 1
 9 438 5 476 5 513 c 0
 5 550 9 587 17 625 c 1
 22 649 l 1
 205 621 l 1
 193 593 l 1
 187 576 183 548 183 513 c 0
 183 478 187 450 193 434 c 1
 205 406 l 1
360 800 m 2
 266 751 278 749 233 684 c 1
 220 662 l 1
 69 760 l 1
 84 780 l 1
 155 881 153 877 257 941 c 1
 275 954 l 1
 386 813 l 1
 360 800 l 2
1057 245 m 2
 977 138 998 152 881 84 c 0
 880 84 l 1
 860 74 l 1
 758 212 l 1
 780 226 l 1
 780 226 l 0
 851 267 886 297 906 340 c 1
 919 366 l 1
 1074 266 l 1
 1057 245 l 2
1122 627 m 2
 1131 589 1136 551 1136 513 c 0
 1136 475 1131 438 1122 400 c 1
 1117 378 l 1
 944 406 l 1
 946 429 l 1
 946 429 l 0
 952 467 955 494 955 510 c 0
 955 526 952 556 946 598 c 1
 944 621 l 1
 1117 649 l 1
 1122 627 l 2
714 1012 m 1
 686 844 l 1
 661 849 l 1
 619 856 589 858 568 858 c 0
 547 858 517 856 475 849 c 1
 450 844 l 1
 422 1012 l 1
 445 1017 l 1
 493 1029 535 1034 570 1034 c 0
 605 1034 645 1029 691 1017 c 1
 714 1012 l 1
908 684 m 2
 867 748 825 786 785 799 c 0
 754 809 l 1
 861 954 l 1
 881 941 l 1
 969 885 1014 850 1059 779 c 1
 1071 759 l 1
 921 662 l 1
 908 684 l 2
EndSplineSet
EndChar

StartChar: r4
Encoding: 187 -1 114
Width: 614
GlyphClass: 2
LigCaretCntFixed: 1
Flags: HW
LayerCount: 2
Fore
SplineSet
453 -141 m 0
 477 -142 500 -153 515 -170 c 1
 546 -202 554 -258 512 -298 c 1
 495 -314 472 -324 447 -323 c 1
 283 -317 168 -250 112 -121 c 1
 68 -18 64 136 93 345 c 1
 102 427 118 549 143 705 c 1
 165 861 177 949 180 970 c 0
 180 971 l 1
 180 971 l 0
 191 1018 238 1060 304 1050 c 0
 305 1050 l 1
 306 1050 l 0
 345 1040 368 989 358 937 c 1
 312 630 283 425 272 321 c 1
 247 140 250 16 277 -46 c 1
 302 -105 355 -138 453 -141 c 0
EndSplineSet
LCarets2: 1 0
EndChar

StartChar: y2
Encoding: 188 -1 115
Width: 598
GlyphClass: 2
LigCaretCntFixed: 1
Flags: HW
LayerCount: 2
Fore
SplineSet
232 -421 m 0
 346 -421 433 -331 433 -219 c 0
 433 91 64 332 64 711 c 0
 64 792 76 877 101 958 c 1
 112 1000 153 1025 194 1025 c 0
 238 1025 287 989 287 941 c 0
 287 927 287 915 284 905 c 1
 265 834 255 768 255 702 c 0
 255 333 625 142 625 -219 c 0
 625 -430 458 -613 235 -613 c 0
 33 -613 -135 -461 -135 -258 c 0
 -135 -115 -61 -14 37 46 c 1
 53 56 71 61 88 61 c 0
 141 61 183 17 183 -38 c 0
 183 -69 166 -96 138 -112 c 1
 92 -139 55 -195 55 -255 c 0
 55 -347 133 -421 232 -421 c 0
EndSplineSet
LCarets2: 1 3
EndChar

StartChar: v2
Encoding: 191 -1 118
Width: 437
GlyphClass: 3
LigCaretCntFixed: 1
Flags: HW
LayerCount: 2
Fore
SplineSet
-328 -246 m 0
 -328 -204 -299 -145 -247 -145 c 0
 173 -145 l 1
 169 931 l 1
 169 946 l 0
 169 992 224 1025 264 1025 c 0
 316 1025 359 983 359 932 c 0
 359 931 l 1
 363 -240 l 1
 363 -289 326 -335 268 -335 c 0
 -242 -335 l 0
 -292 -335 -328 -285 -328 -246 c 0
EndSplineSet
LCarets2: 1 0
EndChar

StartChar: k1cil
Encoding: 179 3455 119
Width: 1964
GlyphClass: 3
Flags: HW
LayerCount: 2
Fore
SplineSet
265 311 m 0
 265 238 330 175 401 175 c 0
 495 175 561 236 561 319 c 0
 561 329 l 1
 546 384 538 440 537 499 c 1
 375 487 265 423 265 311 c 0
1570 166 m 0
 1631 166 1701 224 1701 303 c 0
 1701 418 1598 485 1460 500 c 1
 1440 443 1432 396 1432 352 c 0
 1432 257 1493 166 1570 166 c 0
1252 504 m 1
 727 502 l 1
 730 324 822 167 989 167 c 0
 1155 167 1250 330 1252 504 c 1
1219 694 m 1
 1176 794 1092 870 990 870 c 0
 884 870 800 791 759 692 c 1
 1219 694 l 1
1309 1360 m 0
 1309 1412 1348 1458 1395 1458 c 0
 1424 1458 1451 1450 1470 1432 c 1
 1577 1335 1630 1212 1630 1068 c 0
 1630 942 1572 790 1532 682 c 1
 1717 649 1889 517 1889 304 c 0
 1889 140 1760 -24 1580 -24 c 0
 1451 -24 1363 41 1307 128 c 1
 1235 47 1127 -21 989 -21 c 0
 854 -21 748 46 681 117 c 1
 623 41 533 -15 415 -15 c 0
 237 -15 75 123 75 299 c 0
 75 568 298 680 558 691 c 1
 612 892 776 1060 989 1060 c 0
 1181 1060 1309 938 1377 803 c 1
 1412 890 1440 975 1440 1062 c 0
 1440 1157 1406 1232 1341 1293 c 1
 1319 1312 1309 1335 1309 1360 c 0
EndSplineSet
LCarets2: 2 0 0
EndChar

StartChar: nhcil
Encoding: 174 3450 120
Width: 2758
GlyphClass: 2
Flags: HW
LayerCount: 2
Fore
SplineSet
488 169 m 0
 575 169 640 227 640 305 c 0
 640 379 569 446 490 446 c 0
 411 446 341 380 341 304 c 0
 341 228 410 169 488 169 c 0
2320 788 m 1
 2255 638 2137 528 2137 360 c 0
 2137 257 2215 166 2303 166 c 0
 2426 166 2494 290 2494 424 c 0
 2494 589 2424 714 2320 788 c 1
2168 1044 m 1
 2156 1109 2125 1161 2074 1203 c 1
 2052 1220 2039 1245 2039 1271 c 0
 2039 1309 2071 1364 2120 1364 c 0
 2121 1364 l 0
 2152 1364 2172 1362 2197 1341 c 1
 2287 1267 2363 1142 2363 993 c 0
 2363 984 l 1
 2551 887 2684 680 2684 423 c 0
 2684 203 2553 -23 2310 -23 c 0
 2103 -23 1947 148 1947 357 c 0
 1947 547 2092 709 2143 851 c 1
 2133 851 2128 851 2125 851 c 0
 1891 851 1827 686 1827 430 c 1
 1829 69 l 1
 1829 17 1786 -26 1734 -26 c 0
 1680 -26 1640 18 1639 69 c 1
 1636 426 l 0
 1634 679 1575 852 1397 852 c 0
 1204 852 1155 667 1155 442 c 0
 1155 423 l 1
 1157 69 l 1
 1157 17 1114 -26 1062 -26 c 0
 1008 -26 968 18 967 69 c 1
 964 421 l 0
 962 678 882 858 640 858 c 0
 442 858 318 716 278 558 c 1
 334 604 408 636 489 636 c 0
 679 636 831 483 831 308 c 0
 831 125 681 -22 490 -22 c 0
 233 -22 75 200 75 453 c 0
 75 766 297 1049 639 1049 c 0
 823 1049 965 958 1050 837 c 1
 1115 945 1239 1046 1394 1046 c 0
 1557 1046 1673 946 1737 840 c 1
 1820 962 1951 1046 2127 1046 c 0
 2140 1046 2156 1045 2168 1044 c 1
EndSplineSet
LCarets2: 2 0 0
EndChar

StartChar: n1cil
Encoding: 175 3451 121
Width: 2051
GlyphClass: 2
Flags: HW
LayerCount: 2
Fore
SplineSet
1392 364 m 0
 1392 254 1476 168 1579 168 c 0
 1704 168 1787 298 1787 438 c 0
 1787 588 1711 707 1604 773 c 1
 1532 641 1392 499 1392 364 c 0
1662 957 m 1
 1845 864 1977 684 1977 433 c 0
 1977 203 1833 -21 1576 -21 c 0
 1356 -21 1203 156 1203 357 c 0
 1203 570 1345 701 1421 831 c 1
 1415 831 1411 831 1406 831 c 0
 1199 831 1082 674 1082 505 c 1
 1083 70 l 1
 1083 18 1039 -22 988 -22 c 0
 937 -22 893 18 893 71 c 1
 891 505 l 1
 891 521 l 0
 891 692 771 831 588 831 c 0
 396 831 266 684 266 510 c 0
 266 319 431 172 635 172 c 0
 658 172 675 176 706 176 c 0
 752 176 790 125 790 83 c 0
 790 -13 690 -19 627 -19 c 0
 320 -19 75 223 75 515 c 0
 75 796 295 1018 590 1018 c 0
 773 1018 911 926 992 811 c 1
 1078 927 1226 1021 1407 1021 c 0
 1429 1021 1452 1020 1474 1017 c 1
 1469 1112 1415 1185 1350 1224 c 1
 1321 1240 1302 1268 1302 1301 c 0
 1302 1351 1337 1402 1392 1402 c 0
 1412 1402 1431 1398 1447 1388 c 1
 1559 1321 1665 1180 1665 1009 c 0
 1665 992 1664 974 1662 957 c 1
EndSplineSet
LCarets2: 2 0 0
EndChar

StartChar: l3cil
Encoding: 177 3453 122
Width: 2092
GlyphClass: 3
Flags: HW
LayerCount: 2
Fore
SplineSet
1494 362 m 0
 1494 260 1561 166 1660 166 c 0
 1765 166 1827 268 1827 377 c 0
 1827 529 1751 637 1640 721 c 1
 1590 625 1494 470 1494 362 c 0
915 747 m 1
 788 664 704 546 704 388 c 0
 704 276 780 163 894 163 c 0
 1011 163 1089 276 1089 397 c 0
 1089 555 1022 670 915 747 c 1
516 390 m 0
 516 580 610 726 719 826 c 1
 694 830 672 832 649 832 c 0
 431 832 265 670 265 462 c 0
 265 317 357 200 461 144 c 1
 491 129 510 103 510 72 c 0
 510 24 474 -24 420 -24 c 0
 401 -24 383 -21 367 -12 c 1
 211 74 75 245 75 465 c 0
 75 783 345 1023 656 1023 c 0
 740 1023 831 1003 917 962 c 1
 1023 1010 1139 1036 1259 1036 c 0
 1350 1036 1444 1021 1530 990 c 1
 1531 999 1531 1004 1531 1012 c 0
 1531 1110 1463 1201 1378 1216 c 1
 1322 1227 1289 1264 1289 1320 c 0
 1289 1322 l 0
 1289 1362 1331 1408 1373 1408 c 0
 1385 1408 1393 1408 1402 1407 c 0
 1402 1407 l 1
 1403 1407 l 0
 1579 1374 1721 1223 1721 1013 c 0
 1721 977 1716 937 1708 900 c 1
 1873 792 2017 615 2017 371 c 0
 2017 170 1885 -24 1660 -24 c 0
 1443 -24 1304 157 1304 355 c 0
 1304 527 1415 686 1476 810 c 1
 1403 836 1331 848 1259 848 c 0
 1207 848 1154 841 1102 828 c 1
 1214 717 1279 577 1279 400 c 0
 1279 182 1139 -26 895 -26 c 0
 656 -26 516 178 516 390 c 0
EndSplineSet
LCarets2: 2 0 0
EndChar

StartChar: lhcil
Encoding: 178 3454 123
Width: 1931
GlyphClass: 3
Flags: HW
LayerCount: 2
Fore
SplineSet
1447 164 m 0
 1570 164 1665 288 1665 436 c 0
 1665 594 1566 747 1424 821 c 1
 1345 651 1241 530 1241 402 c 0
 1241 278 1326 164 1447 164 c 0
550 -25 m 0
 282 -25 75 204 75 492 c 0
 75 723 215 947 432 1047 c 1
 444 1053 459 1057 473 1057 c 0
 525 1057 568 1014 568 962 c 0
 568 927 545 890 512 875 c 1
 365 809 266 647 266 487 c 0
 266 306 397 165 553 165 c 0
 692 165 765 267 765 408 c 0
 765 446 763 488 763 533 c 0
 763 832 948 1058 1242 1058 c 0
 1256 1058 1273 1057 1285 1056 c 1
 1282 1137 1252 1223 1201 1280 c 1
 1186 1296 1175 1322 1175 1345 c 0
 1175 1397 1218 1440 1270 1440 c 0
 1298 1440 1324 1426 1341 1408 c 1
 1430 1311 1476 1175 1476 1047 c 0
 1476 1034 1476 1018 1475 1007 c 1
 1706 909 1856 684 1856 441 c 0
 1856 402 1852 362 1844 323 c 1
 1811 140 1655 -26 1449 -26 c 0
 1199 -26 1051 185 1051 404 c 0
 1051 601 1172 743 1237 867 c 1
 1029 863 956 721 956 487 c 0
 956 465 l 0
 956 197 849 -25 550 -25 c 0
EndSplineSet
LCarets2: 2 0 0
EndChar

StartChar: r3cil
Encoding: 176 3452 124
Width: 1405
GlyphClass: 3
Flags: HW
LayerCount: 2
Fore
SplineSet
909 171 m 0
 1049 171 1140 308 1140 438 c 0
 1140 592 1026 718 911 777 c 1
 832 654 686 527 686 386 c 0
 686 260 775 171 909 171 c 0
979 953 m 1
 1157 869 1331 681 1331 436 c 0
 1331 197 1171 -18 901 -18 c 0
 666 -18 496 167 496 374 c 0
 496 560 637 707 721 828 c 1
 706 829 694 829 681 829 c 0
 441 829 264 654 264 462 c 0
 264 325 359 211 466 161 c 1
 501 143 520 112 520 71 c 0
 520 25 477 -19 431 -19 c 0
 413 -19 396 -15 382 -8 c 1
 218 69 75 239 75 459 c 0
 75 790 363 1020 705 1020 c 0
 741 1020 775 1013 796 1010 c 1
 797 1017 797 1024 797 1031 c 0
 797 1121 740 1196 682 1231 c 1
 654 1247 636 1274 636 1307 c 0
 636 1357 671 1408 726 1408 c 0
 746 1408 765 1404 782 1394 c 1
 890 1326 986 1195 986 1028 c 0
 986 1004 984 978 979 953 c 1
EndSplineSet
LCarets2: 2 0 0
EndChar

StartChar: k1u1
Encoding: 192 -1 125
Width: 1925
GlyphClass: 3
LigCaretCntFixed: 1
Flags: HW
LayerCount: 2
Fore
SplineSet
1261 477 m 1
 960 475 783 474 722 474 c 1
 728 311 835 179 989 179 c 0
 1158 179 1261 325 1262 486 c 1
 1262 482 1261 477 1261 477 c 1
559 311 m 2
 559 321 l 1
 543 370 534 419 532 469 c 1
 382 454 266 402 266 296 c 0
 266 231 329 178 403 178 c 0
 493 178 559 235 559 311 c 2
756 666 m 1
 1228 669 l 1
 1186 757 1107 828 991 828 c 0
 874 828 797 754 756 666 c 1
1590 147 m 0
 1636 147 1660 163 1660 180 c 0
 1660 191 1650 206 1579 206 c 0
 1505 206 1448 235 1448 301 c 0
 1448 356 1483 390 1537 391 c 2
 1591 392 l 2
 1648 393 1658 406 1658 423 c 0
 1658 455 1609 482 1452 482 c 1
 1449 228 1275 -13 991 -13 c 0
 872 -13 763 40 682 123 c 1
 622 40 530 -15 404 -15 c 0
 230 -15 75 123 75 289 c 0
 75 543 317 646 554 662 c 1
 610 858 777 1017 993 1017 c 0
 1203 1017 1370 860 1427 674 c 1
 1437 674 1444 675 1453 675 c 0
 1647 675 1848 611 1848 422 c 0
 1848 379 1833 338 1797 303 c 1
 1831 271 1846 232 1846 186 c 0
 1846 36 1720 -32 1573 -32 c 0
 1508 -32 1393 -18 1393 71 c 0
 1393 127 1435 166 1487 166 c 0
 1527 166 1564 147 1590 147 c 0
EndSplineSet
LCarets2: 1 0
EndChar

StartChar: k1u2
Encoding: 193 -1 126
Width: 1933
GlyphClass: 3
LigCaretCntFixed: 1
Flags: HW
LayerCount: 2
Fore
SplineSet
522 484 m 1
 404 474 304 417 274 342 c 1
 274 339 l 1
 272 335 l 1
 252 282 287 226 318 199 c 1
 340 181 363 171 380 170 c 1
 390 169 388 169 390 169 c 1
 391 169 l 0
 452 161 506 203 531 245 c 1
 546 270 552 294 551 318 c 1
 551 320 l 0
 534 373 524 428 522 484 c 1
1089 203 m 2
 1173 253 1235 361 1240 492 c 1
 1197 491 1119 491 1002 491 c 0
 873 491 775 490 714 489 c 1
 717 392 745 319 799 256 c 0
 800 255 l 1
 805 248 l 1
 865 182 990 144 1084 200 c 1
 1089 203 l 2
1206 684 m 1
 1164 775 1077 857 974 855 c 1
 940 854 904 844 870 825 c 1
 817 794 777 746 750 681 c 1
 854 683 939 684 1016 684 c 0
 1206 684 l 1
389 -20 m 1
 378 -20 366 -18 355 -17 c 1
 278 -10 215 25 163 81 c 1
 78 176 54 285 94 402 c 1
 125 492 186 560 276 607 c 1
 363 654 454 676 546 677 c 1
 588 823 667 928 780 993 c 1
 941 1083 1135 1049 1258 934 c 1
 1331 866 1381 782 1405 691 c 1
 1605 695 1738 643 1798 523 c 1
 1839 443 1807 345 1768 294 c 1
 1818 237 1861 146 1840 46 c 1
 1823 -36 1782 -100 1714 -141 c 1
 1649 -181 1579 -199 1508 -196 c 1
 1192 -199 823 -201 430 -207 c 1
 352 -208 276 -249 273 -295 c 1
 270 -337 330 -378 394 -380 c 1
 557 -386 657 -387 681 -384 c 1
 684 -381 l 1
 694 -381 l 1
 694 -381 766 -379 910 -377 c 0
 1761 -365 l 1
 1777 -365 l 0
 1824 -365 1858 -420 1858 -460 c 0
 1858 -512 1816 -554 1765 -555 c 1
 912 -569 l 1
 882 -569 l 0
 862 -569 792 -570 671 -573 c 0
 550 -576 453 -575 383 -571 c 1
 263 -565 158 -503 108 -407 c 0
 37 -271 113 -141 217 -76 c 1
 265 -47 323 -28 389 -20 c 1
462 -15 m 1
 541 -13 685 -11 893 -9 c 1
 811 11 736 57 674 114 c 1
 625 49 555 0 462 -15 c 1
1074 -8 m 1
 1453 -5 l 0
 1607 -4 1664 40 1667 112 c 1
 1670 169 1643 196 1563 202 c 1
 1490 203 1439 234 1438 300 c 0
 1437 364 1493 394 1562 396 c 0
 1621 398 1637 415 1637 451 c 0
 1637 479 1622 498 1552 498 c 1
 1430 497 l 1
 1427 285 1327 122 1181 37 c 0
 1145 16 1109 1 1074 -8 c 1
EndSplineSet
LCarets2: 1 0
EndChar

StartChar: k1r1
Encoding: 194 -1 127
Width: 1920
GlyphClass: 3
LigCaretCntFixed: 1
Flags: HW
LayerCount: 2
Fore
SplineSet
976 -240 m 2
 969 -240 l 0
 866 -240 802 -269 802 -323 c 0
 802 -379 861 -399 977 -399 c 0
 1094 -399 1149 -379 1149 -326 c 0
 1149 -270 1084 -241 976 -240 c 2
266 292 m 0
 266 226 329 174 404 174 c 0
 495 174 561 231 561 308 c 0
 561 320 l 0
 561 363 539 415 535 468 c 1
 384 452 266 400 266 292 c 0
1267 474 m 1
 724 474 l 1
 730 314 831 173 995 173 c 0
 1162 173 1261 316 1267 474 c 1
1234 666 m 1
 1190 758 1103 828 998 828 c 0
 994 828 l 1
 887 826 802 755 758 666 c 1
 1234 666 l 1
684 120 m 1
 624 37 532 -19 404 -19 c 0
 232 -19 74 116 74 284 c 0
 74 538 317 644 556 660 c 1
 610 850 762 1020 997 1020 c 0
 1233 1020 1386 840 1437 646 c 1
 1662 613 1845 419 1845 175 c 0
 1845 -252 1445 -589 1004 -589 c 0
 990 -589 l 1
 783 -585 611 -520 611 -321 c 0
 611 -126 794 -49 972 -49 c 0
 977 -49 l 1
 1157 -50 1319 -122 1339 -295 c 1
 1498 -204 1654 -38 1654 175 c 0
 1654 313 1572 426 1457 461 c 1
 1445 211 1273 -17 995 -17 c 0
 876 -17 764 37 684 120 c 1
EndSplineSet
LCarets2: 1 0
EndChar

StartChar: k1k1
Encoding: 196 -1 129
Width: 2528
GlyphClass: 3
LigCaretCntFixed: 1
Flags: HW
LayerCount: 2
Fore
SplineSet
1890 1023 m 0
 2177 1023 2454 802 2454 474 c 0
 2454 242 2301 29 2074 -48 c 1
 2065 -51 2053 -54 2042 -54 c 0
 1990 -54 1947 -12 1947 41 c 0
 1947 124 2044 143 2074 159 c 1
 2190 219 2262 350 2262 479 c 0
 2262 690 2074 832 1885 832 c 0
 1715 832 1597 735 1528 616 c 1
 1730 590 1954 489 1954 252 c 0
 1954 94 1828 -51 1641 -51 c 0
 1507 -51 1402 33 1343 124 c 1
 1269 34 1152 -45 1003 -45 c 0
 883 -45 766 8 686 92 c 1
 621 6 522 -47 411 -47 c 0
 220 -47 75 93 75 264 c 0
 75 520 335 611 552 622 c 1
 600 822 758 1019 1003 1019 c 0
 1187 1019 1327 897 1399 766 c 1
 1501 909 1664 1023 1890 1023 c 0
1256 625 m 1
 1219 732 1124 829 1003 829 c 0
 877 829 789 731 751 624 c 1
 1256 625 l 1
732 434 m 1
 749 275 852 146 1007 146 c 0
 1167 146 1258 295 1274 434 c 1
 732 434 l 1
1639 139 m 0
 1711 139 1762 195 1762 259 c 0
 1762 372 1610 421 1466 432 c 1
 1464 413 1463 397 1463 378 c 0
 1463 255 1528 139 1639 139 c 0
267 269 m 0
 267 203 329 143 408 143 c 0
 486 143 565 217 566 290 c 1
 566 292 565 298 565 300 c 1
 551 344 543 388 539 430 c 1
 401 419 267 372 267 269 c 0
EndSplineSet
LCarets2: 2 0 0
EndChar

StartChar: k1k1u1
Encoding: 197 -1 130
Width: 2551
GlyphClass: 3
LigCaretCntFixed: 1
Flags: HW
LayerCount: 2
Fore
SplineSet
1616 167 m 0
 1699 167 1758 216 1758 280 c 0
 1758 398 1627 452 1473 469 c 1
 1462 432 1456 400 1456 369 c 0
 1456 269 1523 167 1616 167 c 0
564 308 m 2
 564 318 l 1
 547 368 538 418 537 469 c 1
 385 454 266 402 266 294 c 0
 266 227 329 174 405 174 c 0
 497 174 564 231 564 308 c 2
1274 476 m 1
 727 476 l 1
 733 315 834 173 998 173 c 0
 1165 173 1267 317 1274 476 c 1
761 668 m 1
 1240 668 l 1
 1198 761 1120 832 1000 832 c 0
 881 832 802 758 761 668 c 1
2159 149 m 0
 2231 149 2288 190 2288 247 c 0
 2288 314 2226 341 2125 341 c 0
 2083 341 l 0
 2033 341 1988 382 1988 434 c 0
 1988 482 2025 524 2070 530 c 1
 2093 534 l 1
 2103 537 2109 535 2109 535 c 0
 2132 535 l 0
 2201 535 2254 592 2254 649 c 0
 2254 766 2107 835 1958 835 c 0
 1779 835 1651 754 1563 648 c 1
 1763 608 1949 486 1949 287 c 0
 1949 112 1815 -22 1628 -22 c 0
 1492 -22 1391 60 1335 145 c 1
 1260 57 1144 -16 1000 -16 c 0
 862 -16 756 49 687 120 c 1
 627 36 533 -19 405 -19 c 0
 231 -19 75 118 75 285 c 0
 75 540 318 646 559 662 c 1
 616 859 782 1021 999 1021 c 0
 1204 1021 1341 896 1409 750 c 1
 1527 902 1714 1024 1954 1024 c 0
 2201 1024 2445 898 2445 641 c 0
 2445 572 2417 509 2371 457 c 1
 2437 408 2476 342 2476 248 c 0
 2476 78 2332 -43 2161 -43 c 0
 2106 -43 2054 -27 2003 2 c 1
 1974 18 1955 46 1955 79 c 0
 1955 129 1990 180 2045 180 c 0
 2066 180 2088 174 2108 162 c 1
 2122 154 2139 149 2159 149 c 0
EndSplineSet
LCarets2: 1 0
EndChar

StartChar: k1k1u2
Encoding: 198 -1 131
Width: 2522
GlyphClass: 3
LigCaretCntFixed: 1
Flags: HW
LayerCount: 2
Fore
SplineSet
2440 -482 m 0
 2440 -522 2406 -577 2359 -577 c 2
 2344 -577 l 1
 450 -573 l 2
 284 -573 192 -545 120 -450 c 0
 33 -333 83 -192 181 -118 c 0
 249 -67 347 -46 474 -48 c 2
 604 -49 l 1
 1855 -40 l 2
 1973 -39 2055 -28 2096 -10 c 0
 2182 28 2231 83 2250 148 c 0
 2279 246 2233 319 2158 344 c 0
 2135 352 2087 359 2025 365 c 0
 1982 367 1939 407 1939 454 c 0
 1939 507 1968 545 2019 553 c 2
 2043 557 l 2
 2053 559 2056 558 2058 558 c 0
 2061 558 2068 559 2073 559 c 0
 2151 566 2203 620 2197 690 c 0
 2190 777 2114 831 2024 858 c 0
 1971 874 1919 878 1859 870 c 0
 1722 852 1613 784 1529 667 c 1
 1638 645 1721 608 1784 549 c 0
 1890 449 1929 335 1892 210 c 0
 1857 94 1758 -5 1610 -12 c 0
 1468 -19 1363 64 1306 152 c 1
 1230 64 1114 -10 967 -5 c 0
 854 -1 757 44 677 127 c 1
 631 66 574 27 501 6 c 0
 345 -39 216 28 144 122 c 0
 93 190 71 265 83 344 c 0
 94 421 126 485 177 536 c 0
 266 624 394 672 550 683 c 1
 570 757 599 821 642 873 c 0
 732 987 846 1048 976 1049 c 0
 1041 1050 1104 1035 1162 1005 c 0
 1258 956 1330 880 1376 781 c 1
 1438 866 1508 930 1592 978 c 0
 1752 1069 1923 1088 2097 1035 c 0
 2168 1013 2231 974 2287 918 c 0
 2346 859 2379 784 2386 695 c 0
 2393 613 2365 538 2310 476 c 1
 2418 400 2482 264 2432 96 c 0
 2384 -69 2241 -178 2072 -213 c 0
 2014 -224 1942 -230 1856 -231 c 2
 605 -240 l 1
 476 -240 l 2
 351 -241 289 -267 271 -299 c 0
 269 -303 267 -304 267 -304 c 2
 267 -304 l 1
 267 -305 l 2
 257 -330 282 -351 316 -367 c 0
 332 -375 380 -382 451 -382 c 2
 2344 -386 l 2
 2396 -386 2440 -429 2440 -482 c 0
1079 835 m 0
 1012 870 948 870 882 834 c 0
 824 803 780 753 752 686 c 1
 1210 687 l 1
 1180 758 1138 805 1079 835 c 0
1244 495 m 1
 718 495 l 1
 724 326 829 191 972 186 c 0
 1062 183 1133 234 1177 291 c 0
 1218 347 1241 415 1244 495 c 1
528 488 m 1
 427 477 361 450 318 408 c 0
 269 361 252 294 297 236 c 0
 319 207 344 192 370 188 c 0
 450 175 500 195 534 251 c 0
 550 278 556 304 554 330 c 1
 538 382 529 435 528 488 c 1
1443 488 m 1
 1407 359 1439 259 1508 208 c 0
 1562 166 1610 165 1663 201 c 0
 1691 219 1707 246 1714 289 c 0
 1719 327 1703 365 1655 410 c 0
 1613 449 1542 477 1443 488 c 1
EndSplineSet
LCarets2: 1 3
EndChar

StartChar: k1k1r1
Encoding: 199 -1 132
Width: 2444
GlyphClass: 3
LigCaretCntFixed: 1
Flags: HW
LayerCount: 2
Fore
SplineSet
1622 -327 m 0
 1603 -292 1551 -268 1454 -267 c 0
 1357 -266 1305 -290 1286 -324 c 1
 1274 -346 1275 -359 1291 -379 c 1
 1315 -407 1385 -427 1507 -421 c 1
 1563 -418 1598 -403 1615 -384 c 0
 1632 -364 1634 -349 1622 -327 c 0
1435 463 m 1
 1406 340 1438 250 1505 204 c 1
 1564 159 1639 165 1682 216 c 1
 1731 269 1710 339 1658 385 c 1
 1611 425 1536 452 1435 463 c 1
524 464 m 1
 423 453 355 429 312 390 c 0
 263 346 248 283 292 230 c 1
 323 193 364 179 407 181 c 1
 482 184 554 239 549 321 c 0
 549 321 l 1
 549 326 l 1
 534 371 526 417 524 464 c 1
715 470 m 1
 724 312 826 187 968 181 c 1
 1058 178 1128 227 1171 281 c 1
 1212 332 1234 396 1238 471 c 1
 1221 471 l 0
 715 470 l 1
1211 663 m 1
 1170 759 1080 834 974 832 c 0
 868 830 782 755 743 662 c 1
 1211 663 l 1
1458 875 m 0
 1637 1044 1893 1076 2103 929 c 1
 2188 873 2254 800 2301 707 c 1
 2379 547 2391 364 2339 157 c 1
 2302 -4 2234 -148 2138 -275 c 0
 2042 -402 1921 -496 1776 -554 c 0
 1675 -594 1574 -615 1473 -613 c 0
 1373 -611 1302 -601 1256 -581 c 1
 1162 -540 1104 -472 1090 -383 c 1
 1072 -247 1157 -159 1237 -111 c 1
 1339 -53 1575 -57 1673 -115 c 1
 1755 -166 1805 -234 1816 -315 c 1
 1980 -208 2100 -31 2155 198 c 0
 2155 199 l 1
 2155 199 l 0
 2175 269 2183 343 2180 421 c 1
 2173 586 2111 704 1995 780 c 1
 1899 847 1800 855 1693 807 c 1
 1617 776 1556 722 1507 647 c 1
 1623 627 1712 586 1776 525 c 1
 1884 431 1923 324 1887 207 c 1
 1853 91 1753 -8 1604 -13 c 1
 1472 -19 1364 60 1303 151 c 1
 1228 62 1109 -14 962 -9 c 0
 849 -5 751 41 672 124 c 1
 626 63 569 24 496 4 c 1
 341 -41 211 26 139 122 c 1
 36 251 69 421 172 518 c 0
 260 601 387 648 543 659 c 1
 562 730 590 788 631 837 c 1
 721 956 836 1020 971 1021 c 1
 1038 1022 1103 1006 1162 975 c 1
 1252 929 1320 860 1366 771 c 1
 1394 811 1424 844 1458 875 c 0
EndSplineSet
LCarets2: 1 0
EndChar

StartChar: k1k1r3
Encoding: 200 -1 133
Width: 2826
GlyphClass: 3
LigCaretCntFixed: 1
Flags: HW
LayerCount: 2
Fore
SplineSet
1802 477 m 1
 1797 450 1796 429 1796 405 c 0
 1796 292 1855 172 1960 172 c 0
 2022 172 2094 240 2094 299 c 0
 2094 411 1953 461 1802 477 c 1
635 309 m 0
 635 243 705 175 768 175 c 0
 849 175 919 242 919 321 c 0
 919 321 918 328 918 333 c 1
 902 381 894 428 892 477 c 1
 747 462 635 412 635 309 c 0
1082 484 m 1
 1088 323 1195 178 1344 178 c 0
 1503 178 1602 329 1609 484 c 1
 1082 484 l 1
1345 831 m 0
 1232 831 1156 760 1116 676 c 1
 1575 676 l 1
 1533 763 1459 831 1345 831 c 0
1728 784 m 1
 1822 915 1969 1018 2180 1018 c 0
 2537 1018 2751 693 2751 370 c 0
 2751 -185 2309 -400 1751 -412 c 0
 1308 -422 l 0
 1264 -423 1223 -423 1185 -423 c 0
 595 -423 75 -187 75 391 c 0
 75 675 246 898 445 1006 c 1
 459 1014 477 1019 497 1019 c 0
 551 1019 587 969 587 919 c 0
 587 885 568 859 537 843 c 1
 390 763 265 600 265 391 c 0
 265 -63 686 -253 1184 -253 c 0
 1221 -253 1262 -253 1305 -252 c 0
 1748 -242 l 0
 2210 -232 2564 -65 2564 366 c 0
 2564 614 2411 829 2174 829 c 0
 2033 829 1928 751 1868 661 c 1
 2078 626 2285 507 2285 302 c 0
 2285 127 2140 -19 1949 -19 c 0
 1828 -19 1729 66 1675 150 c 1
 1602 64 1487 -12 1345 -12 c 0
 1223 -12 1122 35 1041 118 c 1
 983 38 892 -16 768 -16 c 0
 595 -16 444 140 444 303 c 0
 444 552 681 654 914 670 c 1
 966 855 1116 1022 1345 1022 c 0
 1528 1022 1658 911 1728 784 c 1
EndSplineSet
LCarets2: 1 0
EndChar

StartChar: k1th1
Encoding: 206 -1 139
Width: 3312
GlyphClass: 3
LigCaretCntFixed: 1
Flags: HW
LayerCount: 2
Fore
SplineSet
538 466 m 1
 386 450 267 399 267 291 c 0
 267 225 330 171 405 171 c 0
 496 171 564 230 564 307 c 0
 564 308 563 312 563 318 c 0
 563 319 l 0
 563 361 542 412 538 466 c 1
727 473 m 1
 733 313 833 171 998 171 c 0
 1167 171 1269 317 1274 476 c 1
 1252 476 l 1
 727 473 l 1
2398 766 m 1
 2283 696 2193 573 2193 415 c 0
 2193 286 2271 166 2398 166 c 0
 2523 166 2603 285 2603 412 c 0
 2603 572 2515 697 2398 766 c 1
1239 668 m 1
 1195 758 1108 828 1002 828 c 0
 892 828 804 755 760 665 c 1
 1239 668 l 1
3050 482 m 0
 3050 679 2865 832 2645 832 c 0
 2634 832 2620 832 2610 831 c 1
 2727 722 2792 593 2792 410 c 0
 2792 187 2648 -22 2398 -22 c 0
 2152 -22 2003 187 2003 406 c 0
 2003 585 2075 722 2185 827 c 1
 2178 827 2172 828 2165 828 c 0
 1944 828 1776 671 1776 468 c 0
 1776 456 l 0
 1776 313 1885 201 1985 158 c 1
 2017 142 2041 116 2041 79 c 0
 2041 29 2007 -24 1952 -24 c 0
 1934 -24 1917 -20 1904 -13 c 1
 1747 58 1612 212 1588 405 c 1
 1549 430 1508 447 1464 458 c 1
 1451 205 1279 -16 996 -16 c 0
 865 -16 757 49 688 119 c 1
 627 35 533 -21 405 -21 c 0
 227 -21 78 117 78 288 c 0
 78 536 320 644 559 659 c 1
 615 858 784 1018 1003 1018 c 0
 1217 1018 1391 853 1444 657 c 1
 1503 647 1556 630 1605 608 c 1
 1670 837 1889 1018 2165 1018 c 0
 2241 1018 2320 1001 2397 970 c 1
 2482 1005 2564 1021 2645 1021 c 0
 2960 1021 3239 792 3239 481 c 0
 3239 239 3071 48 2878 -13 c 1
 2864 -18 2852 -19 2837 -19 c 0
 2791 -19 2750 27 2750 71 c 0
 2750 117 2777 152 2823 169 c 1
 2944 210 3050 331 3050 482 c 0
EndSplineSet
LCarets2: 1 3
EndChar

StartChar: k1th1u1
Encoding: 207 -1 140
Width: 3268
GlyphClass: 3
LigCaretCntFixed: 1
Flags: HW
LayerCount: 2
Fore
SplineSet
2334 749 m 1
 2227 685 2138 572 2138 417 c 0
 2138 295 2212 182 2333 182 c 0
 2452 182 2532 290 2532 413 c 0
 2532 573 2453 680 2334 749 c 1
1733 458 m 2
 1733 448 l 1
 1736 316 1827 218 1934 172 c 1
 1971 157 1991 122 1991 80 c 0
 1991 34 1947 -10 1902 -10 c 0
 1885 -10 1868 -7 1854 -0 c 1
 1693 69 1566 216 1546 407 c 1
 1510 431 1471 447 1429 458 c 1
 1415 215 1244 -5 974 -5 c 0
 858 -5 750 47 672 127 c 1
 613 46 522 -7 398 -7 c 0
 227 -7 75 128 75 291 c 0
 75 541 313 643 545 659 c 1
 597 845 748 1010 977 1010 c 0
 1210 1010 1359 840 1409 656 c 1
 1467 646 1516 630 1563 609 c 1
 1627 816 1842 997 2111 997 c 0
 2182 997 2260 983 2333 954 c 1
 2409 985 2485 1000 2566 1000 c 0
 2922 1000 3192 727 3192 386 c 0
 3192 -37 2962 -215 2528 -220 c 1
 2025 -227 l 1
 1991 -227 l 0
 1857 -227 1728 -242 1728 -308 c 0
 1728 -361 1836 -379 1944 -379 c 0
 1967 -379 1992 -379 2019 -378 c 1
 3097 -375 l 1
 3112 -375 l 0
 3158 -375 3193 -430 3193 -470 c 0
 3193 -522 3150 -565 3098 -565 c 1
 2020 -568 l 1
 1926 -568 l 0
 1734 -568 1539 -509 1539 -306 c 0
 1539 -89 1755 -37 1968 -37 c 0
 2023 -37 l 1
 2525 -31 l 0
 2855 -27 3002 71 3002 372 c 0
 3002 619 2823 810 2568 810 c 0
 2562 810 2555 810 2550 810 c 1
 2659 705 2722 579 2722 404 c 0
 2722 179 2568 -7 2338 -7 c 0
 2099 -7 1949 186 1949 407 c 0
 1949 579 2010 702 2116 805 c 1
 2114 805 l 0
 1892 805 1735 660 1733 458 c 2
549 314 m 2
 549 323 l 1
 533 370 525 417 524 466 c 1
 379 451 266 401 266 299 c 0
 266 236 326 185 399 185 c 0
 486 185 549 241 549 314 c 2
714 473 m 1
 720 316 825 186 974 186 c 0
 1137 186 1235 322 1240 475 c 1
 1222 475 l 1
 714 473 l 1
747 665 m 1
 1205 667 l 1
 1164 752 1088 819 976 819 c 0
 862 819 786 749 747 665 c 1
EndSplineSet
LCarets2: 1 0
EndChar

StartChar: k1th1u2
Encoding: 208 -1 141
Width: 3449
GlyphClass: 3
LigCaretCntFixed: 1
Flags: HW
LayerCount: 2
Fore
SplineSet
406 172 m 0
 482 172 550 224 550 296 c 1
 550 297 549 303 549 305 c 1
 533 354 525 403 524 454 c 1
 380 439 266 390 266 287 c 0
 266 221 327 172 406 172 c 0
974 174 m 0
 1136 174 1234 309 1240 464 c 1
 714 462 l 1
 720 303 825 174 974 174 c 0
2495 178 m 0
 2614 178 2693 286 2693 406 c 0
 2693 544 2590 663 2498 726 c 1
 2380 660 2287 555 2287 412 c 0
 2287 286 2376 178 2495 178 c 0
1205 657 m 1
 1161 748 1074 833 977 833 c 0
 878 833 791 746 747 654 c 1
 1205 657 l 1
2095 -30 m 1
 2704 -33 l 1
 2973 -31 3178 29 3178 193 c 0
 3178 266 3119 329 3049 329 c 0
 3007 329 2947 355 2947 414 c 0
 2947 472 2980 517 3034 519 c 1
 3102 521 3159 572 3159 632 c 0
 3159 745 3022 832 2873 832 c 0
 2811 832 2747 825 2699 816 c 1
 2821 697 2883 544 2883 384 c 0
 2883 184 2726 -13 2494 -13 c 0
 2250 -13 2096 194 2096 403 c 0
 2096 581 2192 733 2300 826 c 1
 2263 834 2227 838 2191 838 c 0
 1958 838 1772 683 1772 464 c 0
 1772 304 1882 168 2033 146 c 1
 2094 138 2139 107 2139 51 c 0
 2139 21 2121 -12 2095 -30 c 1
1945 -28 m 1
 1757 24 1625 199 1591 364 c 1
 1551 416 1498 432 1429 447 c 1
 1415 203 1246 -17 974 -17 c 0
 858 -17 750 34 672 110 c 1
 613 33 522 -19 398 -19 c 0
 223 -19 77 118 77 285 c 0
 77 527 314 630 545 647 c 1
 601 853 747 1023 979 1023 c 0
 1207 1023 1354 847 1409 645 c 1
 1478 634 1539 613 1595 583 c 1
 1656 844 1885 1026 2192 1026 c 0
 2301 1026 2413 999 2508 952 c 1
 2615 995 2736 1022 2876 1022 c 0
 3118 1022 3348 899 3348 645 c 0
 3348 560 3319 486 3266 430 c 1
 3327 374 3369 296 3369 199 c 0
 3369 -143 3003 -222 2658 -222 c 0
 2514 -222 l 1
 1985 -219 l 1
 1973 -219 l 0
 1841 -219 1757 -227 1757 -277 c 0
 1757 -315 1835 -332 1967 -332 c 0
 1984 -332 l 0
 2004 -332 2018 -332 2024 -331 c 0
 2025 -331 l 1
 3278 -328 l 1
 3294 -328 l 0
 3341 -328 3375 -383 3375 -423 c 0
 3375 -475 3332 -518 3280 -518 c 0
 3279 -518 l 1
 2027 -521 l 1
 1915 -522 l 1
 1737 -519 1567 -455 1567 -277 c 0
 1567 -96 1745 -28 1925 -28 c 0
 1931 -28 1938 -28 1945 -28 c 1
EndSplineSet
LCarets2: 1 0
EndChar

StartChar: k1th1r1
Encoding: 209 -1 142
Width: 3174
GlyphClass: 3
LigCaretCntFixed: 1
Flags: HW
LayerCount: 2
Fore
SplineSet
409 -55 m 0
 227 -55 75 93 75 273 c 0
 75 536 325 641 558 652 c 1
 606 837 752 1022 989 1022 c 0
 1228 1022 1371 835 1420 653 c 1
 1449 650 1473 643 1496 634 c 1
 1570 850 1773 1017 2035 1017 c 0
 2113 1017 2192 1000 2263 971 c 1
 2339 1003 2409 1016 2479 1016 c 0
 2863 1016 3100 674 3100 301 c 0
 3100 -185 2739 -600 2225 -600 c 0
 2052 -600 1840 -549 1840 -343 c 0
 1840 -153 2036 -80 2197 -80 c 0
 2208 -80 l 1
 2362 -82 2548 -143 2568 -318 c 1
 2756 -199 2909 36 2909 302 c 0
 2909 575 2748 826 2487 826 c 0
 2483 826 2477 826 2474 826 c 1
 2586 712 2656 564 2656 379 c 0
 2656 156 2514 -61 2271 -61 c 0
 2025 -61 1884 160 1884 384 c 0
 1884 565 1950 713 2058 826 c 1
 2049 826 2041 827 2033 827 c 0
 1824 827 1657 660 1657 456 c 0
 1657 297 1761 169 1884 118 c 1
 1917 104 1943 68 1943 30 c 0
 1943 -22 1900 -65 1848 -65 c 0
 1834 -65 1820 -60 1810 -57 c 0
 1810 -57 l 1
 1809 -57 l 0
 1635 16 1493 182 1469 396 c 1
 1463 427 1455 441 1442 450 c 1
 1433 194 1273 -61 989 -61 c 0
 858 -61 750 5 680 78 c 1
 617 -2 517 -55 409 -55 c 0
1218 656 m 1
 1178 752 1106 832 989 832 c 0
 986 832 l 1
 872 831 795 747 758 654 c 1
 1218 656 l 1
2264 759 m 1
 2151 682 2074 549 2074 392 c 0
 2074 256 2144 129 2271 129 c 0
 2394 129 2465 253 2465 386 c 0
 2465 548 2378 684 2264 759 c 1
1252 466 m 1
 726 464 l 1
 727 423 733 383 743 347 c 1
 747 339 748 330 748 329 c 1
 783 225 863 129 989 129 c 0
 1156 129 1250 294 1252 466 c 1
411 136 m 0
 492 136 561 203 561 285 c 0
 561 291 l 1
 545 349 537 404 536 460 c 1
 387 448 266 398 266 272 c 0
 266 197 334 136 411 136 c 0
2244 -409 m 2
 2321 -407 2380 -387 2380 -346 c 0
 2380 -291 2296 -270 2199 -270 c 0
 2109 -270 2030 -293 2030 -343 c 0
 2030 -399 2131 -409 2240 -409 c 0
 2244 -409 l 2
EndSplineSet
LCarets2: 1 0
EndChar

StartChar: k1r3
Encoding: 210 -1 143
Width: 2185
GlyphClass: 3
Flags: HW
LayerCount: 2
Fore
SplineSet
736 182 m 0
 817 182 879 244 879 313 c 0
 879 317 879 325 879 326 c 1
 862 379 853 432 852 489 c 1
 706 472 593 418 593 309 c 0
 593 237 657 182 736 182 c 0
1569 499 m 1
 1042 496 l 1
 1045 328 1137 177 1303 177 c 0
 1471 177 1565 331 1569 499 c 1
1305 860 m 0
 1186 860 1109 781 1072 689 c 1
 1539 691 l 1
 1499 785 1423 860 1305 860 c 0
1000 123 m 1
 939 46 838 -9 729 -9 c 0
 542 -9 404 146 404 300 c 0
 404 550 638 659 873 677 c 1
 921 869 1061 1049 1305 1049 c 0
 1547 1049 1692 863 1739 663 c 1
 1958 622 2110 451 2110 195 c 0
 2110 -212 1770 -356 1382 -370 c 1
 1110 -378 l 1
 1058 -379 1013 -380 973 -380 c 0
 473 -380 75 -103 75 381 c 0
 75 665 248 897 444 1011 c 1
 460 1021 479 1024 498 1024 c 0
 552 1024 588 975 588 925 c 0
 588 892 568 866 540 850 c 1
 395 766 266 585 266 388 c 0
 266 -14 590 -190 1014 -190 c 0
 1043 -190 1074 -190 1106 -189 c 0
 1376 -180 l 0
 1681 -170 1922 -81 1922 203 c 0
 1922 346 1849 440 1758 478 c 1
 1746 222 1582 -11 1299 -11 c 0
 1171 -11 1065 56 1000 123 c 1
EndSplineSet
LCarets2: 1 0
EndChar

StartChar: k1sh
Encoding: 216 -1 149
Width: 2913
GlyphClass: 3
LigCaretCntFixed: 1
Flags: HW
LayerCount: 2
Fore
SplineSet
407 170 m 0
 481 170 550 231 550 304 c 1
 550 305 549 311 549 313 c 1
 533 363 525 412 524 463 c 1
 380 448 266 397 266 295 c 0
 266 227 332 170 407 170 c 0
714 470 m 1
 720 310 826 172 974 172 c 0
 1136 172 1234 317 1240 472 c 1
 1160 472 799 470 714 470 c 1
2648 545 m 1
 2573 466 2484 407 2382 368 c 1
 2380 190 l 1
 2648 190 l 1
 2648 545 l 1
1204 665 m 1
 1154 765 1063 820 976 820 c 0
 887 820 795 762 747 662 c 1
 1204 665 l 1
2064 831 m 0
 1980 831 1911 759 1911 685 c 0
 1911 588 2015 512 2140 512 c 0
 2156 512 2176 514 2193 516 c 1
 2195 679 l 1
 2195 788 2160 831 2064 831 c 0
1537 0 m 2
 1481 0 1442 44 1442 95 c 0
 1442 125 1459 151 1489 167 c 1
 1538 191 1567 239 1567 290 c 0
 1567 370 1506 424 1429 451 c 1
 1414 210 1245 -20 975 -20 c 0
 859 -20 751 32 672 112 c 1
 616 33 527 -21 406 -21 c 0
 229 -21 75 118 75 288 c 0
 75 537 311 641 545 657 c 1
 600 849 764 1022 979 1022 c 0
 1190 1022 1356 846 1409 656 c 1
 1597 622 1758 500 1758 301 c 0
 1758 264 1751 225 1737 190 c 1
 2190 190 l 1
 2192 325 l 1
 2177 324 2163 323 2149 323 c 0
 1925 323 1719 464 1719 683 c 0
 1719 873 1880 1021 2067 1021 c 0
 2278 1021 2385 880 2385 678 c 1
 2383 578 l 1
 2517 651 2619 792 2649 955 c 1
 2656 999 2699 1032 2746 1032 c 0
 2797 1032 2838 990 2838 942 c 0
 2838 90 l 0
 2838 40 2795 0 2743 0 c 0
 1537 0 l 2
EndSplineSet
LCarets2: 2 0 0
EndChar

StartChar: k3u1
Encoding: 222 -1 155
Width: 1804
GlyphClass: 3
Flags: HW
LayerCount: 2
Fore
SplineSet
422 -216 m 2
 318 -216 267 -242 267 -298 c 0
 267 -342 305 -377 436 -377 c 0
 1634 -378 l 0
 1686 -378 1729 -421 1729 -473 c 0
 1729 -513 1694 -568 1648 -568 c 0
 440 -567 l 0
 245 -567 77 -497 77 -295 c 0
 77 -100 246 -26 420 -26 c 0
 445 -26 l 1
 897 -33 l 1
 916 -33 935 -34 952 -34 c 0
 1303 -34 1540 108 1540 430 c 0
 1540 639 1424 830 1217 830 c 0
 1056 830 992 722 992 537 c 0
 992 450 l 0
 992 182 866 -20 577 -20 c 0
 286 -20 75 220 75 477 c 0
 75 744 242 935 446 1015 c 1
 460 1022 474 1023 490 1023 c 0
 535 1023 578 979 578 933 c 0
 578 890 552 853 518 840 c 1
 379 787 265 660 265 483 c 0
 265 323 401 168 577 168 c 0
 749 168 800 277 802 456 c 1
 802 543 l 0
 802 816 928 1021 1222 1021 c 0
 1543 1021 1730 723 1730 433 c 0
 1730 -11 1401 -223 940 -223 c 0
 894 -223 l 1
 443 -216 l 1
 422 -216 l 2
EndSplineSet
LCarets2: 1 0
EndChar

StartChar: k3u2
Encoding: 223 -1 156
Width: 1759
GlyphClass: 3
Flags: HW
LayerCount: 2
Fore
SplineSet
1249 1021 m 0
 1460 1021 1647 864 1647 658 c 0
 1647 570 1609 489 1555 431 c 1
 1629 374 1682 287 1682 171 c 0
 1682 -105 1448 -212 1174 -215 c 1
 1137 -215 990 -214 955 -214 c 0
 451 -214 l 0
 330 -214 265 -238 265 -303 c 0
 265 -364 329 -388 442 -388 c 0
 1589 -388 l 0
 1641 -388 1684 -431 1684 -483 c 0
 1684 -535 1641 -578 1589 -578 c 0
 441 -578 l 0
 259 -578 75 -509 75 -302 c 0
 75 -90 262 -24 451 -24 c 0
 955 -24 l 0
 1007 -24 1093 -25 1164 -25 c 0
 1329 -25 1504 101 1504 194 c 0
 1504 231 1479 272 1394 305 c 1
 1369 315 1359 315 1344 315 c 0
 1336 315 1324 314 1309 314 c 0
 1259 314 1223 362 1223 401 c 0
 1223 459 1259 501 1315 506 c 1
 1392 513 1458 580 1458 653 c 0
 1458 753 1353 830 1232 830 c 0
 1060 830 995 728 995 541 c 0
 995 454 l 0
 995 199 871 -7 595 -7 c 0
 278 -7 78 224 79 532 c 1
 79 760 256 944 436 1015 c 1
 450 1022 464 1023 481 1023 c 0
 526 1023 569 979 569 933 c 0
 569 890 543 853 510 840 c 1
 381 790 269 667 269 504 c 0
 269 330 406 184 586 184 c 0
 744 184 805 288 805 465 c 0
 805 552 l 0
 805 836 942 1021 1249 1021 c 0
EndSplineSet
LCarets2: 1 0
EndChar

StartChar: k3r1
Encoding: 224 -1 157
Width: 1831
GlyphClass: 3
Flags: HW
LayerCount: 2
Fore
SplineSet
653 -317 m 0
 653 -378 725 -393 860 -393 c 0
 948 -393 1001 -367 1001 -320 c 0
 1001 -273 925 -231 822 -231 c 0
 722 -231 653 -271 653 -317 c 0
497 1017 m 0
 543 1017 584 968 584 925 c 0
 584 880 554 845 520 832 c 1
 382 786 267 664 267 500 c 0
 267 323 399 169 593 169 c 0
 752 169 819 269 819 447 c 0
 819 533 l 1
 821 801 939 1018 1230 1018 c 0
 1572 1018 1756 702 1756 385 c 0
 1756 -135 1361 -583 839 -583 c 0
 636 -583 462 -513 462 -315 c 0
 462 -124 637 -44 819 -44 c 0
 1000 -44 1168 -113 1190 -285 c 1
 1384 -164 1567 93 1567 379 c 0
 1567 621 1445 828 1229 828 c 0
 1062 828 1009 710 1009 528 c 0
 1009 441 l 0
 1009 172 880 -20 589 -20 c 0
 294 -20 75 218 75 485 c 0
 75 712 250 1017 497 1017 c 0
EndSplineSet
LCarets2: 1 0
EndChar

StartChar: k3k3
Encoding: 225 -1 158
Width: 1819
GlyphClass: 3
LigCaretCntFixed: 1
Flags: HW
LayerCount: 2
Fore
SplineSet
697 -384 m 0
 697 -494 788 -592 896 -592 c 0
 990 -592 1027 -531 1027 -402 c 0
 1027 -338 l 0
 1027 -133 1134 14 1338 14 c 0
 1548 14 1702 -168 1702 -359 c 0
 1702 -563 1573 -711 1410 -759 c 1
 1403 -761 1393 -764 1382 -764 c 0
 1337 -764 1301 -724 1301 -686 c 0
 1301 -642 1322 -606 1363 -595 c 1
 1453 -569 1532 -478 1532 -372 c 0
 1532 -249 1451 -159 1333 -159 c 0
 1236 -159 1197 -221 1197 -340 c 0
 1197 -404 l 0
 1197 -610 1096 -764 894 -764 c 0
 691 -764 527 -588 527 -390 c 0
 527 -194 640 -55 781 5 c 0
 782 5 l 1
 782 5 l 0
 792 8 806 12 821 12 c 0
 863 12 900 -29 900 -69 c 0
 900 -107 882 -138 847 -154 c 1
 763 -189 697 -269 697 -384 c 0
EndSplineSet
Refer: 59 3351 S 1 0 0 1 0 8 2
LCarets2: 2 0 0
EndChar

StartChar: k3k3u1
Encoding: 226 -1 159
Width: 1819
GlyphClass: 3
LigCaretCntFixed: 1
Flags: HW
LayerCount: 2
Fore
SplineSet
1094 -739 m 1
 1194 -739 l 0
 1324 -739 1391 -730 1463 -674 c 1
 1538 -616 1575 -538 1575 -433 c 0
 1575 -298 1493 -163 1380 -163 c 0
 1267 -163 1237 -224 1237 -357 c 0
 1237 -420 l 0
 1237 -560 1190 -679 1094 -739 c 1
775 -742 m 1
 651 -678 567 -548 567 -405 c 0
 567 -199 684 -59 834 5 c 1
 845 10 857 12 868 12 c 0
 916 12 952 -28 952 -70 c 0
 952 -109 934 -141 899 -156 c 0
 810 -193 737 -279 737 -401 c 0
 737 -513 825 -612 932 -612 c 0
 1021 -612 1067 -559 1067 -419 c 0
 1067 -356 l 0
 1067 -149 1167 10 1370 10 c 0
 1608 10 1745 -206 1745 -430 c 0
 1745 -758 1501 -916 1182 -916 c 0
 832 -916 l 0
 749 -916 738 -930 738 -942 c 0
 738 -951 751 -970 838 -970 c 0
 1634 -970 l 0
 1698 -970 1744 -1000 1744 -1062 c 0
 1744 -1122 1696 -1151 1632 -1151 c 0
 811 -1151 l 0
 697 -1151 568 -1074 568 -936 c 0
 568 -813 668 -755 775 -742 c 1
EndSplineSet
Refer: 59 3351 N 1 0 0 1 0 0 2
LCarets2: 1 0
EndChar

StartChar: k3k3u2
Encoding: 227 -1 160
Width: 1819
GlyphClass: 3
LigCaretCntFixed: 1
Flags: HW
LayerCount: 2
Fore
SplineSet
1096 -744 m 1
 1395 -744 l 1
 1500 -743 1572 -701 1572 -624 c 0
 1572 -581 1537 -537 1488 -537 c 0
 1482 -537 1473 -538 1461 -538 c 0
 1423 -538 1384 -501 1384 -458 c 0
 1384 -414 1411 -372 1456 -367 c 1
 1514 -362 1547 -317 1547 -270 c 0
 1547 -209 1484 -155 1405 -155 c 0
 1298 -155 1260 -223 1260 -352 c 0
 1260 -416 l 0
 1260 -566 1206 -689 1096 -744 c 1
820 -746 m 1
 681 -687 584 -546 584 -391 c 1
 585 -194 699 -50 845 11 c 1
 856 16 870 18 884 18 c 0
 924 18 963 -22 963 -63 c 0
 963 -102 944 -134 910 -147 c 1
 822 -184 753 -268 753 -390 c 0
 753 -504 844 -605 955 -605 c 0
 1045 -605 1091 -553 1091 -415 c 0
 1091 -351 l 0
 1091 -140 1198 16 1405 16 c 0
 1577 16 1720 -122 1720 -275 c 0
 1720 -330 1700 -386 1660 -436 c 1
 1713 -486 1741 -557 1741 -628 c 0
 1741 -824 1562 -915 1368 -915 c 0
 862 -915 l 0
 769 -915 750 -935 750 -953 c 0
 750 -967 765 -987 855 -987 c 0
 1658 -987 l 0
 1696 -987 1743 -1029 1743 -1072 c 0
 1743 -1107 1716 -1159 1671 -1159 c 0
 855 -1159 l 0
 707 -1159 581 -1089 581 -955 c 0
 581 -821 686 -756 820 -746 c 1
EndSplineSet
Refer: 59 3351 N 1 0 0 1 0 0 2
LCarets2: 1 0
EndChar

StartChar: k3k3r1
Encoding: 228 -1 161
Width: 1818
GlyphClass: 3
LigCaretCntFixed: 1
Flags: HW
LayerCount: 2
Fore
SplineSet
1250 -847 m 1
 1247 -840 1222 -828 1173 -828 c 0
 1115 -828 1098 -840 1097 -845 c 1
 1105 -851 1132 -858 1153 -858 c 0
 1192 -858 l 0
 1223 -858 1243 -851 1250 -847 c 1
1192 -660 m 1
 1293 -665 1373 -705 1406 -783 c 1
 1498 -710 1590 -568 1590 -417 c 0
 1590 -287 1525 -169 1416 -169 c 0
 1347 -169 1311 -213 1311 -327 c 0
 1311 -387 l 1
 1310 -506 1271 -605 1192 -660 c 1
1000 -705 m 1
 828 -689 696 -534 696 -355 c 0
 696 -186 807 -50 941 -2 c 0
 942 -1 l 1
 944 -1 l 0
 945 -1 966 3 974 3 c 0
 1009 3 1055 -26 1055 -73 c 0
 1055 -74 l 0
 1055 -115 1037 -151 999 -165 c 1
 929 -191 864 -271 864 -353 c 0
 864 -457 940 -536 1035 -536 c 0
 1112 -536 1138 -488 1141 -385 c 1
 1141 -330 l 0
 1141 -146 1223 4 1416 4 c 0
 1638 4 1759 -213 1759 -413 c 0
 1759 -747 1503 -1030 1182 -1030 c 0
 1052 -1030 926 -983 926 -842 c 0
 926 -780 957 -734 1000 -705 c 1
EndSplineSet
Refer: 59 3351 N 1 0 0 1 0 0 2
LCarets2: 1 0
EndChar

StartChar: k3th3
Encoding: 229 -1 162
Width: 1736
GlyphClass: 3
LigCaretCntFixed: 1
Flags: HW
LayerCount: 2
Fore
SplineSet
1472 272 m 0
 1472 337 1412 363 1303 366 c 1
 1270 366 l 0
 1218 366 1176 410 1176 460 c 0
 1176 506 1209 556 1260 556 c 0
 1283 556 1298 560 1326 560 c 0
 1392 560 1442 615 1442 673 c 0
 1442 776 1321 831 1200 831 c 0
 1016 831 947 739 945 548 c 1
 945 427 l 1
 942 173 823 -55 550 -55 c 0
 271 -55 75 210 75 461 c 0
 75 720 228 926 414 1014 c 1
 428 1021 445 1025 463 1025 c 0
 507 1025 551 981 551 938 c 0
 551 896 533 861 496 843 c 1
 374 787 266 642 266 473 c 0
 266 315 382 136 538 136 c 0
 695 136 750 253 752 430 c 1
 752 550 l 1
 757 832 905 1023 1192 1023 c 0
 1414 1023 1632 905 1632 675 c 0
 1632 603 1605 534 1560 481 c 1
 1627 428 1661 359 1661 273 c 0
 1661 80 1488 -44 1299 -44 c 0
 1233 -44 1071 -27 1071 87 c 0
 1071 133 1114 176 1160 176 c 0
 1213 176 1261 145 1297 145 c 0
 1388 145 1472 203 1472 272 c 0
EndSplineSet
LCarets2: 2 0 0
EndChar

StartChar: k3th3r1
Encoding: 232 -1 165
Width: 1817
GlyphClass: 3
LigCaretCntFixed: 1
Flags: HW
LayerCount: 2
Fore
SplineSet
943 -189 m 0
 943 -269 1068 -317 1176 -317 c 0
 1196 -317 1218 -315 1237 -312 c 1
 1120 -196 1042 -145 999 -145 c 0
 958 -145 943 -167 943 -189 c 0
1198 832 m 0
 1016 832 945 740 945 554 c 0
 945 440 l 1
 943 195 821 -21 552 -21 c 0
 272 -21 75 229 75 475 c 0
 75 729 224 926 410 1013 c 1
 425 1020 442 1023 459 1023 c 0
 504 1023 547 979 547 934 c 0
 547 894 530 860 493 842 c 1
 372 787 267 643 267 491 c 0
 267 318 384 170 553 170 c 0
 690 170 750 281 753 443 c 1
 753 565 l 1
 758 836 905 1023 1190 1023 c 0
 1413 1023 1632 906 1632 681 c 0
 1632 598 1596 519 1539 465 c 1
 1660 373 1745 231 1745 41 c 0
 1745 -266 1485 -508 1172 -508 c 0
 1170 -508 l 1
 992 -478 l 1
 991 -477 l 0
 867 -435 753 -343 753 -195 c 0
 753 -44 872 47 1006 47 c 0
 1056 47 1104 33 1151 7 c 1
 1230 -39 1325 -115 1425 -211 c 1
 1512 -140 1553 -56 1553 56 c 0
 1553 222 1431 348 1284 376 c 1
 1237 381 1176 404 1176 472 c 0
 1176 522 1211 571 1271 571 c 0
 1281 571 1310 567 1323 567 c 0
 1384 567 1443 613 1443 675 c 0
 1443 776 1322 832 1198 832 c 0
EndSplineSet
LCarets2: 1 0
EndChar

StartChar: k3th3th4
Encoding: 233 -1 166
Width: 2954
GlyphClass: 3
LigCaretCntFixed: 1
Flags: HW
LayerCount: 2
Fore
SplineSet
1115 70 m 1
 1112 71 1112 71 1112 71 c 1
 1078 86 1066 126 1066 156 c 0
 1066 199 1109 243 1154 243 c 0
 1171 243 1185 241 1195 237 c 1
 1236 222 1276 215 1316 215 c 0
 1393 215 1477 249 1477 293 c 0
 1477 336 1403 357 1304 359 c 1
 1271 359 l 1
 1221 360 1179 401 1179 452 c 0
 1179 500 1214 544 1258 551 c 0
 1259 551 l 1
 1288 551 l 1
 1395 567 1445 598 1445 666 c 0
 1445 750 1339 827 1233 827 c 0
 1023 827 965 680 948 469 c 1
 929 217 817 -21 524 -21 c 0
 239 -21 75 224 75 472 c 0
 75 706 190 885 342 992 c 1
 358 1004 378 1011 401 1011 c 0
 455 1011 494 966 494 917 c 0
 494 889 479 865 455 848 c 1
 355 778 264 639 264 485 c 0
 264 312 375 169 526 169 c 0
 693 169 740 299 754 481 c 0
 776 767 909 1018 1220 1018 c 0
 1434 1018 1635 879 1635 669 c 0
 1635 599 1608 532 1563 482 c 1
 1619 443 1666 381 1666 296 c 0
 1666 264 1659 234 1646 208 c 1
 1762 251 1855 336 1855 446 c 0
 1855 910 l 0
 1855 959 1901 999 1951 999 c 0
 2002 999 2047 958 2047 908 c 0
 2047 436 l 1
 2066 294 2202 179 2362 179 c 0
 2550 179 2688 313 2688 491 c 0
 2688 670 2531 831 2346 831 c 0
 2320 831 2294 824 2257 824 c 0
 2209 824 2174 877 2174 918 c 0
 2174 961 2205 1021 2258 1021 c 0
 2618 1021 2880 834 2880 496 c 0
 2880 192 2634 -13 2359 -13 c 0
 2183 -13 2031 83 1944 206 c 1
 1845 75 1687 -15 1460 -15 c 0
 1350 -15 1237 12 1124 65 c 1
 1117 68 l 1
 1115 70 l 1
EndSplineSet
LCarets2: 4 1 2979 0 0
EndChar

StartChar: k3n1
Encoding: 236 -1 169
Width: 2397
GlyphClass: 3
LigCaretCntFixed: 1
Flags: HW
LayerCount: 2
Fore
SplineSet
1802 861 m 0
 1650 861 1550 766 1521 636 c 1
 1521 36 l 0
 1521 -13 1480 -57 1431 -57 c 0
 1373 -57 1331 -19 1331 36 c 0
 1331 524 l 1
 1330 673 1295 769 1234 821 c 1
 1203 848 1174 857 1143 857 c 0
 1050 857 982 766 982 661 c 0
 982 612 1015 437 1015 355 c 0
 1015 114 827 -62 585 -62 c 0
 275 -62 75 209 75 495 c 0
 75 738 197 926 343 1036 c 0
 343 1036 l 1
 344 1036 l 0
 361 1047 379 1055 399 1055 c 0
 456 1055 496 1010 496 961 c 0
 496 928 482 901 457 882 c 1
 355 806 266 672 266 509 c 0
 266 309 385 130 585 130 c 0
 723 130 825 222 825 361 c 0
 825 471 791 586 791 665 c 0
 791 856 936 1050 1138 1050 c 0
 1282 1050 1380 965 1437 874 c 1
 1518 985 1638 1054 1803 1054 c 0
 2100 1054 2322 802 2322 512 c 0
 2322 235 2141 38 1922 -30 c 1
 1866 -47 1811 -56 1754 -56 c 0
 1691 -56 1606 -44 1606 45 c 0
 1606 87 1641 139 1689 139 c 0
 1712 139 l 1
 1713 139 l 0
 1726 137 1740 137 1755 137 c 0
 1970 137 2132 296 2132 506 c 0
 2132 691 1999 861 1802 861 c 0
EndSplineSet
LCarets2: 2 0 2
EndChar

StartChar: k3n1u1
Encoding: 237 -1 170
Width: 2504
GlyphClass: 3
LigCaretCntFixed: 1
Flags: HW
LayerCount: 2
Fore
SplineSet
2048 460 m 0
 1956 460 1877 393 1877 297 c 0
 1877 212 1950 134 2042 134 c 0
 2126 134 2203 207 2203 297 c 0
 2203 373 2144 460 2048 460 c 0
2181 621 m 1
 2112 755 1989 859 1812 859 c 0
 1711 859 1634 823 1576 750 c 1
 1513 669 1502 596 1502 437 c 0
 1502 40 l 1
 1501 -19 1461 -52 1400 -53 c 1
 1351 -53 1312 -5 1312 40 c 0
 1312 503 l 1
 1311 661 1277 765 1217 821 c 1
 1185 851 1155 863 1123 863 c 0
 1015 863 967 773 967 626 c 0
 967 615 967 604 968 594 c 0
 968 594 l 1
 968 593 l 0
 968 591 969 585 971 576 c 0
 972 575 l 1
 972 574 l 0
 987 484 995 410 995 352 c 0
 995 127 813 -45 602 -52 c 1
 584 -52 l 0
 294 -52 75 197 75 495 c 0
 75 740 214 938 374 1042 c 1
 390 1052 408 1058 430 1058 c 0
 485 1058 521 1008 521 958 c 0
 521 925 503 898 476 882 c 1
 367 812 265 672 265 499 c 0
 265 300 380 140 572 140 c 0
 706 140 807 237 807 364 c 0
 807 413 774 588 774 618 c 0
 774 634 l 0
 774 855 904 1053 1120 1053 c 0
 1255 1053 1364 964 1423 863 c 1
 1510 979 1643 1052 1819 1052 c 0
 2128 1052 2342 805 2408 557 c 1
 2422 501 2429 447 2429 395 c 0
 2429 162 2284 -56 2041 -56 c 0
 1839 -56 1687 101 1687 303 c 0
 1687 500 1850 651 2047 651 c 0
 2094 651 2140 640 2181 621 c 1
EndSplineSet
LCarets2: 1 0
EndChar

StartChar: k3n1u2
Encoding: 238 -1 171
Width: 2723
GlyphClass: 3
LigCaretCntFixed: 1
Flags: HW
LayerCount: 2
Fore
SplineSet
2032 123 m 0
 2140 123 2211 231 2211 358 c 0
 2211 380 2209 405 2205 430 c 1
 2171 440 2142 443 2113 443 c 0
 1991 443 1893 364 1893 266 c 0
 1893 186 1958 123 2032 123 c 0
1806 834 m 0
 1643 834 1535 736 1504 598 c 1
 1504 32 l 0
 1504 -19 1461 -62 1409 -62 c 0
 1357 -62 1314 -20 1314 30 c 0
 1314 477 l 0
 1314 637 1280 740 1220 794 c 1
 1188 822 1155 833 1124 833 c 0
 1032 833 965 746 965 643 c 0
 965 595 997 427 997 347 c 0
 997 115 814 -58 581 -58 c 0
 298 -58 75 183 75 472 c 0
 75 723 213 910 376 1013 c 1
 391 1022 409 1028 431 1028 c 0
 486 1028 522 980 522 930 c 0
 522 899 504 872 477 856 c 1
 368 788 267 652 267 489 c 0
 267 291 392 132 580 132 c 0
 712 132 807 225 807 355 c 0
 807 464 774 573 774 651 c 0
 774 838 920 1023 1117 1023 c 0
 1255 1023 1362 938 1423 838 c 1
 1506 949 1634 1024 1800 1024 c 0
 2097 1024 2292 797 2367 566 c 1
 2526 483 2648 329 2648 107 c 1
 2647 -181 2417 -406 2125 -406 c 0
 2022 -406 1920 -377 1835 -320 c 1
 1809 -303 1792 -277 1792 -246 c 0
 1792 -196 1828 -147 1883 -147 c 0
 1905 -147 1924 -153 1941 -163 c 1
 1999 -200 2061 -216 2121 -216 c 0
 2297 -216 2457 -74 2457 90 c 0
 2457 95 l 0
 2457 175 2436 241 2398 296 c 1
 2375 112 2249 -65 2042 -65 c 0
 1860 -65 1702 74 1702 260 c 0
 1702 480 1886 631 2113 631 c 0
 2119 631 2125 631 2131 631 c 1
 2065 735 1948 834 1806 834 c 0
EndSplineSet
LCarets2: 1 0
EndChar

StartChar: k3m1
Encoding: 239 -1 172
Width: 2009
GlyphClass: 3
LigCaretCntFixed: 1
Flags: HW
LayerCount: 2
Fore
SplineSet
1583 653 m 0
 1583 462 1457 293 1335 185 c 1
 1743 185 l 1
 1743 506 l 0
 1743 622 1663 716 1562 772 c 1
 1576 732 1583 694 1583 653 c 0
1305 1026 m 0
 1615 1026 1934 843 1934 566 c 0
 1934 85 l 0
 1934 34 1889 -5 1838 -5 c 0
 1019 -5 l 0
 963 -5 924 42 924 91 c 0
 924 133 954 170 991 184 c 1
 1139 240 1273 355 1341 483 c 0
 1375 548 1391 600 1391 633 c 0
 1391 637 l 0
 1391 750 1340 822 1235 822 c 0
 1076 822 1024 682 1014 510 c 1
 1014 462 l 1
 1014 462 l 0
 1007 318 985 229 909 137 c 1
 840 49 723 -22 577 -22 c 0
 284 -22 75 223 75 498 c 0
 75 739 225 924 400 1013 c 1
 416 1022 431 1025 446 1025 c 0
 495 1025 541 989 541 937 c 0
 541 898 519 868 489 854 c 1
 369 793 265 668 265 503 c 0
 265 324 397 168 578 168 c 0
 750 168 812 289 822 469 c 1
 822 519 l 1
 822 520 l 0
 831 693 865 802 968 900 c 0
 1057 984 1170 1026 1305 1026 c 0
EndSplineSet
LCarets2: 2 0 0
EndChar

StartChar: k3r3
Encoding: 242 -1 175
Width: 2273
GlyphClass: 3
Flags: HW
LayerCount: 2
Fore
SplineSet
1259 560 m 2
 1259 827 1389 1023 1681 1023 c 0
 1840 1023 1981 925 2054 831 c 1
 2149 720 2197 584 2198 426 c 1
 2198 4 1927 -271 1572 -340 c 0
 1497 -354 1397 -361 1267 -361 c 0
 1095 -361 l 1
 818 -360 668 -338 475 -235 c 1
 261 -121 75 137 75 441 c 0
 75 680 179 867 310 996 c 1
 329 1015 352 1024 378 1024 c 0
 431 1024 473 985 473 934 c 0
 473 909 463 886 444 869 c 1
 347 779 265 630 265 460 c 0
 265 325 302 233 373 137 c 1
 523 -100 723 -167 1096 -170 c 1
 1261 -170 l 0
 1514 -170 1642 -150 1786 -35 c 1
 1903 47 2008 207 2008 384 c 0
 2008 595 1931 744 1788 807 c 1
 1749 824 1710 831 1673 831 c 0
 1564 831 1477 766 1458 670 c 1
 1452 642 1449 602 1449 553 c 0
 1449 467 l 0
 1449 323 1432 238 1356 148 c 1
 1287 61 1175 -4 1031 -4 c 0
 731 -4 515 235 515 501 c 0
 515 760 688 950 897 1019 c 1
 912 1025 923 1025 938 1025 c 0
 982 1025 1024 979 1024 937 c 0
 1024 886 994 851 943 833 c 1
 812 795 705 659 705 504 c 0
 705 332 850 187 1034 187 c 0
 1204 187 1259 291 1259 473 c 0
 1259 560 l 2
EndSplineSet
LCarets2: 1 0
EndChar

StartChar: k4r3
Encoding: 251 -1 184
Width: 2858
GlyphClass: 3
Flags: HW
LayerCount: 2
Fore
SplineSet
2138 421 m 1
 2138 516 l 0
 2138 641 2129 681 2074 745 c 1
 2042 783 1947 825 1859 825 c 0
 1705 825 1609 743 1591 623 c 1
 1584 575 1581 479 1581 421 c 1
 2138 421 l 1
429 31 m 2
 567 -149 814 -275 1117 -281 c 0
 1264 -284 1493 -285 1806 -285 c 0
 2163 -285 2262 -287 2330 -287 c 0
 2473 -287 2550 -250 2574 -188 c 1
 2590 -146 2592 -71 2592 -10 c 1
 1484 -10 l 0
 1434 -10 1389 29 1389 79 c 0
 1389 229 l 1
 948 229 l 0
 900 229 853 265 853 317 c 0
 853 371 890 404 931 417 c 1
 989 434 1049 514 1049 594 c 0
 1049 694 963 768 848 768 c 0
 734 768 656 689 656 591 c 0
 656 522 706 442 753 425 c 1
 798 408 829 376 829 330 c 0
 829 284 790 234 741 234 c 0
 725 234 710 236 698 241 c 1
 560 294 462 426 462 597 c 0
 462 795 638 960 844 960 c 0
 1065 960 1241 803 1241 590 c 0
 1241 530 1225 471 1196 418 c 1
 1390 418 l 1
 1389 459 1388 496 1388 536 c 0
 1388 823 1567 1015 1868 1015 c 0
 2081 1015 2239 890 2299 739 c 1
 2323 683 2334 605 2334 506 c 0
 2334 466 2328 371 2328 343 c 0
 2328 317 l 0
 2328 266 2275 235 2234 235 c 0
 1580 235 l 1
 1580 180 l 1
 2593 180 l 1
 2593 917 l 0
 2593 967 2638 1008 2689 1008 c 0
 2729 1008 2784 975 2784 928 c 0
 2784 -44 l 0
 2784 -350 2637 -477 2328 -477 c 0
 2216 -477 2065 -475 1699 -475 c 0
 1370 -475 1162 -474 1075 -471 c 1
 856 -464 653 -389 502 -291 c 0
 266 -137 75 126 75 498 c 0
 75 672 122 831 198 961 c 1
 214 990 241 1010 275 1010 c 0
 325 1010 377 977 377 922 c 0
 377 904 374 885 364 870 c 1
 300 759 266 637 266 505 c 0
 266 315 319 171 421 41 c 0
 429 31 l 2
EndSplineSet
EndChar

StartChar: ngk1
Encoding: 256 -1 189
Width: 1895
GlyphClass: 3
LigCaretCntFixed: 1
Flags: HW
LayerCount: 2
Fore
SplineSet
413 166 m 0
 508 166 582 232 582 312 c 0
 582 358 568 405 564 460 c 1
 495 460 l 1
 366 445 264 394 264 294 c 0
 264 224 333 166 413 166 c 0
1250 479 m 1
 754 479 l 1
 761 312 836 163 998 163 c 0
 1164 163 1243 311 1250 479 c 1
382 832 m 0
 327 832 268 797 268 742 c 0
 268 677 332 660 462 660 c 0
 573 660 l 1
 558 782 498 832 382 832 c 0
1220 664 m 1
 1180 757 1096 834 1000 834 c 0
 895 834 817 758 780 664 c 1
 1220 664 l 1
392 1023 m 0
 524 1023 629 955 692 872 c 1
 756 949 860 1024 989 1024 c 0
 1214 1024 1367 859 1418 668 c 1
 1634 657 1820 537 1820 316 c 0
 1820 133 1657 -25 1460 -25 c 0
 1402 -25 1344 6 1344 72 c 0
 1344 123 1391 166 1445 166 c 0
 1534 166 1627 236 1627 306 c 0
 1627 406 1557 465 1440 477 c 1
 1438 221 1283 -24 996 -24 c 0
 867 -24 764 44 700 116 c 1
 635 29 540 -25 410 -25 c 0
 234 -25 75 116 75 286 c 0
 75 380 120 469 192 533 c 1
 125 581 78 659 78 746 c 0
 78 911 233 1023 392 1023 c 0
EndSplineSet
LCarets2: 2 0 0
EndChar

StartChar: ngk1u1
Encoding: 257 -1 190
Width: 1948
GlyphClass: 3
LigCaretCntFixed: 1
Flags: HW
LayerCount: 2
Fore
SplineSet
583 323 m 0
 583 372 568 421 564 479 c 1
 492 479 l 1
 363 463 265 413 265 305 c 0
 265 231 335 169 416 169 c 0
 509 169 583 238 583 323 c 0
1252 496 m 1
 756 496 l 1
 758 456 761 413 767 388 c 0
 767 388 l 1
 767 387 l 0
 782 285 882 167 1000 167 c 0
 1160 167 1244 327 1252 496 c 1
571 675 m 1
 552 803 510 860 400 860 c 0
 325 860 271 826 271 771 c 0
 271 700 331 675 444 675 c 0
 571 675 l 1
1222 681 m 1
 1182 780 1101 862 1004 862 c 0
 897 862 818 782 781 681 c 1
 1222 681 l 1
1874 194 m 0
 1874 48 1740 -26 1599 -26 c 0
 1529 -26 1421 -3 1421 90 c 0
 1421 133 1462 181 1508 181 c 0
 1539 181 1574 165 1597 165 c 0
 1636 165 1676 182 1683 190 c 1
 1680 202 1618 210 1558 214 c 1
 1512 216 1474 263 1474 309 c 0
 1474 427 1644 403 1670 421 c 1
 1682 428 1682 432 1682 436 c 0
 1682 484 1594 499 1488 499 c 0
 1473 499 1457 499 1442 499 c 1
 1442 283 1345 114 1191 29 c 1
 1133 -4 1065 -21 998 -21 c 0
 869 -21 765 47 700 119 c 1
 635 32 540 -21 411 -21 c 0
 234 -21 75 125 75 299 c 0
 75 395 120 489 192 555 c 1
 126 604 79 682 79 770 c 0
 79 938 234 1052 394 1052 c 0
 527 1052 632 983 693 900 c 1
 757 976 860 1052 989 1052 c 0
 1214 1052 1368 884 1419 688 c 1
 1441 689 1456 689 1475 689 c 0
 1670 689 1872 629 1872 435 c 0
 1872 390 1854 346 1825 310 c 1
 1856 275 1874 236 1874 194 c 0
EndSplineSet
LCarets2: 1 0
EndChar

StartChar: ngk1u2
Encoding: 258 -1 191
Width: 1970
GlyphClass: 3
LigCaretCntFixed: 1
Flags: HW
LayerCount: 2
Fore
SplineSet
582 313 m 0
 582 364 568 415 564 475 c 1
 496 475 l 1
 366 459 264 405 264 294 c 0
 264 218 333 156 412 156 c 0
 507 156 582 226 582 313 c 0
1251 494 m 1
 754 494 l 1
 761 309 834 152 998 152 c 0
 1161 152 1250 317 1251 494 c 1
576 689 m 0
 576 783 488 861 399 861 c 0
 324 861 270 824 270 769 c 0
 270 695 330 674 444 671 c 1
 484 671 l 1
 512 674 541 675 575 676 c 1
 576 681 576 684 576 689 c 0
1221 678 m 1
 1181 782 1099 863 1000 863 c 0
 902 863 818 780 780 678 c 1
 1221 678 l 1
367 -31 m 1
 209 -9 75 129 75 291 c 0
 75 388 120 483 191 549 c 1
 120 599 80 672 80 770 c 0
 80 941 234 1054 393 1054 c 0
 525 1054 631 985 693 901 c 1
 757 978 859 1054 988 1054 c 0
 1212 1054 1367 884 1419 687 c 1
 1473 687 l 0
 1662 687 1854 601 1854 398 c 0
 1854 346 1833 298 1799 256 c 1
 1851 206 1876 152 1876 87 c 0
 1876 -71 1768 -207 1627 -207 c 0
 372 -207 l 1
 327 -230 307 -274 307 -297 c 0
 307 -320 332 -361 382 -380 c 1
 1797 -380 l 0
 1828 -380 1894 -401 1894 -456 c 0
 1894 -509 1851 -552 1799 -552 c 0
 474 -552 l 0
 301 -552 117 -492 117 -298 c 0
 117 -185 202 -92 278 -60 c 1
 310 -47 338 -38 367 -31 c 1
528 -17 m 1
 535 -17 542 -17 549 -17 c 0
 886 -17 l 1
 808 8 745 55 700 105 c 1
 657 47 600 5 528 -17 c 1
1118 -17 m 1
 1480 -17 l 0
 1611 -17 1688 11 1688 76 c 0
 1688 115 1643 153 1593 153 c 0
 1590 153 1583 152 1575 152 c 0
 1511 152 1458 186 1458 250 c 0
 1458 311 1508 346 1568 346 c 0
 1615 346 1664 381 1664 403 c 0
 1664 457 1601 493 1441 496 c 1
 1440 265 1330 45 1118 -17 c 1
EndSplineSet
LCarets2: 1 0
EndChar

StartChar: ngk1r1
Encoding: 259 -1 192
Width: 1943
GlyphClass: 3
LigCaretCntFixed: 1
Flags: HW
LayerCount: 2
Fore
SplineSet
693 873 m 1
 762 955 864 1025 1000 1025 c 0
 1248 1025 1388 820 1428 627 c 1
 1681 576 1868 388 1868 92 c 0
 1868 -371 1506 -649 1015 -649 c 0
 816 -649 577 -586 577 -346 c 0
 577 -120 799 -30 985 -30 c 0
 1177 -30 1410 -114 1410 -350 c 0
 1410 -357 1410 -366 1409 -372 c 1
 1564 -275 1678 -107 1678 102 c 0
 1678 284 1580 396 1441 442 c 1
 1426 207 1274 -23 1000 -23 c 0
 870 -23 768 42 701 116 c 1
 636 32 531 -24 419 -24 c 0
 232 -24 75 115 75 294 c 0
 75 396 129 482 191 537 c 1
 129 583 81 654 81 747 c 0
 81 916 229 1023 395 1023 c 0
 516 1023 628 959 693 873 c 1
1003 835 m 2
 999 835 l 0
 885 835 815 753 781 662 c 1
 1200 659 l 1
 1225 659 l 1
 1189 753 1119 832 1003 835 c 2
576 670 m 0
 576 759 493 833 394 833 c 0
 393 833 l 0
 322 833 271 798 271 746 c 0
 271 705 307 677 354 666 c 1
 377 661 407 659 445 658 c 1
 468 657 l 1
 507 662 544 663 576 663 c 1
 576 667 576 668 576 670 c 0
754 470 m 1
 759 305 842 167 1000 167 c 0
 1162 167 1246 310 1252 466 c 1
 1234 467 1218 467 1199 467 c 1
 754 470 l 1
417 166 m 0
 508 166 583 232 583 316 c 0
 583 322 582 330 582 333 c 1
 571 376 566 420 564 461 c 1
 479 464 l 1
 365 450 265 396 265 299 c 0
 265 227 333 166 417 166 c 0
988 -220 m 2
 987 -220 l 0
 873 -220 767 -255 767 -347 c 0
 767 -393 810 -427 855 -442 c 1
 909 -450 959 -453 1013 -453 c 0
 1127 -453 1219 -434 1219 -351 c 0
 1219 -256 1106 -220 988 -220 c 2
EndSplineSet
LCarets2: 1 0
EndChar

StartChar: ngng
Encoding: 260 -1 193
Width: 2566
GlyphClass: 3
LigCaretCntFixed: 1
Flags: HW
LayerCount: 2
Fore
SplineSet
447 174 m 0
 507 174 557 221 557 274 c 0
 557 332 506 376 444 376 c 0
 379 376 324 332 324 272 c 0
 324 218 385 174 447 174 c 0
1035 730 m 1
 951 648 903 539 903 390 c 0
 903 272 957 169 1060 169 c 0
 1160 169 1220 262 1220 375 c 0
 1220 534 1154 641 1035 730 c 1
713 405 m 1
 718 573 774 708 864 814 c 1
 811 829 764 835 717 835 c 0
 499 835 322 695 277 520 c 1
 325 553 378 569 435 569 c 0
 556 569 661 503 713 405 c 1
740 221 m 1
 711 94 594 -18 451 -18 c 0
 204 -18 75 210 75 429 c 0
 75 774 377 1025 721 1025 c 0
 819 1025 923 1002 1023 952 c 1
 1108 1003 1194 1028 1282 1028 c 0
 1445 1028 1570 957 1650 848 c 1
 1735 964 1859 1021 2017 1021 c 0
 2240 1021 2453 893 2453 679 c 0
 2453 609 2425 538 2373 485 c 1
 2438 439 2491 367 2491 267 c 0
 2491 79 2299 -21 2116 -21 c 0
 2059 -21 1846 -1 1846 113 c 0
 1846 161 1881 213 1936 213 c 0
 1959 213 1981 206 2006 193 c 1
 2030 181 2074 171 2119 171 c 0
 2215 171 2302 211 2302 270 c 0
 2302 326 2242 366 2070 369 c 1
 2035 369 l 1
 1986 370 1941 411 1941 464 c 0
 1941 514 1981 561 2033 561 c 0
 2063 561 l 1
 2198 567 2265 601 2265 681 c 0
 2265 770 2143 831 2023 831 c 0
 1822 831 1746 723 1746 511 c 0
 1746 68 l 0
 1746 25 1711 -22 1660 -22 c 0
 1610 -22 1560 10 1560 68 c 0
 1560 496 l 1
 1558 708 1485 840 1291 840 c 0
 1262 840 1231 835 1203 827 c 1
 1331 713 1411 564 1411 368 c 0
 1411 170 1287 -21 1063 -21 c 0
 896 -21 787 86 740 221 c 1
EndSplineSet
LCarets2: 2 0 0
EndChar

StartChar: ch1ch1
Encoding: 265 -1 198
Width: 1525
GlyphClass: 3
LigCaretCntFixed: 1
Flags: HW
LayerCount: 2
Fore
SplineSet
1260 2 m 1
 1120 2 l 1
 837 -263 l 1
 1260 -263 l 1
 1260 2 l 1
695 778 m 0
 894 778 1062 603 1062 404 c 0
 1062 329 1040 254 1000 190 c 1
 1258 190 l 1
 1258 979 l 0
 1258 1025 1313 1059 1353 1059 c 0
 1392 1059 1448 1027 1448 978 c 0
 1448 -346 l 0
 1448 -396 1408 -441 1356 -441 c 0
 575 -441 l 0
 541 -441 479 -413 479 -360 c 0
 479 -332 491 -308 512 -290 c 1
 825 0 l 1
 121 0 l 0
 81 0 25 45 25 93 c 0
 25 145 68 188 120 188 c 0
 681 188 l 1
 789 203 873 287 873 403 c 0
 873 502 784 588 689 588 c 0
 597 588 526 521 526 428 c 0
 526 393 548 367 548 321 c 0
 548 276 503 237 458 237 c 0
 349 237 334 375 334 436 c 0
 334 624 497 778 695 778 c 0
EndSplineSet
LCarets2: 2 0 0
EndChar

StartChar: ch1ch2
Encoding: 268 -1 201
Width: 1717
GlyphClass: 3
LigCaretCntFixed: 1
Flags: HW
LayerCount: 2
Fore
SplineSet
1365 -584 m 0
 1454 -584 1522 -510 1522 -396 c 0
 1522 -325 1493 -264 1437 -210 c 1
 1432 -210 l 1
 1402 -225 1220 -322 1220 -401 c 0
 1220 -506 1278 -584 1365 -584 c 0
1064 389 m 0
 1064 308 1042 239 1002 179 c 1
 1378 179 l 1
 1378 920 l 0
 1378 969 1429 1003 1468 1003 c 0
 1509 1003 1568 975 1568 925 c 0
 1568 82 l 0
 1568 31 1524 -10 1473 -10 c 0
 1453 -10 l 1
 1596 -83 1693 -225 1693 -398 c 0
 1693 -594 1562 -753 1363 -753 c 0
 1185 -753 1052 -598 1052 -424 c 0
 1052 -307 1099 -207 1172 -139 c 1
 1041 -164 938 -277 938 -402 c 0
 938 -486 984 -563 1034 -602 c 1
 1054 -618 1067 -640 1067 -667 c 0
 1067 -715 1031 -756 982 -756 c 0
 113 -756 l 0
 73 -756 27 -707 27 -666 c 0
 27 -630 57 -581 100 -581 c 0
 437 -581 l 1
 504 -576 564 -515 564 -451 c 0
 564 -372 516 -313 451 -313 c 0
 392 -313 342 -360 342 -417 c 0
 342 -430 360 -464 360 -497 c 0
 360 -544 311 -580 279 -580 c 0
 195 -580 173 -495 173 -426 c 0
 173 -264 295 -143 452 -142 c 1
 604 -142 734 -280 734 -439 c 0
 734 -488 723 -539 701 -584 c 1
 808 -584 l 1
 780 -524 767 -468 767 -407 c 0
 767 -222 871 -82 1011 -10 c 1
 121 -10 l 0
 82 -10 25 32 25 81 c 0
 25 133 68 176 120 176 c 0
 679 176 l 1
 787 188 874 275 874 390 c 0
 874 487 785 571 690 571 c 0
 598 571 526 504 526 414 c 0
 526 379 548 354 548 309 c 0
 548 266 503 225 458 225 c 0
 349 225 335 358 335 421 c 0
 335 612 492 764 685 764 c 0
 910 764 1064 582 1064 389 c 0
EndSplineSet
LCarets2: 2 0 0
EndChar

StartChar: ch2u1
Encoding: 269 -1 202
Width: 2696
GlyphClass: 3
LigCaretCntFixed: 1
Flags: HW
LayerCount: 2
Fore
SplineSet
1974 190 m 0
 2115 190 2222 305 2222 430 c 0
 2222 540 2176 622 2110 689 c 1
 2104 689 2101 690 2095 690 c 0
 1914 690 1770 569 1770 410 c 0
 1770 289 1852 190 1974 190 c 0
335 -580 m 0
 171 -580 23 -475 23 -326 c 0
 23 -127 225 -78 417 -78 c 0
 459 -78 506 -79 568 -79 c 0
 755 -79 1034 -78 1302 -78 c 0
 1592 -78 1859 -81 2006 -81 c 0
 2272 -81 2480 59 2480 304 c 0
 2480 397 2447 480 2400 540 c 1
 2408 505 2411 474 2411 440 c 0
 2411 203 2239 -4 1984 -4 c 0
 1750 -4 1577 177 1577 401 c 0
 1577 602 1699 744 1849 815 c 1
 1829 817 1813 818 1795 818 c 0
 1587 818 1382 650 1382 437 c 0
 1382 322 1447 213 1520 156 c 1
 1542 139 1555 116 1555 89 c 0
 1555 39 1513 -3 1460 -3 c 0
 125 -3 l 0
 75 -3 29 50 29 92 c 0
 29 134 58 193 110 193 c 0
 681 193 l 1
 780 202 871 288 876 378 c 1
 876 383 l 1
 876 384 l 0
 877 391 878 397 878 401 c 0
 878 479 786 572 698 572 c 0
 692 572 679 568 662 568 c 0
 594 568 529 484 529 415 c 0
 529 394 553 367 553 326 c 0
 553 283 517 238 463 238 c 0
 357 238 338 364 338 426 c 0
 338 616 500 763 696 763 c 0
 912 763 1069 599 1069 399 c 0
 1069 321 1041 247 1001 189 c 1
 1261 189 l 1
 1214 270 1190 353 1190 441 c 0
 1190 691 1348 864 1533 947 c 1
 1619 988 1706 1008 1794 1008 c 0
 1963 1008 2094 951 2198 861 c 1
 2458 814 2674 595 2674 307 c 0
 2674 -78 2371 -270 1963 -270 c 0
 1806 -270 1643 -267 1451 -267 c 0
 1156 -267 832 -269 572 -269 c 0
 517 -269 467 -268 416 -268 c 0
 295 -268 215 -279 215 -330 c 0
 215 -349 232 -376 283 -390 c 1
 2563 -390 l 0
 2606 -390 2658 -412 2658 -470 c 0
 2658 -522 2615 -565 2563 -565 c 1
 2243 -567 675 -580 335 -580 c 0
EndSplineSet
LCarets2: 1 0
EndChar

StartChar: ch2u2
Encoding: 270 -1 203
Width: 2894
GlyphClass: 3
LigCaretCntFixed: 1
Flags: HW
LayerCount: 2
Fore
SplineSet
2140 664 m 1
 1931 644 1768 534 1768 380 c 0
 1768 272 1859 181 1968 181 c 0
 2112 181 2219 289 2219 452 c 0
 2219 528 2192 598 2140 664 c 1
2401 353 m 1
 2414 366 2430 376 2447 381 c 1
 2490 394 2533 442 2533 499 c 0
 2533 587 2466 633 2364 654 c 1
 2391 597 2410 531 2410 449 c 0
 2410 415 2407 384 2401 353 c 1
2379 276 m 1
 2338 168 2261 87 2167 39 c 1
 2105 5 2039 -10 1977 -10 c 0
 1762 -10 1578 164 1578 376 c 0
 1578 601 1748 742 1929 805 c 1
 1885 817 1842 821 1801 821 c 0
 1576 821 1382 648 1382 440 c 0
 1382 317 1447 210 1522 150 c 1
 1544 133 1558 109 1558 81 c 0
 1558 30 1516 -12 1463 -12 c 0
 127 -12 l 0
 72 -12 32 39 32 89 c 0
 32 128 64 184 112 184 c 0
 682 184 l 1
 787 195 880 288 880 385 c 0
 880 488 799 578 695 578 c 0
 601 578 532 495 532 414 c 0
 532 383 555 356 555 314 c 0
 555 271 509 232 465 232 c 0
 357 232 341 363 341 425 c 0
 341 605 487 765 679 765 c 0
 894 765 1068 605 1068 398 c 0
 1068 321 1045 244 1003 181 c 1
 1264 181 l 1
 1217 263 1194 350 1194 447 c 0
 1194 762 1470 1011 1803 1011 c 0
 1964 1011 2106 957 2220 855 c 1
 2320 855 2409 845 2467 822 c 0
 2634 756 2723 648 2723 500 c 0
 2723 442 2708 390 2677 341 c 1
 2757 290 2820 194 2820 84 c 0
 2820 44 2812 0 2791 -41 c 1
 2725 -181 2591 -262 2397 -262 c 0
 379 -262 l 2
 275 -265 216 -299 216 -331 c 0
 216 -349 261 -386 282 -386 c 0
 2564 -386 l 0
 2598 -386 2661 -412 2661 -465 c 0
 2661 -517 2618 -560 2566 -560 c 0
 391 -560 l 0
 231 -560 113 -536 55 -438 c 1
 35 -404 25 -367 25 -330 c 0
 25 -294 35 -260 53 -226 c 1
 113 -115 250 -80 427 -80 c 0
 2316 -80 l 1
 2404 -79 2465 -64 2499 -53 c 1
 2569 -30 2633 28 2633 88 c 0
 2633 148 2571 209 2515 209 c 0
 2500 209 2487 206 2460 206 c 0
 2419 206 2387 242 2379 276 c 1
EndSplineSet
LCarets2: 1 0
EndChar

StartChar: ch2r1
Encoding: 271 -1 204
Width: 2787
GlyphClass: 3
LigCaretCntFixed: 1
Flags: HW
LayerCount: 2
Fore
SplineSet
1704 -293 m 0
 1704 -358 1785 -394 1888 -394 c 0
 1981 -394 2076 -363 2169 -305 c 1
 2073 -234 1971 -200 1859 -200 c 0
 1767 -200 1704 -232 1704 -293 c 0
1978 180 m 0
 2124 180 2214 303 2214 439 c 0
 2214 555 2171 628 2096 697 c 1
 1908 692 1763 568 1763 408 c 0
 1763 285 1861 180 1978 180 c 0
1987 -11 m 0
 1740 -11 1573 178 1573 401 c 0
 1573 580 1690 729 1834 807 c 1
 1819 808 1807 809 1793 809 c 0
 1736 809 1680 799 1624 778 c 1
 1504 730 1376 599 1376 435 c 0
 1376 315 1440 208 1516 150 c 1
 1538 133 1551 109 1551 82 c 0
 1551 32 1509 -10 1456 -10 c 0
 121 -10 l 0
 66 -10 25 41 25 91 c 0
 25 131 59 186 106 186 c 0
 676 186 l 1
 785 197 872 280 872 389 c 0
 872 478 799 564 691 564 c 0
 594 564 526 500 526 412 c 0
 526 381 548 355 548 316 c 0
 548 267 504 231 453 231 c 0
 351 231 335 360 335 423 c 0
 335 602 484 756 676 756 c 1
 888 754 1062 597 1062 395 c 0
 1062 320 1038 244 996 182 c 1
 1257 182 l 1
 1210 263 1187 349 1187 444 c 0
 1187 760 1466 999 1802 999 c 0
 1938 999 2063 954 2172 870 c 1
 2493 829 2714 546 2714 228 c 0
 2714 -70 2538 -293 2349 -426 c 1
 2203 -530 2048 -583 1890 -583 c 0
 1700 -583 1515 -500 1515 -293 c 0
 1515 -94 1693 -10 1871 -10 c 0
 2046 -10 2195 -68 2327 -174 c 1
 2432 -74 2523 76 2523 246 c 0
 2523 395 2470 503 2383 580 c 1
 2399 532 2407 484 2407 438 c 0
 2407 246 2313 108 2165 38 c 1
 2105 7 2045 -11 1987 -11 c 0
EndSplineSet
LCarets2: 1 0
EndChar

StartChar: ch3u1
Encoding: 272 -1 205
Width: 1847
GlyphClass: 3
LigCaretCntFixed: 1
Flags: HW
LayerCount: 2
Fore
SplineSet
412 279 m 0
 329 279 277 262 277 236 c 0
 277 219 318 195 379 195 c 0
 484 195 573 214 709 269 c 1
 566 279 441 279 412 279 c 0
1152 227 m 0
 1152 191 1176 169 1218 169 c 0
 1249 169 1268 185 1268 209 c 0
 1268 252 1235 275 1177 279 c 1
 1158 258 1152 243 1152 227 c 0
266 686 m 0
 266 637 308 609 363 609 c 0
 384 609 414 643 414 677 c 0
 414 706 382 734 352 734 c 0
 297 734 266 717 266 686 c 0
818 433 m 1
 833 432 847 431 861 431 c 0
 1058 431 1253 502 1253 664 c 0
 1253 763 1174 831 1073 831 c 0
 955 831 881 764 881 651 c 0
 881 602 883 554 883 528 c 0
 883 485 860 446 818 433 c 1
743 439 m 1
 718 451 692 472 692 502 c 0
 692 666 l 1
 690 751 625 817 538 835 c 1
 580 791 606 734 606 664 c 0
 606 586 560 514 496 470 c 1
 577 464 663 448 743 439 c 1
244 443 m 1
 136 488 75 592 75 696 c 0
 75 881 266 1031 462 1031 c 0
 601 1031 715 980 787 900 c 1
 851 971 949 1024 1067 1024 c 0
 1282 1024 1446 863 1446 674 c 0
 1446 635 1438 595 1424 556 c 1
 1614 530 1773 383 1773 174 c 0
 1773 -144 1473 -265 1146 -265 c 1
 996 -266 515 -270 358 -273 c 1
 298 -274 267 -306 267 -313 c 0
 267 -331 320 -370 383 -370 c 0
 1688 -370 l 0
 1734 -370 1769 -425 1769 -465 c 0
 1769 -505 1734 -560 1688 -560 c 0
 370 -560 l 1
 221 -556 77 -458 77 -318 c 0
 77 -161 220 -84 352 -82 c 0
 486 -80 1016 -75 1144 -75 c 0
 1388 -75 1579 -11 1579 174 c 0
 1579 278 1499 354 1399 366 c 1
 1436 322 1458 268 1458 211 c 0
 1458 80 1335 -21 1218 -21 c 0
 1066 -21 967 90 963 223 c 1
 796 143 519 5 375 5 c 0
 224 5 88 89 88 238 c 0
 88 345 157 410 244 443 c 1
EndSplineSet
LCarets2: 1 0
EndChar

StartChar: ch3u2
Encoding: 273 -1 206
Width: 1970
GlyphClass: 3
LigCaretCntFixed: 1
Flags: HW
LayerCount: 2
Fore
SplineSet
1214 155 m 0
 1245 155 1271 181 1271 210 c 0
 1271 242 1241 266 1190 273 c 1
 1169 246 1162 228 1162 216 c 0
 1162 172 1181 155 1214 155 c 0
381 277 m 0
 315 277 278 255 278 230 c 0
 278 216 312 190 367 190 c 0
 477 190 537 211 643 261 c 1
 555 268 438 277 381 277 c 0
416 660 m 0
 416 697 382 730 339 730 c 0
 295 730 262 697 262 670 c 0
 262 630 304 590 340 590 c 0
 373 590 416 620 416 660 c 0
814 416 m 1
 838 415 861 414 881 414 c 0
 1117 414 1256 506 1256 639 c 0
 1256 753 1174 827 1074 827 c 0
 957 827 879 753 879 629 c 0
 879 488 l 0
 879 454 846 426 814 416 c 1
748 421 m 1
 718 435 693 465 693 500 c 0
 693 662 l 1
 691 748 635 805 548 825 c 1
 585 780 609 722 609 657 c 0
 609 568 561 492 492 448 c 1
 572 441 663 429 748 421 c 1
1458 167 m 1
 1438 52 1338 -34 1215 -34 c 0
 1076 -34 972 76 972 213 c 0
 972 218 972 223 972 228 c 1
 800 143 566 -1 375 -1 c 0
 231 -1 87 78 87 221 c 0
 87 322 156 392 241 426 c 1
 140 469 75 569 75 682 c 0
 75 896 263 1023 478 1023 c 0
 615 1023 716 977 787 893 c 1
 852 965 946 1016 1064 1016 c 0
 1271 1016 1446 869 1446 671 c 0
 1446 651 1444 629 1440 609 c 1
 1445 609 1447 609 1451 609 c 0
 1628 609 1776 499 1776 333 c 0
 1776 306 1772 279 1764 255 c 1
 1834 215 1896 134 1896 31 c 0
 1896 -166 1706 -279 1517 -279 c 0
 438 -279 l 0
 355 -279 271 -305 263 -319 c 1
 264 -347 330 -374 413 -374 c 0
 1730 -374 l 0
 1783 -374 1826 -419 1826 -471 c 0
 1826 -511 1792 -566 1745 -566 c 0
 441 -566 l 0
 303 -566 204 -539 149 -483 c 1
 103 -433 78 -377 78 -320 c 0
 78 -141 252 -87 436 -87 c 0
 1504 -87 l 0
 1622 -87 1704 -47 1704 34 c 0
 1704 64 1675 104 1642 104 c 0
 1619 104 1589 82 1551 82 c 0
 1502 82 1464 115 1458 167 c 1
1461 205 m 1
 1476 248 1527 265 1552 273 c 1
 1579 290 1587 308 1587 327 c 0
 1587 375 1524 420 1453 420 c 0
 1422 420 1388 412 1352 396 c 1
 1413 355 1461 287 1461 205 c 1
EndSplineSet
LCarets2: 1 0
EndChar

StartChar: ch3r1
Encoding: 274 -1 207
Width: 1807
GlyphClass: 3
LigCaretCntFixed: 1
Flags: HW
LayerCount: 2
Fore
SplineSet
1248 -345 m 0
 1248 -287 1179 -258 1068 -258 c 0
 964 -258 899 -287 899 -341 c 0
 899 -399 959 -418 1089 -418 c 0
 1190 -418 1248 -395 1248 -345 c 0
276 211 m 0
 276 196 318 173 377 173 c 0
 441 173 532 195 644 240 c 1
 565 248 450 259 404 259 c 0
 324 259 276 235 276 211 c 0
1205 151 m 0
 1236 151 1263 174 1263 201 c 0
 1263 230 1229 256 1174 259 c 1
 1152 240 1145 226 1145 210 c 0
 1145 175 1177 151 1205 151 c 0
414 646 m 0
 414 688 380 713 337 713 c 0
 300 713 282 701 267 675 c 1
 267 673 267 672 267 669 c 0
 267 616 306 584 349 584 c 0
 381 584 414 611 414 646 c 0
844 410 m 1
 856 410 869 409 880 409 c 0
 1073 409 1254 494 1254 645 c 0
 1254 748 1157 829 1042 829 c 0
 949 829 889 767 889 667 c 0
 889 637 891 609 892 569 c 1
 892 482 l 0
 892 454 872 424 844 410 c 1
748 417 m 1
 722 432 705 458 704 490 c 1
 704 601 l 1
 698 729 638 813 519 828 c 1
 569 785 605 722 605 646 c 0
 605 560 560 486 492 443 c 1
 572 436 663 424 748 417 c 1
240 421 m 1
 137 465 75 569 75 678 c 0
 75 882 259 1020 470 1020 c 0
 603 1020 704 973 777 895 c 1
 840 974 929 1020 1039 1020 c 0
 1258 1020 1444 862 1444 650 c 0
 1444 585 1425 525 1391 469 c 1
 1582 408 1732 208 1732 -17 c 0
 1732 -349 1479 -610 1139 -610 c 0
 1126 -610 1111 -610 1099 -609 c 1
 886 -609 708 -542 708 -340 c 0
 708 -227 785 -152 857 -110 c 1
 908 -82 976 -69 1062 -69 c 0
 1225 -69 1343 -114 1405 -219 c 1
 1417 -241 1426 -264 1431 -286 c 1
 1505 -214 1540 -137 1540 -24 c 0
 1540 75 1505 159 1452 218 c 1
 1453 210 1453 204 1453 197 c 0
 1453 70 1343 -38 1204 -38 c 0
 1076 -38 957 64 956 199 c 1
 892 167 791 113 758 95 c 1
 610 21 483 -17 376 -17 c 0
 230 -17 86 63 86 212 c 0
 86 316 154 387 240 421 c 1
EndSplineSet
LCarets2: 1 0
EndChar

StartChar: ch3ch3
Encoding: 275 -1 208
Width: 3043
GlyphClass: 3
LigCaretCntFixed: 1
Flags: HW
LayerCount: 2
Fore
SplineSet
2778 181 m 0
 2778 225 2737 252 2682 252 c 0
 2641 252 2629 227 2629 196 c 0
 2629 153 2668 112 2708 112 c 0
 2743 112 2778 146 2778 181 c 0
1712 185 m 0
 1712 159 1762 128 1827 128 c 0
 1902 128 2009 158 2143 222 c 1
 2050 234 1906 252 1852 252 c 0
 1765 252 1712 222 1712 185 c 0
444 621 m 0
 444 675 393 722 341 722 c 0
 296 722 268 702 268 650 c 0
 268 589 322 539 368 539 c 0
 399 539 444 574 444 621 c 0
1864 621 m 0
 1864 676 1812 722 1759 722 c 0
 1715 722 1688 702 1688 651 c 0
 1688 590 1741 540 1787 540 c 0
 1820 540 1864 574 1864 621 c 0
632 629 m 0
 632 548 604 481 558 433 c 1
 691 417 810 393 946 393 c 0
 1156 393 1352 485 1352 663 c 0
 1352 771 1270 852 1163 852 c 0
 1054 852 968 780 968 696 c 0
 968 506 l 0
 968 456 931 412 878 412 c 0
 827 412 782 453 782 504 c 0
 782 695 l 0
 782 830 732 860 566 860 c 0
 548 860 527 859 511 857 c 1
 580 806 632 721 632 629 c 0
2202 695 m 2
 2202 832 2145 860 1985 860 c 0
 1967 860 1947 859 1931 857 c 1
 1998 808 2051 725 2051 632 c 0
 2051 551 2024 484 1978 435 c 1
 2108 422 2244 398 2370 398 c 0
 2585 398 2772 488 2772 667 c 0
 2772 770 2679 854 2584 854 c 0
 2490 854 2388 788 2388 696 c 0
 2388 507 l 0
 2388 456 2351 412 2298 412 c 0
 2248 412 2203 450 2202 502 c 1
 2202 695 l 2
1339 307 m 1
 1230 235 1091 199 945 199 c 0
 779 199 542 253 412 253 c 0
 362 253 296 210 292 197 c 1
 293 145 416 125 561 125 c 0
 603 125 642 126 673 126 c 0
 960 126 1193 179 1339 307 c 1
1623 380 m 1
 1629 384 1637 390 1642 393 c 1
 1639 395 1634 398 1632 399 c 1
 1629 392 1626 386 1623 380 c 1
1526 231 m 1
 1352 27 1067 -66 677 -66 c 0
 634 -66 l 0
 369 -66 103 -62 103 199 c 0
 103 289 158 356 218 395 c 1
 144 445 75 540 75 653 c 0
 75 899 305 1052 555 1052 c 0
 702 1052 821 1016 892 935 c 1
 959 1003 1043 1045 1159 1045 c 0
 1329 1045 1474 937 1523 787 c 1
 1588 958 1776 1052 1975 1052 c 0
 2122 1052 2240 1017 2312 935 c 1
 2375 998 2463 1046 2575 1046 c 0
 2788 1046 2961 885 2961 676 c 0
 2961 568 2923 471 2851 392 c 1
 2912 350 2968 279 2968 183 c 0
 2968 36 2851 -79 2709 -79 c 0
 2562 -79 2454 35 2440 164 c 1
 2275 75 2072 -64 1819 -64 c 0
 1650 -64 1522 51 1522 186 c 0
 1522 202 1523 217 1526 231 c 1
EndSplineSet
LCarets2: 2 0 0
EndChar

StartChar: ch3ch3u1
Encoding: 276 -1 209
Width: 3264
GlyphClass: 3
LigCaretCntFixed: 1
Flags: HW
LayerCount: 2
Fore
SplineSet
2626 166 m 0
 2658 166 2683 190 2683 220 c 0
 2683 256 2646 279 2594 284 c 1
 2576 262 2569 244 2569 225 c 0
 2569 194 2594 166 2626 166 c 0
1800 285 m 0
 1733 285 1694 262 1694 234 c 0
 1694 218 1730 192 1785 192 c 0
 1895 192 1956 211 2064 260 c 1
 1976 271 1858 285 1800 285 c 0
416 659 m 0
 416 690 383 717 339 717 c 0
 294 717 266 691 266 669 c 0
 266 637 308 603 347 603 c 0
 381 603 416 625 416 659 c 0
1761 743 m 0
 1735 743 1683 719 1683 690 c 0
 1683 642 1724 615 1763 615 c 0
 1793 615 1838 642 1838 682 c 0
 1838 709 1798 743 1761 743 c 0
764 424 m 1
 725 434 693 466 693 506 c 0
 693 660 l 1
 691 740 636 794 552 814 c 1
 586 772 609 717 609 656 c 0
 609 573 560 501 495 459 c 1
 597 450 675 433 764 424 c 1
797 421 m 1
 820 419 845 419 870 419 c 0
 1075 419 1256 498 1256 653 c 0
 1256 744 1173 817 1066 817 c 0
 963 817 879 735 879 648 c 0
 879 495 l 0
 879 455 834 425 797 421 c 1
1513 296 m 1
 1351 105 1065 4 769 -7 c 1
 701 -10 639 -11 583 -11 c 0
 415 -11 300 0 237 29 c 1
 165 61 88 131 88 234 c 0
 88 335 157 404 235 438 c 1
 137 480 76 576 76 683 c 0
 76 891 263 1013 478 1013 c 0
 615 1013 716 967 787 883 c 1
 853 955 947 1006 1064 1006 c 0
 1269 1006 1445 860 1445 664 c 0
 1445 377 1170 225 873 225 c 0
 709 225 526 274 368 274 c 0
 310 274 280 255 280 231 c 0
 280 176 413 181 589 181 c 0
 930 181 1139 219 1303 354 c 0
 1407 440 1431 498 1463 633 c 1
 1478 699 1492 726 1505 764 c 1
 1553 920 1699 1025 1895 1025 c 0
 2033 1025 2133 979 2204 895 c 1
 2277 977 2364 1018 2492 1018 c 0
 2696 1018 2863 867 2863 678 c 0
 2863 638 2853 596 2839 559 c 1
 3029 534 3189 385 3189 179 c 0
 3189 89 3156 2 3102 -64 c 1
 2998 -194 2849 -270 2657 -270 c 0
 1836 -270 l 0
 1739 -270 1685 -299 1685 -318 c 0
 1685 -364 1799 -372 1895 -372 c 0
 3091 -372 l 0
 3144 -372 3187 -417 3187 -469 c 0
 3187 -507 3155 -564 3108 -564 c 0
 1858 -564 l 0
 1720 -564 1621 -537 1566 -481 c 1
 1520 -431 1495 -376 1495 -319 c 0
 1495 -140 1668 -85 1853 -85 c 0
 2528 -85 l 1
 2675 -84 2775 -61 2828 -32 c 1
 2944 20 2999 84 2999 182 c 0
 2999 281 2917 359 2815 372 c 1
 2850 329 2873 276 2873 216 c 0
 2873 82 2762 -24 2626 -24 c 0
 2479 -24 2381 91 2380 217 c 1
 2314 184 2207 128 2176 112 c 1
 2028 38 1901 1 1793 1 c 0
 1649 1 1504 81 1504 231 c 0
 1504 254 1507 276 1513 296 c 1
1580 398 m 1
 1605 418 1636 432 1668 442 c 1
 1648 450 1630 460 1613 472 c 1
 1604 446 1592 422 1580 398 c 1
2222 435 m 1
 2238 435 2254 434 2269 434 c 0
 2480 434 2672 506 2672 665 c 0
 2672 761 2589 829 2480 829 c 0
 2376 829 2296 739 2296 658 c 0
 2296 507 l 0
 2296 470 2257 442 2222 435 c 1
2183 436 m 1
 2144 446 2111 480 2110 523 c 1
 2110 669 l 1
 2108 751 2055 804 1972 825 c 1
 2007 783 2027 733 2027 677 c 0
 2027 580 1970 498 1885 456 c 1
 1973 451 2080 440 2183 436 c 1
EndSplineSet
LCarets2: 1 0
EndChar

StartChar: ch3ch3u2
Encoding: 277 -1 210
Width: 3427
GlyphClass: 3
LigCaretCntFixed: 1
Flags: HW
LayerCount: 2
Fore
SplineSet
2671 167 m 0
 2704 167 2729 194 2729 225 c 0
 2729 263 2694 287 2648 294 c 1
 2627 266 2619 243 2619 225 c 0
 2619 192 2641 167 2671 167 c 0
1839 298 m 0
 1774 298 1736 275 1736 246 c 0
 1736 228 1771 200 1824 200 c 0
 1934 200 1996 223 2104 275 c 1
 2015 285 1897 298 1839 298 c 0
415 711 m 0
 415 749 381 780 338 780 c 0
 293 780 265 751 265 721 c 0
 265 681 307 644 345 644 c 0
 379 644 415 669 415 711 c 0
1725 726 m 0
 1725 662 1771 628 1830 628 c 0
 1867 628 1909 662 1909 709 c 0
 1909 752 1859 793 1809 793 c 0
 1785 793 1758 784 1739 770 c 1
 1730 753 1725 739 1725 726 c 0
755 466 m 1
 720 479 692 510 692 549 c 0
 692 712 l 1
 688 804 633 858 550 878 c 1
 585 833 608 773 608 708 c 0
 608 617 558 540 489 496 c 1
 579 487 675 474 755 466 c 1
804 462 m 1
 821 461 836 460 850 460 c 0
 1056 460 1254 534 1254 706 c 0
 1254 808 1170 880 1060 880 c 0
 957 880 878 791 878 708 c 0
 878 538 l 0
 878 500 839 469 804 462 c 1
2277 450 m 1
 2299 449 2320 448 2339 448 c 0
 2446 448 2527 470 2592 508 c 1
 2611 524 2628 538 2645 550 c 1
 2694 595 2714 636 2714 679 c 0
 2714 791 2636 863 2519 863 c 0
 2417 863 2337 773 2337 691 c 0
 2337 522 l 0
 2337 488 2307 461 2277 450 c 1
2201 455 m 1
 2172 470 2151 500 2151 534 c 0
 2151 696 l 1
 2149 768 2115 815 2057 842 c 1
 2084 799 2097 751 2097 702 c 0
 2097 609 2042 526 1965 479 c 1
 2040 472 2123 462 2201 455 c 1
2918 214 m 1
 2929 248 2966 271 3010 285 c 1
 3036 304 3044 324 3044 347 c 0
 3044 403 2982 452 2911 452 c 0
 2880 452 2846 444 2810 427 c 1
 2873 381 2918 309 2918 221 c 0
 2918 219 2918 216 2918 214 c 1
2915 186 m 1
 2897 67 2797 -24 2672 -24 c 0
 2533 -24 2430 86 2430 223 c 0
 2430 228 2430 234 2430 238 c 1
 2359 203 2257 146 2217 126 c 0
 2069 49 1942 10 1834 10 c 0
 1690 10 1545 92 1545 243 c 0
 1545 256 1546 269 1548 282 c 1
 1414 92 1173 1 864 1 c 0
 728 1 538 24 408 33 c 1
 249 43 87 104 87 274 c 0
 87 375 154 443 235 478 c 1
 136 522 74 622 74 731 c 0
 74 948 260 1076 477 1076 c 0
 614 1076 715 1030 786 946 c 1
 852 1018 946 1069 1063 1069 c 0
 1267 1069 1444 918 1444 718 c 0
 1444 425 1169 268 871 268 c 0
 699 268 532 316 374 316 c 0
 315 316 276 294 276 272 c 0
 276 243 332 228 416 223 c 0
 553 214 730 192 862 192 c 0
 1108 192 1277 255 1378 374 c 0
 1432 437 1449 498 1467 597 c 1
 1488 718 1520 819 1588 888 c 1
 1648 981 1765 1060 1921 1060 c 0
 2066 1060 2172 1015 2246 928 c 1
 2311 999 2405 1052 2523 1052 c 0
 2729 1052 2904 901 2904 702 c 0
 2904 682 2902 661 2898 640 c 1
 2904 640 2907 640 2911 640 c 0
 3087 640 3234 524 3234 349 c 0
 3234 320 3229 291 3221 266 c 1
 3296 225 3353 147 3353 39 c 0
 3353 -172 3151 -260 2950 -260 c 0
 1877 -260 l 1
 1778 -261 1726 -291 1726 -310 c 0
 1726 -350 1803 -363 1891 -363 c 0
 3188 -363 l 0
 3232 -363 3284 -416 3284 -461 c 0
 3284 -501 3250 -556 3203 -556 c 0
 1899 -556 l 0
 1761 -556 1662 -530 1607 -472 c 1
 1561 -422 1536 -366 1536 -308 c 0
 1536 -128 1712 -75 1899 -75 c 0
 2956 -75 l 0
 3070 -75 3162 -39 3162 44 c 0
 3162 75 3134 114 3099 114 c 0
 3074 114 3044 92 3006 92 c 0
 2954 92 2918 129 2915 186 c 1
1612 403 m 1
 1639 429 1672 448 1708 462 c 1
 1683 473 1661 486 1642 502 c 1
 1634 466 1624 435 1612 403 c 1
EndSplineSet
LCarets2: 1 0
EndChar

StartChar: ch3ch3r1
Encoding: 278 -1 211
Width: 3239
GlyphClass: 3
LigCaretCntFixed: 1
Flags: HW
LayerCount: 2
Fore
SplineSet
2540 -240 m 0
 2540 -275 2579 -305 2619 -305 c 0
 2671 -305 2737 -271 2786 -235 c 1
 2715 -203 2663 -188 2622 -188 c 0
 2574 -188 2540 -216 2540 -240 c 0
1861 290 m 0
 1793 290 1757 269 1757 241 c 0
 1757 225 1792 199 1847 199 c 0
 1959 199 2020 218 2127 265 c 1
 2039 276 1921 290 1861 290 c 0
2649 292 m 0
 2634 292 2621 266 2621 245 c 0
 2621 207 2653 181 2684 181 c 0
 2715 181 2742 206 2742 233 c 0
 2742 269 2705 292 2649 292 c 0
416 665 m 0
 416 697 383 724 339 724 c 0
 294 724 266 699 266 674 c 0
 266 640 307 608 346 608 c 0
 380 608 416 630 416 665 c 0
1892 668 m 0
 1892 697 1852 726 1809 726 c 0
 1789 726 1768 721 1750 713 c 1
 1748 706 1747 700 1747 694 c 0
 1747 653 1784 620 1827 620 c 0
 1869 620 1892 642 1892 668 c 0
765 429 m 1
 726 440 694 472 693 516 c 1
 693 666 l 1
 691 748 635 802 549 822 c 1
 585 780 609 724 609 662 c 0
 609 577 560 506 494 464 c 1
 591 455 673 438 765 429 c 1
806 426 m 1
 827 425 848 424 870 424 c 0
 1074 424 1256 505 1256 658 c 0
 1256 752 1170 825 1060 825 c 0
 967 825 879 748 879 650 c 0
 879 505 l 0
 879 464 842 432 806 426 c 1
2286 440 m 1
 2303 439 2318 439 2334 439 c 0
 2524 439 2658 491 2715 607 c 1
 2728 631 2734 655 2734 677 c 0
 2734 769 2654 836 2542 836 c 0
 2437 836 2359 747 2359 664 c 0
 2359 513 l 0
 2359 476 2321 448 2286 440 c 1
2239 443 m 1
 2203 455 2174 487 2173 528 c 1
 2173 676 l 1
 2171 767 2103 826 2003 840 c 1
 2052 798 2083 739 2083 664 c 0
 2083 581 2035 509 1965 469 c 1
 2049 462 2147 449 2239 443 c 1
1380 459 m 1
 1281 308 1084 230 874 230 c 0
 718 230 537 278 387 279 c 1
 325 279 277 259 277 238 c 0
 277 231 295 215 320 205 c 1
 363 188 492 189 565 186 c 0
 615 184 677 180 732 180 c 0
 1038 180 1266 269 1367 435 c 1
 1371 441 1375 450 1380 459 c 1
2709 -8 m 1
 2775 -20 2850 -44 2929 -81 c 1
 2955 -36 2974 20 2974 80 c 0
 2974 135 2957 184 2933 223 c 1
 2932 104 2834 4 2709 -8 c 1
2616 0 m 1
 2508 29 2440 122 2432 218 c 1
 2371 187 2274 136 2239 118 c 1
 2092 46 1965 9 1858 9 c 0
 1712 9 1567 90 1567 242 c 0
 1567 350 1638 419 1727 451 c 1
 1681 470 1644 501 1616 537 c 1
 1610 521 1605 507 1598 488 c 1
 1474 150 1178 -7 732 -7 c 0
 611 -7 l 0
 381 -7 88 3 88 240 c 0
 88 340 154 409 235 443 c 1
 136 486 75 582 75 690 c 0
 75 899 263 1020 478 1020 c 0
 615 1020 716 974 787 890 c 1
 853 962 947 1013 1064 1013 c 0
 1269 1013 1445 871 1445 678 c 0
 1445 645 1441 613 1434 583 c 1
 1455 631 1475 679 1491 710 c 0
 1514 754 1551 795 1593 829 c 1
 1656 951 1786 1032 1957 1032 c 0
 2095 1032 2196 988 2267 903 c 1
 2340 984 2427 1025 2555 1025 c 0
 2760 1025 2924 872 2924 680 c 0
 2924 620 2906 559 2875 505 c 1
 3047 443 3166 277 3166 69 c 0
 3166 -66 3113 -157 3044 -261 c 1
 2982 -356 2870 -423 2780 -462 c 1
 2728 -483 2677 -494 2628 -494 c 0
 2496 -494 2352 -401 2352 -244 c 0
 2352 -90 2480 -3 2616 0 c 1
EndSplineSet
LCarets2: 1 0
EndChar

StartChar: ch3nj
Encoding: 279 -1 212
Width: 3950
GlyphClass: 3
LigCaretCntFixed: 1
Flags: HW
LayerCount: 2
Fore
SplineSet
1628 393 m 0
 1628 276 1698 175 1806 175 c 0
 1879 175 1940 232 1940 298 c 0
 1940 380 1858 438 1764 438 c 0
 1725 438 1677 431 1628 419 c 1
 1628 409 1628 402 1628 393 c 0
416 659 m 0
 416 696 382 726 339 726 c 0
 295 726 266 697 266 670 c 0
 266 631 309 593 347 593 c 0
 380 593 416 619 416 659 c 0
3042 187 m 0
 3176 187 3256 314 3256 438 c 0
 3256 585 3154 703 3047 760 c 1
 2923 697 2828 582 2828 429 c 0
 2828 303 2912 187 3042 187 c 0
751 429 m 1
 718 442 693 471 693 506 c 0
 693 662 l 1
 691 746 637 802 552 823 c 1
 586 780 609 721 609 656 c 0
 609 568 560 494 494 449 c 1
 585 444 665 434 751 429 c 1
812 427 m 1
 831 426 850 426 870 426 c 0
 1075 426 1256 507 1256 662 c 0
 1256 755 1170 826 1061 826 c 0
 958 826 879 740 879 661 c 0
 879 499 l 0
 879 464 845 436 812 427 c 1
1402 488 m 1
 1421 502 1439 515 1457 527 c 1
 1522 769 1719 1016 2014 1016 c 0
 2181 1016 2322 906 2397 790 c 1
 2483 917 2629 1008 2824 1008 c 0
 2906 1008 2980 994 3048 969 c 1
 3124 996 3195 1007 3266 1007 c 0
 3592 1007 3876 775 3876 458 c 0
 3876 249 3753 93 3608 9 c 1
 3592 -1 3573 -4 3554 -4 c 0
 3512 -4 3463 33 3463 77 c 0
 3463 120 3483 149 3517 168 c 0
 3601 215 3684 324 3684 454 c 0
 3684 659 3493 812 3282 816 c 1
 3375 725 3446 591 3446 433 c 0
 3446 205 3294 -1 3038 -1 c 0
 2889 -1 2770 90 2710 184 c 1
 2665 250 2637 335 2637 429 c 0
 2637 597 2716 728 2813 819 c 1
 2640 814 2526 713 2493 583 c 1
 2493 87 l 0
 2493 37 2449 -2 2398 -2 c 0
 2347 -2 2303 37 2303 87 c 0
 2303 408 l 0
 2303 594 2273 695 2162 765 c 1
 2113 799 2063 826 2017 826 c 0
 1868 826 1769 738 1701 623 c 1
 1725 626 1745 628 1767 628 c 0
 1957 628 2130 495 2130 301 c 0
 2130 119 1990 -16 1798 -16 c 0
 1608 -16 1484 128 1449 274 c 1
 1249 111 1044 -18 676 -18 c 0
 665 -18 654 -18 643 -18 c 0
 412 -18 88 -16 88 235 c 0
 88 333 154 399 235 433 c 1
 136 477 76 576 76 685 c 0
 76 897 263 1022 478 1022 c 0
 615 1022 716 976 787 892 c 1
 853 964 947 1015 1064 1015 c 0
 1269 1015 1445 869 1445 671 c 0
 1445 604 1429 541 1402 488 c 1
1107 259 m 1
 1033 241 953 232 870 232 c 0
 716 232 534 263 386 264 c 1
 316 264 279 247 279 226 c 0
 279 184 525 172 649 172 c 0
 871 172 1003 208 1107 259 c 1
EndSplineSet
LCarets2: 2 0 0
EndChar

StartChar: ch3r3
Encoding: 280 -1 213
Width: 2116
GlyphClass: 3
Flags: HW
LayerCount: 2
Fore
SplineSet
1588 156 m 0
 1620 156 1645 182 1645 212 c 0
 1645 246 1610 271 1568 278 c 1
 1546 255 1533 230 1533 210 c 0
 1533 182 1559 156 1588 156 c 0
1022 258 m 1
 936 267 819 279 775 279 c 0
 701 279 653 257 653 229 c 0
 653 209 694 177 744 177 c 0
 851 177 917 205 1022 258 c 1
715 729 m 0
 674 729 642 707 642 666 c 0
 642 625 684 591 725 591 c 0
 762 591 793 621 793 658 c 0
 793 702 757 729 715 729 c 0
1196 425 m 1
 1221 423 1246 423 1271 423 c 0
 1460 423 1632 512 1632 656 c 0
 1632 661 l 1
 1631 756 1548 826 1441 826 c 0
 1317 826 1256 766 1256 667 c 0
 1256 509 l 0
 1256 473 1235 438 1196 425 c 1
1118 431 m 1
 1091 446 1072 475 1070 504 c 0
 1070 504 l 1
 1070 651 l 1
 1064 769 1019 828 905 832 c 1
 949 790 986 729 986 659 c 0
 986 569 937 498 872 457 c 1
 957 451 1037 439 1118 431 c 1
618 433 m 1
 517 475 452 573 452 682 c 0
 452 883 633 1021 849 1021 c 0
 978 1021 1106 973 1166 882 c 1
 1224 960 1327 1018 1440 1018 c 0
 1644 1018 1822 869 1822 674 c 0
 1822 603 1804 538 1771 482 c 1
 1921 436 2041 287 2041 110 c 0
 2041 -296 1664 -415 1257 -416 c 1
 974 -416 l 0
 416 -416 75 -100 75 425 c 0
 75 618 139 828 254 987 c 1
 271 1012 298 1027 328 1027 c 0
 380 1027 427 990 427 937 c 0
 427 915 420 895 408 879 c 1
 317 754 265 583 265 429 c 0
 265 4 536 -227 973 -227 c 0
 1255 -227 l 1
 1578 -226 1850 -154 1850 113 c 0
 1850 138 1844 166 1834 193 c 1
 1826 69 1723 -34 1589 -34 c 0
 1454 -34 1343 72 1343 203 c 0
 1343 208 1344 214 1344 219 c 1
 1172 138 940 -14 753 -14 c 0
 607 -14 464 78 464 225 c 0
 464 233 465 237 465 238 c 0
 465 240 l 1
 465 240 l 0
 472 337 533 401 618 433 c 1
EndSplineSet
EndChar

StartChar: njch1
Encoding: 287 -1 220
Width: 2734
GlyphClass: 3
LigCaretCntFixed: 1
Flags: HW
LayerCount: 2
Fore
SplineSet
1503 1025 m 0
 1557 1025 1612 1011 1653 992 c 1
 1697 1013 1754 1028 1804 1028 c 0
 2092 1028 2322 822 2322 552 c 0
 2322 400 2245 273 2152 190 c 1
 2469 191 l 1
 2469 934 l 0
 2469 983 2511 1024 2564 1024 c 0
 2616 1024 2659 985 2659 934 c 0
 2659 92 l 0
 2659 42 2617 2 2565 2 c 1
 1447 -3 l 1
 1446 -3 l 1
 1445 -3 l 0
 1394 -1 1357 44 1357 92 c 0
 1357 143 1398 187 1451 187 c 1
 1603 188 l 1
 1880 205 2131 297 2131 547 c 0
 2131 679 2040 783 1922 827 c 1
 1961 770 1989 698 1989 617 c 0
 1989 441 1854 286 1668 286 c 0
 1480 286 1342 446 1342 624 c 0
 1342 706 1372 780 1409 836 c 1
 1250 798 1192 667 1192 462 c 0
 1192 65 l 0
 1192 15 1148 -24 1097 -24 c 0
 1046 -24 1003 16 1002 69 c 1
 1002 70 l 1
 1000 455 l 1
 998 691 915 837 680 837 c 0
 482 837 319 705 276 530 c 1
 340 601 432 648 539 648 c 0
 736 648 886 490 886 315 c 0
 886 119 714 -24 512 -24 c 0
 241 -24 75 205 75 441 c 0
 75 764 341 1025 681 1025 c 0
 862 1025 1009 941 1093 827 c 1
 1177 949 1317 1025 1503 1025 c 0
1668 477 m 0
 1746 477 1798 542 1798 623 c 0
 1798 719 1731 783 1655 817 c 1
 1590 783 1532 717 1532 633 c 0
 1532 548 1589 477 1668 477 c 0
516 164 m 2
 617 164 696 230 696 315 c 0
 696 388 630 456 539 456 c 0
 445 456 377 383 377 306 c 0
 377 231 440 183 514 164 c 1
 516 164 l 2
EndSplineSet
LCarets2: 2 0 0
EndChar

StartChar: njch3
Encoding: 291 -1 224
Width: 2807
GlyphClass: 3
LigCaretCntFixed: 1
Flags: HW
LayerCount: 2
Fore
SplineSet
2098 404 m 1
 2106 404 2114 404 2122 404 c 0
 2340 404 2536 477 2536 665 c 0
 2536 777 2455 861 2340 861 c 0
 2211 861 2163 791 2161 641 c 1
 2161 490 l 1
 2160 450 2133 417 2098 404 c 1
2023 407 m 1
 1991 422 1969 456 1969 493 c 0
 1969 637 l 0
 1969 776 1943 841 1845 858 c 1
 1877 803 1894 741 1894 678 c 0
 1894 576 1846 479 1768 423 c 1
 1850 421 1939 412 2023 407 c 1
1523 397 m 1
 1407 443 1345 564 1345 678 c 0
 1345 734 1358 792 1385 844 c 1
 1244 792 1187 645 1187 426 c 0
 1187 47 l 0
 1187 -5 1144 -48 1092 -48 c 0
 1042 -48 997 -6 997 46 c 0
 997 420 l 1
 995 686 901 860 667 860 c 0
 488 860 325 726 279 561 c 1
 339 621 415 648 483 648 c 0
 679 648 837 482 837 293 c 0
 837 101 674 -53 492 -53 c 0
 241 -53 75 183 75 438 c 0
 75 769 315 1051 652 1051 c 0
 851 1051 995 971 1087 833 c 1
 1162 952 1309 1053 1485 1053 c 0
 1529 1053 1578 1041 1619 1021 c 1
 1663 1047 1716 1056 1760 1056 c 0
 1885 1056 1997 1005 2067 929 c 1
 2128 1002 2221 1055 2336 1055 c 0
 2555 1055 2728 885 2728 667 c 0
 2728 554 2685 464 2611 389 c 1
 2678 348 2732 271 2732 176 c 0
 2732 36 2631 -52 2496 -52 c 0
 2359 -52 2243 36 2234 162 c 1
 2074 70 1853 -73 1667 -73 c 0
 1520 -73 1356 12 1356 175 c 0
 1356 297 1430 365 1523 397 c 1
1614 567 m 0
 1666 567 1705 613 1705 672 c 0
 1705 742 1674 791 1620 826 c 1
 1576 796 1530 739 1530 683 c 0
 1530 618 1575 567 1614 567 c 0
648 290 m 0
 648 377 574 458 486 458 c 0
 387 458 316 370 316 289 c 0
 316 210 401 133 490 133 c 0
 570 133 648 206 648 290 c 0
2492 117 m 0
 2520 117 2555 139 2555 178 c 0
 2555 206 2524 238 2485 238 c 0
 2450 238 2424 217 2424 178 c 0
 2424 145 2458 117 2492 117 c 0
1981 221 m 1
 1899 226 1786 234 1705 234 c 0
 1608 234 1545 211 1545 174 c 0
 1545 152 1601 119 1670 119 c 0
 1778 119 1857 149 1981 221 c 1
EndSplineSet
LCarets2: 2 0 0
EndChar

StartChar: njch3u1
Encoding: 292 -1 225
Width: 3088
GlyphClass: 3
LigCaretCntFixed: 1
Flags: HW
LayerCount: 2
Fore
SplineSet
2452 163 m 0
 2452 132 2468 116 2502 116 c 0
 2532 116 2555 141 2555 173 c 0
 2555 204 2532 225 2501 237 c 1
 2464 212 2452 191 2452 163 c 0
1559 193 m 0
 1559 171 1600 141 1658 141 c 0
 1772 141 1833 167 1957 235 c 1
 1865 241 1743 250 1678 250 c 0
 1603 250 1559 227 1559 193 c 0
495 156 m 0
 589 156 649 243 649 307 c 0
 649 396 575 467 483 467 c 0
 394 467 317 397 317 319 c 0
 317 225 384 156 495 156 c 0
1616 577 m 0
 1660 577 1705 620 1705 676 c 0
 1705 747 1676 794 1620 828 c 1
 1572 796 1529 737 1529 681 c 0
 1529 632 1577 577 1616 577 c 0
2099 415 m 1
 2106 415 2114 415 2121 415 c 0
 2317 415 2440 463 2509 577 c 0
 2529 610 2539 642 2539 676 c 0
 2539 780 2448 862 2339 862 c 0
 2229 862 2161 781 2161 653 c 0
 2161 500 l 1
 2160 463 2133 429 2099 415 c 1
2023 418 m 1
 1990 433 1969 466 1969 502 c 0
 1969 671 l 0
 1969 763 1922 832 1848 855 c 1
 1879 801 1894 744 1894 684 c 0
 1894 586 1846 491 1770 437 c 1
 1844 432 1939 423 2023 418 c 1
1521 407 m 1
 1410 449 1342 557 1342 679 c 0
 1342 745 1358 798 1384 844 c 1
 1269 803 1187 705 1187 590 c 0
 1187 68 l 0
 1187 21 1145 -24 1096 -24 c 0
 1040 -24 997 16 997 67 c 0
 997 433 l 1
 996 577 987 647 932 728 c 1
 877 809 779 861 666 861 c 0
 481 861 350 752 294 603 c 1
 352 639 417 657 483 657 c 0
 679 657 837 496 837 309 c 0
 837 120 678 -33 485 -33 c 0
 232 -33 76 203 76 453 c 0
 76 734 246 931 459 1012 c 0
 525 1037 593 1051 659 1051 c 0
 854 1051 996 967 1086 834 c 1
 1161 954 1307 1054 1488 1054 c 0
 1532 1054 1578 1048 1621 1035 c 1
 1671 1051 1715 1055 1760 1055 c 0
 1885 1055 1997 1004 2067 928 c 1
 2128 1001 2222 1054 2336 1054 c 0
 2547 1054 2729 893 2729 688 c 0
 2729 608 2708 538 2673 480 c 1
 2886 477 3064 324 3064 112 c 0
 3064 19 3027 -69 2966 -132 c 1
 2829 -276 2669 -306 2406 -306 c 0
 1713 -306 l 1
 1611 -307 1561 -336 1561 -357 c 0
 1561 -396 1641 -409 1728 -409 c 0
 2968 -409 l 0
 3012 -409 3064 -460 3064 -506 c 0
 3064 -546 3030 -601 2983 -601 c 0
 1717 -601 l 0
 1589 -601 1496 -574 1442 -516 c 1
 1397 -467 1371 -411 1371 -354 c 0
 1371 -171 1551 -122 1741 -122 c 0
 2405 -122 l 1
 2671 -120 2873 -64 2873 113 c 0
 2873 199 2806 266 2723 285 c 1
 2741 249 2746 211 2746 174 c 0
 2746 47 2638 -75 2501 -75 c 0
 2375 -75 2261 27 2261 161 c 0
 2261 172 2262 184 2264 195 c 1
 2190 156 2084 95 2046 72 c 1
 1902 -10 1776 -50 1666 -50 c 0
 1520 -50 1368 35 1368 191 c 0
 1368 296 1432 369 1521 407 c 1
EndSplineSet
LCarets2: 1 0
EndChar

StartChar: njch3u2
Encoding: 293 -1 226
Width: 3182
GlyphClass: 3
LigCaretCntFixed: 1
Flags: HW
LayerCount: 2
Fore
SplineSet
2511 237 m 1
 2498 234 2456 172 2456 148 c 0
 2456 131 2483 107 2507 107 c 0
 2534 107 2561 135 2561 169 c 0
 2561 195 2524 237 2511 237 c 1
1559 196 m 0
 1559 172 1599 142 1658 142 c 0
 1676 142 1697 144 1723 148 c 1
 1772 154 1850 184 1953 237 c 1
 1860 244 1741 254 1678 254 c 0
 1604 254 1559 230 1559 196 c 0
495 158 m 0
 589 158 649 244 649 308 c 0
 649 397 575 468 483 468 c 0
 394 468 318 399 318 321 c 0
 318 226 382 158 495 158 c 0
1618 583 m 0
 1662 583 1705 628 1705 682 c 0
 1705 751 1675 796 1620 829 c 1
 1572 797 1530 740 1530 684 c 0
 1530 634 1574 583 1618 583 c 0
2101 422 m 1
 2116 422 2131 421 2145 421 c 0
 2347 421 2474 491 2523 607 c 0
 2534 634 2540 659 2540 682 c 0
 2540 782 2448 863 2340 863 c 0
 2230 863 2161 783 2161 655 c 0
 2161 503 l 1
 2160 466 2134 436 2101 422 c 1
2019 425 m 1
 1989 441 1969 471 1969 506 c 0
 1969 673 l 0
 1969 769 1926 828 1850 853 c 1
 1880 801 1895 744 1895 685 c 0
 1895 587 1846 494 1770 441 c 1
 1840 437 1931 430 2019 425 c 1
1524 411 m 1
 1410 454 1341 567 1341 685 c 0
 1341 749 1359 802 1384 846 c 1
 1268 805 1187 706 1187 591 c 0
 1187 69 l 0
 1187 18 1144 -23 1092 -23 c 0
 1042 -23 997 19 997 69 c 0
 997 435 l 1
 996 579 987 648 932 729 c 1
 877 810 780 862 667 862 c 0
 480 862 349 754 294 607 c 1
 351 641 417 658 483 658 c 0
 678 658 837 497 837 311 c 0
 837 122 680 -32 486 -32 c 0
 233 -32 76 205 76 455 c 0
 76 736 246 933 459 1014 c 0
 526 1039 593 1052 659 1052 c 0
 854 1052 997 969 1087 835 c 1
 1167 962 1308 1054 1492 1054 c 0
 1537 1054 1580 1048 1621 1036 c 1
 1671 1052 1715 1057 1760 1057 c 0
 1885 1057 1998 1006 2068 930 c 1
 2129 1002 2221 1055 2336 1055 c 0
 2553 1055 2728 890 2728 680 c 0
 2728 624 2716 575 2697 531 c 1
 2716 534 2735 536 2754 536 c 0
 2911 536 3052 422 3052 270 c 0
 3052 235 3044 200 3026 165 c 1
 3080 118 3108 62 3108 -24 c 0
 3108 -228 2908 -305 2709 -305 c 0
 1713 -305 l 1
 1612 -306 1562 -335 1562 -354 c 0
 1562 -393 1639 -407 1727 -407 c 0
 2968 -407 l 0
 3021 -407 3064 -452 3064 -504 c 0
 3064 -544 3030 -599 2983 -599 c 0
 1717 -599 l 0
 1589 -599 1497 -573 1442 -515 c 1
 1397 -466 1372 -409 1372 -352 c 0
 1372 -170 1551 -120 1741 -120 c 0
 2724 -120 l 0
 2834 -120 2919 -78 2919 -23 c 0
 2919 9 2895 37 2872 37 c 0
 2864 37 2851 34 2833 34 c 0
 2792 34 2750 80 2750 118 c 0
 2750 230 2861 209 2861 268 c 0
 2861 311 2812 346 2753 346 c 0
 2733 346 2707 342 2683 334 c 1
 2728 286 2751 234 2751 173 c 0
 2751 37 2648 -82 2506 -82 c 0
 2371 -82 2269 13 2269 150 c 0
 2269 167 2272 185 2275 202 c 1
 2196 162 2083 97 2044 75 c 1
 1900 -7 1774 -49 1664 -49 c 0
 1518 -49 1368 40 1368 194 c 0
 1368 301 1434 374 1524 411 c 1
EndSplineSet
LCarets2: 1 0
EndChar

StartChar: njnj
Encoding: 294 -1 227
Width: 3824
GlyphClass: 3
LigCaretCntFixed: 1
Flags: HW
LayerCount: 2
Fore
SplineSet
625 291 m 0
 625 383 541 457 460 457 c 0
 365 457 288 386 288 293 c 0
 288 208 376 132 456 132 c 0
 547 132 625 201 625 291 c 0
2922 788 m 1
 2804 708 2717 572 2717 391 c 0
 2717 260 2794 131 2914 131 c 0
 3039 131 3119 254 3119 395 c 0
 3119 577 3045 703 2922 788 c 1
1668 801 m 1
 1551 725 1461 591 1461 406 c 0
 1461 265 1533 137 1659 137 c 0
 1782 137 1864 266 1864 399 c 0
 1864 588 1791 721 1668 801 c 1
647 1051 m 0
 826 1051 963 962 1044 838 c 1
 1133 967 1284 1052 1454 1052 c 0
 1523 1052 1599 1038 1668 1008 c 1
 1744 1039 1816 1054 1887 1054 c 0
 2067 1054 2206 966 2287 850 c 1
 2370 973 2515 1051 2688 1051 c 0
 2765 1051 2845 1033 2922 998 c 1
 3006 1036 3087 1050 3166 1050 c 0
 3491 1050 3749 789 3749 464 c 0
 3749 223 3606 37 3437 -50 c 1
 3422 -57 3406 -61 3388 -61 c 0
 3346 -61 3301 -22 3301 22 c 0
 3301 69 3324 97 3360 116 c 1
 3465 169 3566 307 3566 468 c 0
 3566 691 3393 866 3170 866 c 0
 3152 866 3132 864 3115 862 c 1
 3231 744 3303 593 3303 399 c 0
 3303 170 3161 -54 2918 -54 c 0
 2676 -54 2536 164 2536 392 c 0
 2536 591 2609 744 2727 862 c 1
 2711 864 2698 865 2684 865 c 0
 2471 865 2384 733 2384 501 c 0
 2384 36 l 0
 2384 -11 2353 -55 2300 -55 c 0
 2248 -55 2209 -13 2208 36 c 1
 2208 462 l 1
 2203 708 2114 867 1894 867 c 0
 1887 867 1877 866 1870 866 c 1
 1974 756 2046 603 2046 413 c 0
 2046 178 1909 -48 1660 -48 c 0
 1415 -48 1277 175 1277 406 c 0
 1277 600 1346 752 1461 866 c 1
 1458 866 1457 866 1454 866 c 0
 1218 866 1135 704 1132 438 c 1
 1132 42 l 1
 1131 -10 1083 -48 1035 -48 c 0
 984 -48 944 -6 944 44 c 0
 944 473 l 0
 944 606 940 667 888 745 c 1
 844 810 758 866 655 866 c 1
 485 865 366 746 305 608 c 1
 352 631 399 642 452 642 c 0
 641 642 805 489 805 292 c 0
 805 92 656 -53 451 -53 c 0
 217 -53 75 179 75 401 c 0
 75 733 319 1051 647 1051 c 0
EndSplineSet
LCarets2: 2 0 0
EndChar

StartChar: t1r1
Encoding: 299 -1 232
Width: 1153
GlyphClass: 3
LigCaretCntFixed: 1
Flags: HW
LayerCount: 2
Fore
SplineSet
576 1025 m 0
 777 1025 931 955 1012 812 c 1
 1019 799 1025 782 1025 765 c 0
 1025 714 982 673 930 673 c 0
 897 673 863 695 847 722 c 1
 802 799 711 835 577 835 c 0
 439 835 302 799 302 701 c 0
 302 653 355 606 404 586 c 1
 551 525 750 565 908 468 c 1
 993 416 1078 313 1078 179 c 0
 1078 -103 775 -177 529 -177 c 0
 413 -177 l 0
 260 -177 75 -118 75 64 c 0
 75 224 223 298 366 298 c 0
 509 298 l 1
 658 292 804 221 809 60 c 1
 854 88 888 129 888 180 c 0
 888 237 849 288 808 313 c 1
 685 388 510 342 330 416 c 1
 227 458 112 556 112 703 c 0
 112 944 365 1025 576 1025 c 0
377 103 m 2
 308 103 265 92 265 66 c 0
 265 26 329 11 431 11 c 0
 529 11 l 0
 592 11 619 20 619 47 c 0
 619 88 576 100 503 103 c 1
 377 103 l 2
EndSplineSet
LCarets2: 1 0
EndChar

StartChar: t1t1
Encoding: 300 -1 233
Width: 1161
GlyphClass: 3
LigCaretCntFixed: 1
Flags: HW
LayerCount: 2
Fore
SplineSet
596 -341 m 0
 741 -341 897 -261 897 -141 c 0
 897 -48 802 -9 663 -4 c 1
 242 -4 l 1
 186 -1 149 55 149 109 c 0
 149 147 187 199 230 199 c 0
 694 199 l 0
 824 199 894 222 894 283 c 0
 894 354 811 395 634 399 c 0
 399 404 125 451 125 701 c 0
 125 901 345 1017 557 1017 c 0
 778 1017 933 930 1033 816 c 1
 1051 799 1056 779 1056 758 c 0
 1056 710 1011 672 960 672 c 0
 932 672 908 683 890 702 c 1
 812 783 705 827 562 827 c 0
 437 827 316 777 316 704 c 0
 316 703 l 0
 316 605 458 594 635 591 c 1
 875 586 1083 499 1083 284 c 0
 1083 197 1038 129 986 85 c 1
 1040 33 1087 -47 1087 -145 c 0
 1087 -395 826 -531 599 -531 c 0
 365 -531 198 -425 95 -289 c 1
 82 -270 75 -248 75 -224 c 0
 75 -167 121 -126 173 -126 c 0
 202 -126 228 -141 246 -167 c 1
 327 -281 441 -341 596 -341 c 0
EndSplineSet
LCarets2: 2 0 0
EndChar

StartChar: t1r3
Encoding: 303 -1 236
Width: 1444
GlyphClass: 3
Flags: HW
LayerCount: 2
Fore
SplineSet
855 835 m 0
 711 835 588 784 588 710 c 0
 588 615 715 593 871 592 c 1
 1145 588 1370 513 1370 272 c 0
 1370 19 1107 -51 863 -51 c 0
 425 -51 75 161 75 585 c 0
 75 754 143 892 228 991 c 1
 246 1013 269 1025 298 1025 c 0
 350 1025 395 985 395 934 c 0
 395 911 387 889 373 872 c 1
 314 802 265 705 265 587 c 0
 265 290 522 138 848 138 c 0
 1032 138 1180 170 1180 270 c 0
 1180 354 1092 401 884 401 c 1
 640 402 398 461 398 711 c 0
 398 913 617 1025 858 1025 c 0
 1050 1025 1201 962 1305 828 c 1
 1318 811 1325 793 1325 770 c 0
 1325 718 1278 680 1227 680 c 0
 1198 680 1172 694 1154 717 c 1
 1090 797 992 835 855 835 c 0
EndSplineSet
LCarets2: 1 0
EndChar

StartChar: t3r1
Encoding: 310 -1 243
Width: 2477
GlyphClass: 3
UnlinkRmOvrlpSave: 1
Flags: HW
LayerCount: 2
Fore
SplineSet
1493 158 m 1
 1434 62 1335 -21 1198 -21 c 0
 940 -21 849 219 849 452 c 0
 849 541 l 0
 849 740 770 868 588 868 c 0
 391 868 267 693 267 525 c 0
 267 321 443 177 623 169 c 1
 673 168 715 124 715 74 c 0
 715 22 673 -21 620 -21 c 1
 342 -9 75 211 75 531 c 0
 75 788 276 1060 592 1060 c 0
 867 1060 1044 830 1044 556 c 0
 1044 502 1040 452 1040 407 c 0
 1040 284 1094 169 1198 169 c 0
 1352 169 1382 362 1382 548 c 0
 1382 971 l 1
 1383 1024 1429 1065 1480 1065 c 0
 1532 1065 1574 1022 1574 972 c 0
 1574 537 l 0
 1574 420 1577 379 1627 293 c 1
 1674 214 1773 167 1873 167 c 0
 2077 167 2211 346 2211 518 c 0
 2211 727 2024 874 1836 874 c 0
 1819 874 1796 868 1770 868 c 0
 1718 868 1675 911 1675 963 c 0
 1675 1057 1776 1064 1839 1064 c 0
 2126 1064 2402 834 2402 499 c 0
 2402 -118 2397 -608 1748 -608 c 0
 1575 -608 1386 -537 1386 -341 c 0
 1386 -147 1575 -66 1747 -66 c 0
 1906 -66 2067 -126 2108 -273 c 1
 2178 -182 2204 -49 2212 105 c 1
 2122 26 2004 -25 1866 -25 c 0
 1717 -25 1579 43 1493 158 c 1
1926 -336 m 0
 1926 -274 1885 -240 1770 -240 c 0
 1631 -240 1578 -277 1578 -344 c 0
 1578 -386 1619 -419 1757 -419 c 0
 1882 -419 1926 -385 1926 -336 c 0
EndSplineSet
EndChar

StartChar: t3t3
Encoding: 311 -1 244
Width: 2442
GlyphClass: 3
LigCaretCntFixed: 1
Flags: HW
LayerCount: 2
Fore
SplineSet
1002 -160 m 0
 885 -160 793 -265 793 -376 c 0
 793 -467 885 -580 959 -582 c 1
 1019 -583 1079 -600 1079 -670 c 0
 1079 -706 1049 -755 1006 -755 c 0
 806 -755 622 -593 622 -395 c 0
 622 -173 782 13 1006 13 c 0
 1201 13 1317 -134 1317 -317 c 0
 1317 -346 1314 -378 1314 -403 c 0
 1314 -530 1350 -591 1467 -591 c 0
 1586 -591 1622 -483 1622 -347 c 0
 1622 -76 l 0
 1622 -33 1657 8 1702 8 c 0
 1755 8 1790 -22 1791 -76 c 1
 1791 -392 l 1
 1801 -498 1884 -586 2004 -586 c 0
 2117 -586 2217 -495 2217 -380 c 0
 2217 -245 2118 -164 1979 -164 c 0
 1936 -164 1905 -116 1905 -80 c 0
 1905 -16 1970 10 2043 10 c 0
 2226 10 2383 -196 2383 -377 c 0
 2383 -597 2207 -759 1981 -759 c 0
 1879 -759 1792 -715 1720 -631 c 1
 1657 -717 1564 -762 1465 -762 c 0
 1288 -762 1142 -633 1142 -443 c 0
 1142 -399 l 0
 1142 -364 1150 -341 1150 -289 c 0
 1150 -218 1080 -160 1002 -160 c 0
EndSplineSet
Refer: 69 3361 S 1 0 0 1 0 -1 2
LCarets2: 2 0 0
EndChar

StartChar: t3t4
Encoding: 314 -1 247
Width: 2441
GlyphClass: 3
LigCaretCntFixed: 1
Flags: HW
LayerCount: 2
Fore
SplineSet
1857 -398 m 0
 1911 -398 1961 -346 1961 -295 c 0
 1961 -239 1918 -187 1856 -187 c 0
 1855 -187 1850 -188 1842 -188 c 0
 1800 -188 1748 -241 1748 -293 c 0
 1748 -355 1800 -398 1857 -398 c 0
1096 -479 m 0
 1096 -554 1132 -625 1189 -625 c 1
 1261 -624 1311 -550 1311 -352 c 0
 1311 -97 l 1
 1312 -52 1353 -14 1396 -14 c 0
 1450 -14 1485 -46 1485 -99 c 0
 1485 -402 l 0
 1485 -537 1553 -629 1690 -629 c 0
 1770 -629 1830 -609 1878 -570 c 1
 1869 -571 1861 -571 1853 -571 c 0
 1705 -571 1578 -450 1578 -295 c 0
 1578 -149 1696 -13 1843 -13 c 0
 2027 -13 2160 -152 2160 -350 c 0
 2160 -396 2151 -441 2138 -480 c 1
 2080 -656 1912 -802 1686 -802 c 0
 1569 -802 1474 -758 1405 -677 c 1
 1360 -742 1290 -798 1183 -798 c 0
 1007 -798 927 -622 927 -456 c 0
 927 -414 931 -392 931 -346 c 0
 931 -250 854 -176 753 -176 c 0
 624 -176 522 -273 522 -400 c 0
 522 -546 622 -625 768 -625 c 0
 811 -625 842 -674 842 -710 c 0
 842 -757 805 -797 757 -797 c 0
 539 -797 352 -626 352 -405 c 0
 352 -185 524 -5 749 -5 c 0
 958 -5 1100 -147 1100 -362 c 0
 1100 -402 1096 -451 1096 -479 c 0
EndSplineSet
Refer: 69 3361 S 1 0 0 1 -0 0 2
LCarets2: 2 0 0
EndChar

StartChar: t3r3
Encoding: 317 -1 250
Width: 3079
GlyphClass: 3
Flags: HW
LayerCount: 2
Fore
SplineSet
1719 -8 m 0
 1440 -8 1315 219 1315 464 c 0
 1315 490 1316 519 1316 542 c 0
 1316 621 1308 675 1299 697 c 1
 1260 786 1173 848 1047 848 c 0
 859 848 705 699 705 528 c 0
 705 356 856 204 1048 204 c 0
 1082 204 l 0
 1129 204 1163 150 1163 110 c 0
 1163 40 1103 14 1047 14 c 0
 748 14 514 245 514 531 c 0
 514 643 551 745 624 836 c 0
 700 931 853 1038 1029 1038 c 0
 1256 1038 1407 923 1470 773 c 1
 1494 720 1505 653 1505 573 c 0
 1505 539 1503 502 1503 473 c 0
 1503 318 1559 183 1703 183 c 0
 1735 183 1766 193 1798 213 c 1
 1893 273 1919 371 1919 560 c 0
 1919 923 l 1
 1920 977 1966 1018 2016 1018 c 0
 2065 1018 2109 978 2109 930 c 0
 2109 503 l 0
 2109 317 2264 176 2462 176 c 0
 2664 176 2814 317 2814 504 c 0
 2814 697 2641 829 2460 829 c 0
 2452 829 2443 829 2438 828 c 0
 2437 828 l 1
 2435 828 l 0
 2398 828 2334 868 2334 917 c 0
 2334 1002 2403 1018 2464 1018 c 0
 2706 1018 2871 882 2952 715 c 1
 2986 645 3003 573 3003 497 c 0
 3003 489 3002 477 3002 474 c 1
 3004 450 3004 429 3004 408 c 0
 3004 176 2915 -22 2801 -162 c 1
 2617 -408 2386 -503 2034 -503 c 0
 1373 -503 l 0
 1147 -503 969 -493 841 -461 c 1
 522 -383 275 -191 152 93 c 1
 102 199 75 318 75 441 c 0
 75 652 152 825 253 956 c 1
 271 980 296 992 322 992 c 0
 366 992 416 959 416 906 c 0
 416 884 409 866 397 851 c 1
 319 748 255 598 255 429 c 0
 255 219 345 54 458 -60 c 0
 613 -217 829 -327 1112 -327 c 0
 2033 -327 l 1
 2362 -326 2512 -250 2659 -44 c 1
 2681 -14 2704 20 2721 51 c 1
 2642 8 2556 -14 2463 -14 c 0
 2270 -14 2124 80 2033 196 c 1
 1972 93 1859 -8 1719 -8 c 0
EndSplineSet
LCarets2: 1 0
EndChar

StartChar: t4r1
Encoding: 322 -1 255
Width: 2654
GlyphClass: 3
LigCaretCntFixed: 1
Flags: HW
LayerCount: 2
Fore
SplineSet
1753 -264 m 0
 1753 -330 1851 -376 1938 -376 c 0
 2025 -376 2103 -331 2159 -282 c 1
 2016 -216 1917 -185 1857 -185 c 0
 1799 -185 1753 -221 1753 -264 c 0
2349 658 m 0
 2349 754 2255 811 2178 811 c 0
 2170 811 2158 810 2149 810 c 1
 2062 795 1996 742 1996 651 c 0
 1996 562 2076 492 2172 492 c 0
 2277 492 2349 567 2349 658 c 0
1818 6 m 1
 1695 32 1601 96 1535 182 c 1
 1477 84 1376 0 1224 0 c 0
 1007 0 886 212 886 401 c 0
 886 455 891 512 891 559 c 0
 891 672 871 718 799 770 c 1
 752 804 687 826 612 826 c 0
 412 826 265 691 265 509 c 0
 265 314 417 189 634 189 c 0
 681 189 716 134 716 94 c 0
 716 31 662 -1 608 -1 c 0
 443 -1 309 74 223 164 c 1
 141 244 75 366 75 512 c 0
 75 803 322 1016 607 1016 c 0
 898 1016 1081 838 1081 561 c 0
 1081 516 1077 463 1077 426 c 0
 1077 334 1085 284 1123 246 c 0
 1161 207 1201 189 1239 189 c 0
 1265 189 1296 198 1325 219 c 1
 1391 271 1429 367 1429 514 c 0
 1429 909 l 1
 1430 966 1480 1003 1536 1003 c 0
 1587 1003 1625 958 1625 913 c 0
 1625 510 l 0
 1625 309 1742 183 1939 183 c 0
 2083 183 2199 238 2277 315 c 1
 2243 304 2211 299 2176 299 c 0
 1959 299 1807 466 1807 654 c 0
 1807 839 1972 1003 2173 1003 c 0
 2426 1003 2583 785 2583 550 c 0
 2583 542 2582 533 2582 531 c 1
 2585 487 2587 448 2587 406 c 0
 2587 119 2515 -135 2370 -354 c 1
 2299 -465 2125 -567 1936 -567 c 0
 1761 -567 1560 -470 1560 -268 c 0
 1560 -114 1683 -13 1818 6 c 1
1985 -6 m 1
 2000 -10 2016 -14 2032 -19 c 1
 2110 -43 2198 -76 2287 -115 c 1
 2349 -9 2386 91 2400 186 c 1
 2300 85 2166 5 1985 -6 c 1
EndSplineSet
LCarets2: 1 0
EndChar

StartChar: nhu1
Encoding: 323 -1 256
Width: 2979
GlyphClass: 3
LigCaretCntFixed: 1
Flags: HW
LayerCount: 2
Fore
SplineSet
2471 183 m 0
 2581 183 2675 240 2675 342 c 0
 2675 438 2593 514 2484 514 c 0
 2371 514 2291 433 2291 342 c 0
 2291 254 2370 183 2471 183 c 0
303 354 m 0
 303 253 397 195 506 195 c 0
 608 195 687 266 687 354 c 0
 687 445 607 526 494 526 c 0
 385 526 303 449 303 354 c 0
2332 803 m 0
 2116 803 1958 652 1958 448 c 0
 1958 78 l 0
 1958 28 1913 -12 1862 -12 c 0
 1811 -12 1768 28 1768 77 c 0
 1768 420 l 0
 1768 556 1760 621 1708 698 c 1
 1666 759 1589 810 1487 810 c 0
 1445 810 1405 801 1367 784 c 1
 1248 725 1211 623 1211 430 c 0
 1211 81 l 0
 1211 31 1167 -8 1116 -8 c 0
 1065 -8 1021 31 1021 81 c 0
 1021 460 l 0
 1021 662 855 816 643 816 c 0
 523 816 425 764 359 695 c 1
 402 712 445 719 491 719 c 0
 708 719 877 565 877 358 c 0
 877 158 714 4 502 4 c 0
 467 4 431 9 396 19 c 1
 205 72 75 243 75 469 c 0
 75 764 329 1007 648 1007 c 0
 855 1007 1009 897 1098 781 c 1
 1171 903 1303 1000 1485 1000 c 0
 1672 1000 1808 899 1881 774 c 1
 1977 897 2146 997 2337 997 c 0
 2590 997 2781 832 2857 663 c 0
 2889 592 2904 519 2904 446 c 0
 2904 218 2740 -7 2477 -7 c 0
 2264 -7 2101 147 2101 348 c 0
 2101 554 2270 706 2486 706 c 0
 2534 706 2581 696 2623 679 c 1
 2557 755 2462 803 2332 803 c 0
EndSplineSet
LCarets2: 1 0
EndChar

StartChar: nhu2
Encoding: 324 -1 257
Width: 3322
GlyphClass: 3
LigCaretCntFixed: 1
Flags: HW
LayerCount: 2
Fore
SplineSet
303 352 m 0
 303 250 397 191 506 191 c 0
 607 191 686 264 686 352 c 0
 686 444 608 526 496 526 c 0
 386 526 303 448 303 352 c 0
2515 184 m 0
 2640 184 2715 301 2715 421 c 0
 2715 467 2704 515 2687 557 c 1
 2523 549 2377 449 2377 324 c 0
 2377 246 2433 184 2515 184 c 0
636 1002 m 0
 832 1002 997 909 1098 779 c 1
 1173 902 1303 997 1485 997 c 0
 1668 997 1802 900 1879 774 c 1
 1976 901 2127 992 2332 992 c 0
 2551 992 2719 867 2811 732 c 1
 3049 678 3247 471 3247 177 c 0
 3247 92 3225 5 3180 -80 c 1
 3092 -255 2899 -409 2656 -409 c 0
 2491 -409 2369 -353 2263 -258 c 1
 2242 -238 2231 -212 2231 -183 c 0
 2231 -127 2272 -79 2325 -79 c 0
 2350 -79 2373 -89 2390 -107 c 1
 2460 -177 2556 -218 2656 -218 c 0
 2876 -218 3057 -46 3057 170 c 0
 3057 317 2993 424 2900 490 c 1
 2904 463 2906 438 2906 413 c 0
 2906 189 2755 -6 2513 -6 c 0
 2324 -6 2186 145 2186 319 c 0
 2186 527 2356 684 2559 731 c 1
 2495 775 2420 802 2333 802 c 0
 2117 802 1958 656 1958 454 c 0
 1958 74 l 0
 1958 24 1915 -16 1863 -16 c 0
 1811 -16 1767 25 1767 74 c 0
 1767 418 l 0
 1767 555 1760 619 1708 696 c 1
 1665 757 1589 806 1485 806 c 0
 1442 806 1404 797 1366 781 c 1
 1250 724 1211 620 1211 426 c 0
 1211 78 l 0
 1211 29 1171 -12 1113 -12 c 0
 1058 -12 1020 33 1020 78 c 0
 1020 458 l 0
 1020 614 928 722 814 776 c 1
 757 801 703 813 654 813 c 0
 521 813 422 764 355 690 c 1
 401 709 448 717 495 717 c 0
 700 717 877 560 877 356 c 0
 877 161 715 -1 506 -1 c 0
 236 -1 75 217 75 464 c 0
 75 759 338 1002 636 1002 c 0
EndSplineSet
LCarets2: 1 3
EndChar

StartChar: nht1
Encoding: 325 -1 258
Width: 2639
GlyphClass: 3
LigCaretCntFixed: 1
Flags: HW
LayerCount: 2
Fore
SplineSet
472 134 m 0
 564 134 625 194 625 289 c 0
 625 374 550 443 479 443 c 0
 375 443 312 365 312 286 c 0
 312 220 383 134 472 134 c 0
2371 755 m 0
 2371 828 2294 862 2190 862 c 0
 1959 862 1792 718 1792 493 c 0
 1792 39 l 0
 1792 -12 1752 -55 1699 -55 c 0
 1649 -55 1604 -14 1604 38 c 0
 1604 487 l 1
 1603 686 1526 857 1359 857 c 0
 1196 857 1127 678 1127 476 c 0
 1127 42 l 0
 1127 -3 1090 -56 1032 -56 c 0
 978 -56 940 4 940 41 c 0
 940 473 l 1
 938 709 828 860 618 860 c 0
 446 860 328 736 283 580 c 1
 339 616 403 634 476 634 c 0
 659 634 813 467 813 285 c 0
 813 100 667 -57 472 -57 c 0
 218 -57 75 188 75 446 c 0
 75 758 289 1052 618 1052 c 0
 802 1052 938 963 1021 844 c 1
 1086 953 1202 1050 1361 1050 c 0
 1527 1050 1646 943 1710 829 c 1
 1816 979 1977 1054 2194 1054 c 0
 2398 1054 2560 937 2560 762 c 0
 2560 598 2437 520 2269 514 c 1
 2243 514 l 1
 2176 512 2167 502 2167 477 c 0
 2167 445 2203 429 2268 429 c 0
 2305 429 l 0
 2443 429 2564 358 2564 215 c 0
 2564 26 2393 -63 2216 -63 c 0
 2131 -63 2049 -41 1972 2 c 1
 1942 18 1922 44 1922 78 c 0
 1922 129 1956 182 2012 182 c 0
 2031 182 2050 177 2065 168 c 1
 2116 141 2164 129 2217 129 c 0
 2314 129 2375 161 2375 212 c 0
 2375 227 2360 237 2304 237 c 0
 2267 237 l 0
 2097 237 1975 324 1975 487 c 0
 1975 627 2098 698 2241 704 c 1
 2266 704 l 1
 2351 707 2371 730 2371 755 c 0
EndSplineSet
LCarets2: 2 0 0
EndChar

StartChar: nht2
Encoding: 328 -1 261
Width: 2595
GlyphClass: 3
LigCaretCntFixed: 1
Flags: HW
LayerCount: 2
Fore
SplineSet
2122 -595 m 0
 2255 -595 2347 -493 2347 -372 c 0
 2347 -271 2299 -204 2193 -161 c 0
 2173 -153 2151 -148 2127 -148 c 0
 2023 -148 1957 -200 1919 -278 c 1
 1904 -309 1897 -341 1897 -371 c 0
 1897 -404 1906 -439 1924 -475 c 1
 1962 -548 2025 -595 2122 -595 c 0
1728 -382 m 0
 1728 -155 1900 22 2124 22 c 0
 2127 22 l 0
 2341 22 2517 -158 2517 -371 c 0
 2517 -590 2338 -767 2119 -767 c 0
 2007 -767 1912 -724 1834 -640 c 1
 1765 -565 1728 -479 1728 -382 c 0
EndSplineSet
Refer: 71 3363 S 0.934814 0 0 0.899963 6 8 2
LCarets2: 2 0 0
EndChar

StartChar: nht3
Encoding: 329 -1 262
Width: 3824
GlyphClass: 3
LigCaretCntFixed: 1
Flags: HW
LayerCount: 2
Fore
SplineSet
475 136 m 0
 565 136 626 199 626 290 c 0
 626 378 545 444 471 444 c 0
 378 444 312 375 312 277 c 0
 312 206 396 136 475 136 c 0
2825 117 m 1
 2767 18 2671 -65 2537 -65 c 0
 2280 -65 2198 163 2193 403 c 1
 2193 519 l 1
 2188 721 2135 862 2004 862 c 0
 1834 862 1793 658 1793 430 c 0
 1793 35 l 0
 1793 -16 1753 -59 1700 -59 c 0
 1650 -59 1605 -18 1605 34 c 0
 1605 390 l 1
 1603 667 1539 864 1361 864 c 0
 1203 864 1129 697 1129 500 c 0
 1129 36 l 0
 1129 -15 1090 -58 1037 -58 c 0
 987 -58 941 -17 941 35 c 0
 941 504 l 1
 929 712 825 861 624 861 c 0
 447 861 329 740 284 582 c 1
 342 619 405 635 469 635 c 0
 657 635 815 474 815 287 c 0
 815 106 666 -56 478 -56 c 0
 217 -56 76 198 76 449 c 0
 76 780 294 1053 625 1053 c 0
 803 1053 941 961 1022 846 c 1
 1087 955 1202 1056 1362 1056 c 0
 1516 1056 1628 961 1693 861 c 1
 1755 960 1865 1053 1995 1053 c 0
 2290 1053 2372 793 2379 524 c 1
 2379 407 l 1
 2383 250 2415 127 2539 127 c 0
 2685 127 2713 314 2713 528 c 0
 2713 961 l 0
 2713 1009 2755 1055 2804 1055 c 0
 2862 1055 2903 1012 2903 960 c 0
 2903 518 l 0
 2903 288 2987 126 3199 126 c 0
 3407 126 3561 295 3561 493 c 0
 3561 706 3401 864 3186 864 c 0
 3158 864 3130 857 3092 857 c 0
 3045 857 3008 908 3008 950 c 0
 3008 1044 3098 1056 3183 1056 c 0
 3494 1056 3750 815 3750 492 c 0
 3750 181 3507 -65 3197 -65 c 0
 3032 -65 2903 15 2825 117 c 1
EndSplineSet
LCarets2: 2 0 0
EndChar

StartChar: nhm1
Encoding: 335 -1 268
Width: 2911
GlyphClass: 3
LigCaretCntFixed: 1
Flags: HW
LayerCount: 2
Fore
SplineSet
481 171 m 0
 556 171 626 226 626 298 c 0
 626 366 562 431 476 431 c 0
 394 431 330 365 330 295 c 0
 330 225 403 171 481 171 c 0
2516 744 m 1
 2523 715 2526 690 2526 661 c 0
 2526 460 2396 292 2263 183 c 1
 2641 183 l 1
 2644 242 2645 292 2645 339 c 0
 2645 530 2617 659 2516 744 c 1
2186 823 m 0
 2035 823 1873 656 1873 515 c 0
 1873 184 l 1
 2097 239 2335 430 2335 662 c 0
 2335 747 2276 823 2186 823 c 0
1811 815 m 1
 1910 932 2068 1025 2254 1025 c 0
 2642 1025 2837 742 2837 370 c 0
 2837 302 2832 136 2831 89 c 0
 2830 38 2791 -7 2735 -7 c 0
 1777 -7 l 0
 1725 -7 1682 33 1682 83 c 0
 1682 527 l 0
 1682 710 1616 834 1457 834 c 0
 1290 834 1201 678 1200 507 c 1
 1200 63 l 0
 1200 12 1152 -26 1102 -26 c 0
 1051 -26 1007 13 1007 63 c 0
 1007 480 l 0
 1007 686 875 836 657 836 c 0
 476 836 340 710 289 564 c 1
 339 598 403 623 477 623 c 0
 669 623 816 480 816 298 c 0
 816 122 667 -20 481 -20 c 0
 227 -20 75 205 75 423 c 0
 75 743 308 1025 656 1025 c 0
 841 1025 986 950 1091 814 c 1
 1163 932 1289 1024 1459 1024 c 0
 1627 1024 1747 930 1811 815 c 1
EndSplineSet
LCarets2: 2 0 0
EndChar

StartChar: th1u1
Encoding: 338 -1 271
Width: 1810
GlyphClass: 3
LigCaretCntFixed: 1
Flags: HW
LayerCount: 2
Fore
SplineSet
453 -256 m 2
 356 -256 265 -268 265 -322 c 0
 265 -331 272 -346 280 -353 c 0
 281 -353 l 1
 281 -353 l 0
 317 -388 390 -395 475 -395 c 0
 1640 -395 l 0
 1694 -395 1735 -440 1735 -492 c 0
 1735 -544 1692 -587 1640 -587 c 0
 300 -587 l 1
 299 -587 l 0
 196 -563 75 -466 75 -323 c 0
 75 -114 290 -63 463 -63 c 0
 965 -63 l 0
 1300 -63 1530 60 1530 364 c 0
 1530 611 1351 834 1105 834 c 0
 1104 834 1104 834 1104 834 c 1
 1214 726 1280 581 1280 419 c 0
 1280 207 1148 -5 902 -5 c 0
 647 -5 509 222 509 435 c 0
 509 585 574 733 674 835 c 1
 671 835 669 835 667 835 c 0
 455 835 278 677 278 482 c 0
 278 339 373 221 486 172 c 1
 518 157 541 120 541 85 c 0
 541 33 498 -10 446 -10 c 0
 431 -10 415 -5 404 1 c 1
 232 80 87 252 87 483 c 0
 87 787 354 1025 664 1025 c 0
 736 1025 815 1010 886 981 c 1
 957 1009 1029 1024 1099 1024 c 0
 1461 1024 1720 710 1720 365 c 0
 1720 -55 1397 -256 971 -256 c 0
 453 -256 l 2
887 772 m 1
 779 704 699 577 699 439 c 0
 699 310 769 186 901 186 c 0
 1022 186 1090 297 1090 423 c 0
 1090 573 1002 704 887 772 c 1
EndSplineSet
LCarets2: 1 0
EndChar

StartChar: th1u2
Encoding: 339 -1 272
Width: 1825
GlyphClass: 3
LigCaretCntFixed: 1
Flags: HW
LayerCount: 2
Fore
SplineSet
886 789 m 1
 771 714 686 586 686 418 c 0
 686 295 766 182 877 182 c 0
 986 182 1069 302 1069 422 c 0
 1069 589 997 712 886 789 c 1
498 422 m 0
 498 607 580 760 683 863 c 1
 671 864 659 865 647 865 c 0
 420 865 271 689 271 478 c 0
 271 340 380 215 486 164 c 1
 521 147 540 115 540 74 c 0
 540 28 496 -16 451 -16 c 0
 433 -16 416 -12 402 -5 c 1
 230 78 82 259 82 496 c 0
 82 803 337 1055 649 1055 c 0
 727 1055 808 1038 888 1003 c 1
 972 1039 1054 1057 1134 1057 c 0
 1388 1057 1640 918 1640 663 c 0
 1640 589 1602 524 1559 470 c 1
 1651 405 1710 308 1710 171 c 0
 1710 -99 1468 -213 1206 -213 c 0
 457 -213 l 0
 335 -213 266 -241 266 -283 c 0
 266 -336 371 -348 472 -348 c 0
 1655 -348 l 0
 1691 -348 1751 -389 1751 -435 c 0
 1751 -493 1710 -535 1656 -535 c 0
 445 -535 l 0
 256 -535 75 -471 75 -282 c 0
 75 -90 259 -23 452 -23 c 0
 1206 -23 l 0
 1405 -23 1519 28 1519 172 c 0
 1519 262 1449 332 1367 342 c 1
 1317 349 1284 390 1284 437 c 0
 1284 476 1314 509 1341 521 c 1
 1394 545 1449 595 1449 660 c 0
 1449 789 1297 865 1142 865 c 0
 1124 865 1105 863 1087 861 c 1
 1180 761 1256 608 1256 431 c 0
 1256 208 1119 -8 876 -8 c 0
 635 -8 498 202 498 422 c 0
EndSplineSet
LCarets2: 1 0
EndChar

StartChar: th1r1
Encoding: 340 -1 273
Width: 1783
GlyphClass: 3
LigCaretCntFixed: 1
Flags: HW
LayerCount: 2
Fore
SplineSet
817 -244 m 0
 706 -244 639 -273 639 -329 c 0
 639 -386 718 -403 849 -403 c 1
 935 -401 989 -376 989 -331 c 0
 989 -274 923 -244 817 -244 c 0
873 767 m 1
 764 697 683 571 683 415 c 0
 683 287 754 170 878 170 c 0
 998 170 1075 282 1075 407 c 0
 1075 576 995 692 873 767 c 1
807 -54 m 0
 988 -54 1160 -123 1178 -300 c 1
 1366 -184 1518 34 1518 312 c 0
 1518 587 1357 833 1096 833 c 0
 1092 833 1086 833 1083 833 c 1
 1195 725 1264 587 1264 404 c 0
 1264 188 1123 -20 880 -20 c 0
 634 -20 493 191 493 410 c 0
 493 587 559 727 664 833 c 1
 657 833 651 833 644 833 c 0
 424 833 266 684 266 471 c 0
 266 324 373 207 493 159 c 1
 527 145 552 117 552 80 c 0
 552 30 521 -24 464 -24 c 0
 447 -24 431 -22 418 -16 c 1
 233 60 75 239 75 482 c 0
 75 786 336 1024 643 1024 c 0
 718 1024 797 1007 872 977 c 1
 947 1008 1021 1023 1092 1023 c 0
 1472 1023 1708 681 1708 306 c 0
 1708 -185 1346 -594 856 -594 c 0
 635 -594 449 -537 449 -325 c 0
 449 -134 625 -54 807 -54 c 0
EndSplineSet
LCarets2: 1 0
EndChar

StartChar: th1th1
Encoding: 341 -1 274
Width: 3039
GlyphClass: 3
LigCaretCntFixed: 1
Flags: HW
LayerCount: 2
Fore
SplineSet
2158 759 m 1
 2051 688 1964 563 1964 403 c 0
 1964 283 2035 169 2152 169 c 0
 2270 169 2343 281 2343 406 c 0
 2343 570 2273 684 2158 759 c 1
871 173 m 0
 988 173 1070 287 1070 403 c 0
 1070 568 982 692 871 762 c 1
 760 691 679 569 679 414 c 0
 679 288 749 173 871 173 c 0
526 70 m 2
 526 25 483 -19 438 -19 c 0
 396 -19 347 8 287 52 c 0
 169 140 70 297 70 479 c 0
 70 784 331 1022 637 1022 c 0
 712 1022 793 1004 871 972 c 1
 946 1004 1016 1022 1093 1022 c 0
 1288 1022 1428 939 1515 808 c 1
 1604 935 1759 1022 1935 1022 c 0
 2009 1022 2084 1003 2158 971 c 1
 2236 1004 2316 1022 2397 1022 c 0
 2718 1022 2964 787 2964 482 c 0
 2964 243 2805 63 2622 -12 c 1
 2609 -18 2593 -20 2576 -20 c 0
 2533 -20 2488 24 2488 67 c 0
 2488 112 2508 146 2547 163 c 1
 2670 211 2774 329 2774 484 c 0
 2774 676 2613 832 2402 832 c 0
 2389 832 2372 830 2359 829 c 1
 2468 720 2533 581 2533 403 c 0
 2533 188 2395 -21 2154 -21 c 0
 1915 -21 1774 180 1774 396 c 0
 1774 578 1841 718 1955 829 c 1
 1945 830 1937 830 1928 830 c 0
 1695 830 1610 669 1608 433 c 1
 1608 74 l 1
 1607 22 1561 -20 1510 -20 c 0
 1458 -20 1415 20 1415 70 c 0
 1415 446 l 0
 1415 678 1327 829 1097 829 c 0
 1092 829 1085 828 1080 828 c 1
 1191 720 1257 585 1257 406 c 0
 1257 191 1116 -17 874 -17 c 0
 634 -17 489 186 489 404 c 0
 489 584 555 723 663 829 c 1
 654 830 647 830 639 830 c 0
 422 830 260 675 260 473 c 0
 260 337 358 213 472 162 c 1
 508 145 526 112 526 72 c 0
 526 70 l 2
EndSplineSet
LCarets2: 2 0 0
EndChar

StartChar: th1th1u1
Encoding: 342 -1 275
Width: 3059
GlyphClass: 3
Flags: HW
LayerCount: 2
Fore
SplineSet
2158 789 m 1
 2044 711 1967 586 1967 418 c 0
 1967 295 2040 174 2156 174 c 0
 2270 174 2349 291 2349 412 c 0
 2349 586 2267 715 2158 789 c 1
876 171 m 0
 992 171 1074 295 1074 417 c 0
 1074 587 985 717 875 790 c 1
 765 717 683 587 683 427 c 0
 683 296 756 171 876 171 c 0
450 -558 m 2
 277 -558 77 -502 77 -304 c 0
 77 -57 357 -56 575 -56 c 0
 2097 -56 l 0
 2500 -56 2792 73 2792 439 c 0
 2792 669 2628 865 2401 865 c 0
 2387 865 2373 864 2359 862 c 1
 2470 749 2537 608 2537 421 c 0
 2537 200 2400 -16 2159 -16 c 0
 1918 -16 1779 194 1779 416 c 0
 1779 603 1843 746 1952 859 c 1
 1944 859 1940 859 1933 859 c 0
 1869 859 1810 843 1756 808 c 1
 1645 735 1614 640 1612 449 c 1
 1612 79 l 1
 1611 27 1565 -15 1514 -15 c 0
 1462 -15 1419 26 1419 77 c 0
 1419 472 l 0
 1419 707 1328 859 1102 859 c 0
 1096 859 1089 858 1083 858 c 1
 1193 747 1261 607 1261 423 c 0
 1261 203 1121 -19 879 -19 c 0
 638 -19 493 197 493 421 c 0
 493 607 559 749 668 859 c 1
 658 860 652 860 643 860 c 0
 428 860 265 700 265 492 c 0
 265 340 363 221 476 167 c 1
 505 154 531 119 531 81 c 0
 531 33 492 -14 448 -14 c 0
 427 -14 408 -12 393 -4 c 1
 223 78 75 259 75 492 c 0
 75 806 332 1052 641 1052 c 0
 716 1052 797 1035 875 1002 c 1
 950 1034 1023 1049 1098 1049 c 0
 1292 1049 1432 966 1519 836 c 1
 1603 957 1752 1051 1936 1051 c 0
 2008 1051 2084 1035 2157 1003 c 1
 2238 1039 2317 1054 2395 1054 c 0
 2739 1054 2983 775 2983 445 c 0
 2983 -44 2590 -245 2097 -245 c 0
 490 -245 l 0
 358 -245 267 -264 267 -307 c 0
 267 -346 344 -361 442 -361 c 0
 2888 -361 l 0
 2943 -361 2984 -413 2984 -463 c 0
 2984 -503 2950 -558 2903 -558 c 0
 450 -558 l 2
EndSplineSet
LCarets2: 1 0
EndChar

StartChar: th1th1u2
Encoding: 343 -1 276
Width: 3059
GlyphClass: 3
LigCaretCntFixed: 1
Flags: HW
LayerCount: 2
Fore
SplineSet
2176 754 m 1
 2053 678 1966 557 1966 396 c 0
 1966 282 2042 169 2155 169 c 0
 2270 169 2349 290 2349 408 c 0
 2349 562 2275 681 2176 754 c 1
875 766 m 1
 764 695 683 573 683 417 c 0
 683 291 754 176 876 176 c 0
 997 176 1071 289 1071 413 c 0
 1071 575 977 700 875 766 c 1
477 -248 m 2
 330 -248 265 -271 265 -314 c 0
 265 -344 401 -364 484 -364 c 0
 2888 -364 l 0
 2943 -364 2984 -415 2984 -465 c 0
 2984 -505 2950 -560 2903 -560 c 0
 450 -560 l 0
 262 -560 77 -492 77 -306 c 0
 77 -120 254 -59 436 -59 c 0
 2184 -59 l 0
 2490 -59 2763 -27 2763 176 c 0
 2763 260 2703 318 2636 336 c 1
 2598 346 2567 385 2567 430 c 0
 2567 489 2614 518 2661 526 c 1
 2708 534 2762 591 2762 647 c 0
 2762 763 2623 834 2472 835 c 1
 2438 835 2403 832 2370 826 c 1
 2474 717 2537 582 2537 409 c 0
 2537 192 2399 -18 2154 -18 c 0
 1916 -18 1777 184 1777 394 c 0
 1777 582 1867 731 1976 829 c 1
 1959 831 1948 832 1933 832 c 0
 1704 832 1612 668 1612 433 c 0
 1612 76 l 1
 1611 24 1569 -17 1514 -17 c 0
 1458 -17 1419 25 1419 72 c 0
 1419 448 l 0
 1419 679 1333 831 1104 831 c 0
 1098 831 1090 831 1084 831 c 1
 1194 723 1261 587 1261 409 c 0
 1261 193 1120 -14 877 -14 c 0
 639 -14 492 191 492 404 c 0
 492 584 567 729 669 831 c 1
 658 832 651 832 641 832 c 0
 426 832 264 665 264 480 c 0
 264 333 363 216 477 163 c 1
 512 145 531 114 531 73 c 0
 531 27 487 -17 442 -17 c 0
 424 -17 407 -13 393 -6 c 1
 223 74 75 250 75 478 c 0
 75 785 333 1024 642 1024 c 0
 717 1024 797 1008 875 975 c 1
 950 1007 1023 1022 1098 1022 c 0
 1291 1022 1431 940 1519 810 c 1
 1604 933 1748 1023 1940 1023 c 0
 2022 1023 2104 1003 2181 966 c 1
 2274 1006 2374 1025 2482 1025 c 0
 2732 1025 2950 870 2950 636 c 0
 2950 546 2918 480 2851 422 c 1
 2918 355 2951 273 2951 178 c 0
 2951 -184 2576 -248 2188 -248 c 0
 477 -248 l 2
EndSplineSet
LCarets2: 1 0
EndChar

